<svg version="1.1" xmlns="http://www.w3.org/2000/svg" xmlns:xlink="http://www.w3.org/1999/xlink" width="597.1689453125" height="721"><defs/><g><g transform="translate(-214,-22) scale(1,1)"><path fill="#d8f2ff" stroke="none" d="M 256 60 C 256 44.5360256 270.3268864 32 288 32 C 305.6731136 32 320 44.5360256 320 60 C 320 75.4639744 305.6731136 88 288 88 C 270.3268864 88 256 75.4639744 256 60 Z"/></g><g transform="translate(-214,-22) scale(1,1)"><path fill="none" stroke="#000000" d="M 256 60 C 256 44.5360256 270.3268864 32 288 32 C 305.6731136 32 320 44.5360256 320 60 C 320 75.4639744 305.6731136 88 288 88 C 270.3268864 88 256 75.4639744 256 60 Z" stroke-miterlimit="10"/></g><g transform="translate(-214,-22) scale(1,1)"><g><path fill="none" stroke="none"/><text fill="#000000" stroke="none" font-family="Arial" font-size="13px" font-style="normal" font-weight="normal" text-decoration="none" x="278.24365234375" y="60">Bắt</text><text fill="#000000" stroke="none" font-family="Arial" font-size="13px" font-style="normal" font-weight="normal" text-decoration="none" x="277.155029296875" y="73">đầu</text></g></g><g transform="translate(-214,-22) scale(1,1)"><path fill="#d8f2ff" stroke="none" d="M 234 304 L 350 304 Q 360 304 360 314 L 360 339 Q 360 349 350 349 L 234 349 Q 224 349 224 339 L 224 314 Q 224 304 234 304 Z"/></g><g transform="translate(-214,-22) scale(1,1)"><path fill="none" stroke="#000000" d="M 234 304 L 350 304 Q 360 304 360 314 L 360 339 Q 360 349 350 349 L 234 349 Q 224 349 224 339 L 224 314 Q 224 304 234 304 Z" stroke-miterlimit="10"/></g><g transform="translate(-214,-22) scale(1,1)"><g><path fill="none" stroke="none"/><text fill="#000000" stroke="none" font-family="Arial" font-size="13px" font-style="normal" font-weight="normal" text-decoration="none" x="235.261474609375" y="326.5">Gene của con bằng</text><text fill="#000000" stroke="none" font-family="Arial" font-size="13px" font-style="normal" font-weight="normal" text-decoration="none" x="252.96826171875" y="339.5">gene của cha</text></g></g><g transform="translate(-214,-22) scale(1,1)"><path fill="#d8f2ff" stroke="none" d="M 234 128 L 347.2216796875 128 Q 357.2216796875 128 357.2216796875 138 L 357.2216796875 163 Q 357.2216796875 173 347.2216796875 173 L 234 173 Q 224 173 224 163 L 224 138 Q 224 128 234 128 Z"/></g><g transform="translate(-214,-22) scale(1,1)"><path fill="none" stroke="#000000" d="M 234 128 L 347.2216796875 128 Q 357.2216796875 128 357.2216796875 138 L 357.2216796875 163 Q 357.2216796875 173 347.2216796875 173 L 234 173 Q 224 173 224 163 L 224 138 Q 224 128 234 128 Z" stroke-miterlimit="10"/></g><g transform="translate(-214,-22) scale(1,1)"><g><path fill="none" stroke="none"/><text fill="#000000" stroke="none" font-family="Arial" font-size="13px" font-style="normal" font-weight="normal" text-decoration="none" x="243.273193359375" y="150.5">Chọn cá thể cha</text></g></g><g transform="translate(-214,-22) scale(1,1)"><path fill="#d8f2ff" stroke="none" d="M 234 224 L 350 224 Q 360 224 360 234 L 360 246 Q 360 256 350 256 L 234 256 Q 224 256 224 246 L 224 234 Q 224 224 234 224 Z"/></g><g transform="translate(-214,-22) scale(1,1)"><path fill="none" stroke="#000000" d="M 234 224 L 350 224 Q 360 224 360 234 L 360 246 Q 360 256 350 256 L 234 256 Q 224 256 224 246 L 224 234 Q 224 224 234 224 Z" stroke-miterlimit="10"/></g><g transform="translate(-214,-22) scale(1,1)"><g><path fill="none" stroke="none"/><text fill="#000000" stroke="none" font-family="Arial" font-size="13px" font-style="normal" font-weight="normal" text-decoration="none" x="244.306884765625" y="246.5">Chọn  cá thể mẹ</text></g></g><g transform="translate(-214,-22) scale(1,1)"><path fill="#d8f2ff" stroke="none" d="M 224 531.5 L 280.58447265625 480 L 337.1689453125 531.5 L 280.58447265625 583 L 224 531.5"/></g><g transform="translate(-214,-22) scale(1,1)"><path fill="none" stroke="#000000" d="M 224 531.5 L 280.58447265625 480 L 337.1689453125 531.5 L 280.58447265625 583 L 224 531.5 L 224 531.5" stroke-miterlimit="10"/></g><g transform="translate(-214,-22) scale(1,1)"><g><path fill="none" stroke="none"/><text fill="#000000" stroke="none" font-family="Arial" font-size="13px" font-style="normal" font-weight="normal" text-decoration="none" x="261.43359375" y="518.5">Cá thể</text><text fill="#000000" stroke="none" font-family="Arial" font-size="13px" font-style="normal" font-weight="normal" text-decoration="none" x="261.79541015625" y="531.5">con lai</text><text fill="#000000" stroke="none" font-family="Arial" font-size="13px" font-style="normal" font-weight="normal" text-decoration="none" x="262.515869140625" y="544.5">tạo tốt</text><text fill="#000000" stroke="none" font-family="Arial" font-size="13px" font-style="normal" font-weight="normal" text-decoration="none" x="269.092041015625" y="557.5">hơn</text></g></g><g transform="translate(-214,-22) scale(1,1)"><path fill="none" stroke="#000000" d="M 288 173 L 288 224" stroke-miterlimit="10"/></g><g transform="translate(-214,-22) scale(1,1)"><path fill="#000000" stroke="none" d="M 283.790482243984 213.83732514237585 L 288 224 L 292.209517756016 213.83732514237585"/></g><g transform="translate(-214,-22) scale(1,1)"><path fill="none" stroke="#000000" d="M 283.790482243984 213.83732514237585 L 288 224 L 292.209517756016 213.83732514237585 L 283.790482243984 213.83732514237585" stroke-miterlimit="10"/></g><g transform="translate(-214,-22) scale(1,1)"><path fill="none" stroke="#000000" d="M 288 256 L 288 304" stroke-miterlimit="10"/></g><g transform="translate(-214,-22) scale(1,1)"><path fill="#000000" stroke="none" d="M 283.790482243984 293.83732514237585 L 288 304 L 292.209517756016 293.83732514237585"/></g><g transform="translate(-214,-22) scale(1,1)"><path fill="none" stroke="#000000" d="M 283.790482243984 293.83732514237585 L 288 304 L 292.209517756016 293.83732514237585 L 283.790482243984 293.83732514237585" stroke-miterlimit="10"/></g><g transform="translate(-214,-22) scale(1,1)"><path fill="none" stroke="#000000" d="M 280 349 L 280 376 M 280 376 A 8 8 0 0 0 288 384 L 456 384" stroke-miterlimit="10"/></g><g transform="translate(-214,-22) scale(1,1)"><path fill="#000000" stroke="none" d="M 445.83732514237585 388.209517756016 L 456 384 L 445.83732514237585 379.790482243984"/></g><g transform="translate(-214,-22) scale(1,1)"><path fill="none" stroke="#000000" d="M 445.83732514237585 388.209517756016 L 456 384 L 445.83732514237585 379.790482243984 L 445.83732514237585 388.209517756016" stroke-miterlimit="10"/></g><g transform="translate(-214,-22) scale(1,1)"><path fill="none" stroke="#000000" d="M 280 480 L 280 400 M 280 400 A 8 8 0 0 1 288 392 L 456 392" stroke-miterlimit="10"/></g><g transform="translate(-214,-22) scale(1,1)"><path fill="#000000" stroke="none" d="M 445.83732514237585 396.209517756016 L 456 392 L 445.83732514237585 387.790482243984"/></g><g transform="translate(-214,-22) scale(1,1)"><path fill="none" stroke="#000000" d="M 445.83732514237585 396.209517756016 L 456 392 L 445.83732514237585 387.790482243984 L 445.83732514237585 396.209517756016" stroke-miterlimit="10"/></g><g transform="translate(-214,-22) scale(1,1)"><g><path fill="none" stroke="none"/><text fill="#000000" stroke="none" font-family="Arial" font-size="13px" font-style="normal" font-weight="normal" text-decoration="none" x="263.5" y="436.5">F</text></g></g><g transform="translate(-214,-22) scale(1,1)"><path fill="none" stroke="#000000" d="M 280 583 L 280 696 M 280 696 A 8 8 0 0 0 288 704 L 464 704" stroke-miterlimit="10"/></g><g transform="translate(-214,-22) scale(1,1)"><path fill="#000000" stroke="none" d="M 453.83732514237585 708.209517756016 L 464 704 L 453.83732514237585 699.790482243984"/></g><g transform="translate(-214,-22) scale(1,1)"><path fill="none" stroke="#000000" d="M 453.83732514237585 708.209517756016 L 464 704 L 453.83732514237585 699.790482243984 L 453.83732514237585 708.209517756016" stroke-miterlimit="10"/></g><g transform="translate(-214,-22) scale(1,1)"><g><path fill="none" stroke="none"/><text fill="#000000" stroke="none" font-family="Arial" font-size="13px" font-style="normal" font-weight="normal" text-decoration="none" x="263.5" y="627.5">T</text></g></g><g transform="translate(-214,-22) scale(1,1)"><path fill="#d8f2ff" stroke="none" d="M 474 680 L 579.2216796875 680 Q 589.2216796875 680 589.2216796875 690 L 589.2216796875 710 Q 589.2216796875 720 579.2216796875 720 L 474 720 Q 464 720 464 710 L 464 690 Q 464 680 474 680 Z"/></g><g transform="translate(-214,-22) scale(1,1)"><path fill="none" stroke="#000000" d="M 474 680 L 579.2216796875 680 Q 589.2216796875 680 589.2216796875 690 L 589.2216796875 710 Q 589.2216796875 720 579.2216796875 720 L 474 720 Q 464 720 464 710 L 464 690 Q 464 680 474 680 Z" stroke-miterlimit="10"/></g><g transform="translate(-214,-22) scale(1,1)"><g><path fill="none" stroke="none"/><text fill="#000000" stroke="none" font-family="Arial" font-size="13px" font-style="normal" font-weight="normal" text-decoration="none" x="475.655029296875" y="702.5">Ghi nhận phép lai</text></g></g><g transform="translate(-214,-22) scale(1,1)"><path fill="none" stroke="#000000" d="M 589 704 L 712 704" stroke-miterlimit="10"/></g><g transform="translate(-214,-22) scale(1,1)"><path fill="#000000" stroke="none" d="M 701.8373251423759 708.209517756016 L 712 704 L 701.8373251423758 699.790482243984"/></g><g transform="translate(-214,-22) scale(1,1)"><path fill="none" stroke="#000000" d="M 701.8373251423759 708.209517756016 L 712 704 L 701.8373251423758 699.790482243984 L 701.8373251423759 708.209517756016" stroke-miterlimit="10"/></g><g transform="translate(-214,-22) scale(1,1)"><path fill="none" stroke="#000000" d="M 288 88 L 288 128" stroke-miterlimit="10"/></g><g transform="translate(-214,-22) scale(1,1)"><path fill="#000000" stroke="none" d="M 283.790482243984 117.83732514237585 L 288 128 L 292.209517756016 117.83732514237585"/></g><g transform="translate(-214,-22) scale(1,1)"><path fill="none" stroke="#000000" d="M 283.790482243984 117.83732514237585 L 288 128 L 292.209517756016 117.83732514237585 L 283.790482243984 117.83732514237585" stroke-miterlimit="10"/></g><g transform="translate(-214,-22) scale(1,1)"><path fill="#d8f2ff" stroke="none" d="M 466 360 L 571.2216796875 360 Q 581.2216796875 360 581.2216796875 370 L 581.2216796875 408 Q 581.2216796875 418 571.2216796875 418 L 466 418 Q 456 418 456 408 L 456 370 Q 456 360 466 360 Z"/></g><g transform="translate(-214,-22) scale(1,1)"><path fill="none" stroke="#000000" d="M 466 360 L 571.2216796875 360 Q 581.2216796875 360 581.2216796875 370 L 581.2216796875 408 Q 581.2216796875 418 571.2216796875 418 L 466 418 Q 456 418 456 408 L 456 370 Q 456 360 466 360 Z" stroke-miterlimit="10"/></g><g transform="translate(-214,-22) scale(1,1)"><g><path fill="none" stroke="none"/><text fill="#000000" stroke="none" font-family="Arial" font-size="13px" font-style="normal" font-weight="normal" text-decoration="none" x="473.80908203125" y="382.5">Tìm chuỗi gene</text><text fill="#000000" stroke="none" font-family="Arial" font-size="13px" font-style="normal" font-weight="normal" text-decoration="none" x="469.108642578125" y="395.5">liên tục trong con</text><text fill="#000000" stroke="none" font-family="Arial" font-size="13px" font-style="normal" font-weight="normal" text-decoration="none" x="470.924072265625" y="408.5">mà khác của mẹ</text></g></g><g transform="translate(-214,-22) scale(1,1)"><path fill="#d8f2ff" stroke="none" d="M 474 496 L 579.2216796875 496 Q 589.2216796875 496 589.2216796875 506 L 589.2216796875 544 Q 589.2216796875 554 579.2216796875 554 L 474 554 Q 464 554 464 544 L 464 506 Q 464 496 474 496 Z"/></g><g transform="translate(-214,-22) scale(1,1)"><path fill="none" stroke="#000000" d="M 474 496 L 579.2216796875 496 Q 589.2216796875 496 589.2216796875 506 L 589.2216796875 544 Q 589.2216796875 554 579.2216796875 554 L 474 554 Q 464 554 464 544 L 464 506 Q 464 496 474 496 Z" stroke-miterlimit="10"/></g><g transform="translate(-214,-22) scale(1,1)"><g><path fill="none" stroke="none"/><text fill="#000000" stroke="none" font-family="Arial" font-size="13px" font-style="normal" font-weight="normal" text-decoration="none" x="484.31640625" y="518.5">Thử thay bằng</text><text fill="#000000" stroke="none" font-family="Arial" font-size="13px" font-style="normal" font-weight="normal" text-decoration="none" x="476.429443359375" y="531.5">đoạn gene tương</text><text fill="#000000" stroke="none" font-family="Arial" font-size="13px" font-style="normal" font-weight="normal" text-decoration="none" x="491.908203125" y="544.5">ứng của mẹ</text></g></g><g transform="translate(-214,-22) scale(1,1)"><path fill="none" stroke="#000000" d="M 581 382 L 688 382" stroke-miterlimit="10"/></g><g transform="translate(-214,-22) scale(1,1)"><path fill="#000000" stroke="none" d="M 677.8373251423759 386.209517756016 L 688 382 L 677.8373251423758 377.790482243984"/></g><g transform="translate(-214,-22) scale(1,1)"><path fill="none" stroke="#000000" d="M 677.8373251423759 386.209517756016 L 688 382 L 677.8373251423758 377.790482243984 L 677.8373251423759 386.209517756016" stroke-miterlimit="10"/></g><g transform="translate(-214,-22) scale(1,1)"><path fill="#d8f2ff" stroke="none" d="M 688 382.5 L 744.58447265625 360 L 801.1689453125 382.5 L 744.58447265625 405 L 688 382.5"/></g><g transform="translate(-214,-22) scale(1,1)"><path fill="none" stroke="#000000" d="M 688 382.5 L 744.58447265625 360 L 801.1689453125 382.5 L 744.58447265625 405 L 688 382.5 L 688 382.5" stroke-miterlimit="10"/></g><g transform="translate(-214,-22) scale(1,1)"><g><path fill="none" stroke="none"/><text fill="#000000" stroke="none" font-family="Arial" font-size="13px" font-style="normal" font-weight="normal" text-decoration="none" x="719.3017578125" y="389">Tìm thấy</text></g></g><g transform="translate(-214,-22) scale(1,1)"><path fill="none" stroke="#000000" d="M 736 405 L 736 517 M 736 517 A 8 8 0 0 1 728 525 L 589 525" stroke-miterlimit="10"/></g><g transform="translate(-214,-22) scale(1,1)"><path fill="#000000" stroke="none" d="M 599.1626748576241 520.790482243984 L 589 525 L 599.1626748576241 529.209517756016"/></g><g transform="translate(-214,-22) scale(1,1)"><path fill="none" stroke="#000000" d="M 599.1626748576241 520.790482243984 L 589 525 L 599.1626748576241 529.209517756016 L 599.1626748576241 520.790482243984" stroke-miterlimit="10"/></g><g transform="translate(-214,-22) scale(1,1)"><g><path fill="none" stroke="none"/><text fill="#000000" stroke="none" font-family="Arial" font-size="13px" font-style="normal" font-weight="normal" text-decoration="none" x="731.5" y="546.5">T</text></g></g><g transform="translate(-214,-22) scale(1,1)"><path fill="none" stroke="#000000" d="M 464 528 L 337 528" stroke-miterlimit="10"/></g><g transform="translate(-214,-22) scale(1,1)"><path fill="#000000" stroke="none" d="M 347.16267485762415 523.790482243984 L 337 528 L 347.16267485762415 532.209517756016"/></g><g transform="translate(-214,-22) scale(1,1)"><path fill="none" stroke="#000000" d="M 347.16267485762415 523.790482243984 L 337 528 L 347.16267485762415 532.209517756016 L 347.16267485762415 523.790482243984" stroke-miterlimit="10"/></g><g transform="translate(-214,-22) scale(1,1)"><path fill="none" stroke="#000000" d="M 748 405 L 748 664" stroke-miterlimit="10"/></g><g transform="translate(-214,-22) scale(1,1)"><path fill="#000000" stroke="none" d="M 743.790482243984 653.8373251423759 L 748 664 L 752.209517756016 653.8373251423759"/></g><g transform="translate(-214,-22) scale(1,1)"><path fill="none" stroke="#000000" d="M 743.790482243984 653.8373251423759 L 748 664 L 752.209517756016 653.8373251423759 L 743.790482243984 653.8373251423759" stroke-miterlimit="10"/></g><g transform="translate(-214,-22) scale(1,1)"><g><path fill="none" stroke="none"/><text fill="#000000" stroke="none" font-family="Arial" font-size="13px" font-style="normal" font-weight="normal" text-decoration="none" x="759.5" y="539.5">F</text></g></g><g transform="translate(-214,-22) scale(1,1)"><path fill="#d8f2ff" stroke="none" d="M 712 698.5 C 712 679.4461744 727.4461744 664 746.5 664 C 765.5538256 664 781 679.4461744 781 698.5 C 781 717.5538256 765.5538256 733 746.5 733 C 727.4461744 733 712 717.5538256 712 698.5 Z"/></g><g transform="translate(-214,-22) scale(1,1)"><path fill="none" stroke="#000000" d="M 712 698.5 C 712 679.4461744 727.4461744 664 746.5 664 C 765.5538256 664 781 679.4461744 781 698.5 C 781 717.5538256 765.5538256 733 746.5 733 C 727.4461744 733 712 717.5538256 712 698.5 Z" stroke-miterlimit="10"/></g><g transform="translate(-214,-22) scale(1,1)"><g><path fill="none" stroke="none"/></g></g><g transform="translate(-214,-22) scale(1,1)"><path fill="#d8f2ff" stroke="none" d="M 720 698.5 C 720 683.8644528 731.8644528 672 746.5 672 C 761.1355472 672 773 683.8644528 773 698.5 C 773 713.1355472 761.1355472 725 746.5 725 C 731.8644528 725 720 713.1355472 720 698.5 Z"/></g><g transform="translate(-214,-22) scale(1,1)"><path fill="none" stroke="#000000" d="M 720 698.5 C 720 683.8644528 731.8644528 672 746.5 672 C 761.1355472 672 773 683.8644528 773 698.5 C 773 713.1355472 761.1355472 725 746.5 725 C 731.8644528 725 720 713.1355472 720 698.5 Z" stroke-miterlimit="10"/></g><g transform="translate(-214,-22) scale(1,1)"><g><path fill="none" stroke="none"/><text fill="#000000" stroke="none" font-family="Arial" font-size="13px" font-style="normal" font-weight="normal" text-decoration="none" x="736.74365234375" y="698.5">Kết</text><text fill="#000000" stroke="none" font-family="Arial" font-size="13px" font-style="normal" font-weight="normal" text-decoration="none" x="734.214111328125" y="711.5">thúc</text></g></g></g></svg>