<svg version="1.1" xmlns="http://www.w3.org/2000/svg" xmlns:xlink="http://www.w3.org/1999/xlink" width="740" height="809"><defs/><g><g transform="translate(-62,-22) scale(1,1)"><path fill="#d8f2ff" stroke="none" d="M 256 60 C 256 44.5360256 268.5360256 32 284 32 C 299.4639744 32 312 44.5360256 312 60 C 312 75.4639744 299.4639744 88 284 88 C 268.5360256 88 256 75.4639744 256 60 Z"/></g><g transform="translate(-62,-22) scale(1,1)"><path fill="none" stroke="#000000" d="M 256 60 C 256 44.5360256 268.5360256 32 284 32 C 299.4639744 32 312 44.5360256 312 60 C 312 75.4639744 299.4639744 88 284 88 C 268.5360256 88 256 75.4639744 256 60 Z" stroke-miterlimit="10"/></g><g transform="translate(-62,-22) scale(1,1)"><g><path fill="none" stroke="none"/><text fill="#000000" stroke="none" font-family="Arial" font-size="13px" font-style="normal" font-weight="normal" text-decoration="none" x="274.24365234375" y="60">Bắt</text><text fill="#000000" stroke="none" font-family="Arial" font-size="13px" font-style="normal" font-weight="normal" text-decoration="none" x="273.155029296875" y="73">đầu</text></g></g><g transform="translate(-62,-22) scale(1,1)"><path fill="#d8f2ff" stroke="none" d="M 736 556 C 736 540.5360256 748.5360256 528 764 528 C 779.4639744 528 792 540.5360256 792 556 C 792 571.4639744 779.4639744 584 764 584 C 748.5360256 584 736 571.4639744 736 556 Z"/></g><g transform="translate(-62,-22) scale(1,1)"><path fill="none" stroke="#000000" d="M 736 556 C 736 540.5360256 748.5360256 528 764 528 C 779.4639744 528 792 540.5360256 792 556 C 792 571.4639744 779.4639744 584 764 584 C 748.5360256 584 736 571.4639744 736 556 Z" stroke-miterlimit="10"/></g><g transform="translate(-62,-22) scale(1,1)"><g><path fill="none" stroke="none"/><text fill="#000000" stroke="none" font-family="Arial" font-size="13px" font-style="normal" font-weight="normal" text-decoration="none" x="754.24365234375" y="556">Kết</text><text fill="#000000" stroke="none" font-family="Arial" font-size="13px" font-style="normal" font-weight="normal" text-decoration="none" x="751.714111328125" y="569">thúc</text></g></g><g transform="translate(-62,-22) scale(1,1)"><path fill="#d8f2ff" stroke="none" d="M 242 424 L 358 424 Q 368 424 368 434 L 368 459 Q 368 469 358 469 L 242 469 Q 232 469 232 459 L 232 434 Q 232 424 242 424 Z"/></g><g transform="translate(-62,-22) scale(1,1)"><path fill="none" stroke="#000000" d="M 242 424 L 358 424 Q 368 424 368 434 L 368 459 Q 368 469 358 469 L 242 469 Q 232 469 232 459 L 232 434 Q 232 424 242 424 Z" stroke-miterlimit="10"/></g><g transform="translate(-62,-22) scale(1,1)"><g><path fill="none" stroke="none"/><text fill="#000000" stroke="none" font-family="Arial" font-size="13px" font-style="normal" font-weight="normal" text-decoration="none" x="253.3828125" y="446.5">duyệt qua mảng</text><text fill="#000000" stroke="none" font-family="Arial" font-size="13px" font-style="normal" font-weight="normal" text-decoration="none" x="254.45556640625" y="459.5">gene từ cha mẹ</text></g></g><g transform="translate(-62,-22) scale(1,1)"><path fill="#d8f2ff" stroke="none" d="M 242 248 L 347.2216796875 248 Q 357.2216796875 248 357.2216796875 258 L 357.2216796875 283 Q 357.2216796875 293 347.2216796875 293 L 242 293 Q 232 293 232 283 L 232 258 Q 232 248 242 248 Z"/></g><g transform="translate(-62,-22) scale(1,1)"><path fill="none" stroke="#000000" d="M 242 248 L 347.2216796875 248 Q 357.2216796875 248 357.2216796875 258 L 357.2216796875 283 Q 357.2216796875 293 347.2216796875 293 L 242 293 Q 232 293 232 283 L 232 258 Q 232 248 242 248 Z" stroke-miterlimit="10"/></g><g transform="translate(-62,-22) scale(1,1)"><g><path fill="none" stroke="none"/><text fill="#000000" stroke="none" font-family="Arial" font-size="13px" font-style="normal" font-weight="normal" text-decoration="none" x="247.273193359375" y="270.5">Chọn cá thể cha</text></g></g><g transform="translate(-62,-22) scale(1,1)"><path fill="#d8f2ff" stroke="none" d="M 242 344 L 347.2216796875 344 Q 357.2216796875 344 357.2216796875 354 L 357.2216796875 366 Q 357.2216796875 376 347.2216796875 376 L 242 376 Q 232 376 232 366 L 232 354 Q 232 344 242 344 Z"/></g><g transform="translate(-62,-22) scale(1,1)"><path fill="none" stroke="#000000" d="M 242 344 L 347.2216796875 344 Q 357.2216796875 344 357.2216796875 354 L 357.2216796875 366 Q 357.2216796875 376 347.2216796875 376 L 242 376 Q 232 376 232 366 L 232 354 Q 232 344 242 344 Z" stroke-miterlimit="10"/></g><g transform="translate(-62,-22) scale(1,1)"><g><path fill="none" stroke="none"/><text fill="#000000" stroke="none" font-family="Arial" font-size="13px" font-style="normal" font-weight="normal" text-decoration="none" x="246.917724609375" y="366.5">Chọn  cá thể mẹ</text></g></g><g transform="translate(-62,-22) scale(1,1)"><path fill="#d8f2ff" stroke="none" d="M 248 571.5 L 304.58447265625 520 L 361.1689453125 571.5 L 304.58447265625 623 L 248 571.5"/></g><g transform="translate(-62,-22) scale(1,1)"><path fill="none" stroke="#000000" d="M 248 571.5 L 304.58447265625 520 L 361.1689453125 571.5 L 304.58447265625 623 L 248 571.5 L 248 571.5" stroke-miterlimit="10"/></g><g transform="translate(-62,-22) scale(1,1)"><g><path fill="none" stroke="none"/><text fill="#000000" stroke="none" font-family="Arial" font-size="13px" font-style="normal" font-weight="normal" text-decoration="none" x="279.3017578125" y="558.5">Tìm thấy</text><text fill="#000000" stroke="none" font-family="Arial" font-size="13px" font-style="normal" font-weight="normal" text-decoration="none" x="277.4736328125" y="571.5">đoạn gen</text><text fill="#000000" stroke="none" font-family="Arial" font-size="13px" font-style="normal" font-weight="normal" text-decoration="none" x="286.934814453125" y="584.5">tương</text><text fill="#000000" stroke="none" font-family="Arial" font-size="13px" font-style="normal" font-weight="normal" text-decoration="none" x="293.003173828125" y="597.5">ứng</text></g></g><g transform="translate(-62,-22) scale(1,1)"><path fill="none" stroke="#000000" d="M 288 88 L 288 152" stroke-miterlimit="10"/></g><g transform="translate(-62,-22) scale(1,1)"><path fill="#000000" stroke="none" d="M 283.790482243984 141.83732514237585 L 288 152 L 292.209517756016 141.83732514237585"/></g><g transform="translate(-62,-22) scale(1,1)"><path fill="none" stroke="#000000" d="M 283.790482243984 141.83732514237585 L 288 152 L 292.209517756016 141.83732514237585 L 283.790482243984 141.83732514237585" stroke-miterlimit="10"/></g><g transform="translate(-62,-22) scale(1,1)"><path fill="none" stroke="#000000" d="M 288 293 L 288 344" stroke-miterlimit="10"/></g><g transform="translate(-62,-22) scale(1,1)"><path fill="#000000" stroke="none" d="M 283.790482243984 333.83732514237585 L 288 344 L 292.209517756016 333.83732514237585"/></g><g transform="translate(-62,-22) scale(1,1)"><path fill="none" stroke="#000000" d="M 283.790482243984 333.83732514237585 L 288 344 L 292.209517756016 333.83732514237585 L 283.790482243984 333.83732514237585" stroke-miterlimit="10"/></g><g transform="translate(-62,-22) scale(1,1)"><path fill="none" stroke="#000000" d="M 288 376 L 288 424" stroke-miterlimit="10"/></g><g transform="translate(-62,-22) scale(1,1)"><path fill="#000000" stroke="none" d="M 283.790482243984 413.83732514237585 L 288 424 L 292.209517756016 413.83732514237585"/></g><g transform="translate(-62,-22) scale(1,1)"><path fill="none" stroke="#000000" d="M 283.790482243984 413.83732514237585 L 288 424 L 292.209517756016 413.83732514237585 L 283.790482243984 413.83732514237585" stroke-miterlimit="10"/></g><g transform="translate(-62,-22) scale(1,1)"><path fill="none" stroke="#000000" d="M 304 469 L 304 520" stroke-miterlimit="10"/></g><g transform="translate(-62,-22) scale(1,1)"><path fill="#000000" stroke="none" d="M 299.790482243984 509.83732514237585 L 304 520 L 308.209517756016 509.83732514237585"/></g><g transform="translate(-62,-22) scale(1,1)"><path fill="none" stroke="#000000" d="M 299.790482243984 509.83732514237585 L 304 520 L 308.209517756016 509.83732514237585 L 299.790482243984 509.83732514237585" stroke-miterlimit="10"/></g><g transform="translate(-62,-22) scale(1,1)"><path fill="none" stroke="#000000" d="M 304 623 L 304 664" stroke-miterlimit="10"/></g><g transform="translate(-62,-22) scale(1,1)"><path fill="#000000" stroke="none" d="M 299.790482243984 653.8373251423759 L 304 664 L 308.209517756016 653.8373251423759"/></g><g transform="translate(-62,-22) scale(1,1)"><path fill="none" stroke="#000000" d="M 299.790482243984 653.8373251423759 L 304 664 L 308.209517756016 653.8373251423759 L 299.790482243984 653.8373251423759" stroke-miterlimit="10"/></g><g transform="translate(-62,-22) scale(1,1)"><g><path fill="none" stroke="none"/><text fill="#000000" stroke="none" font-family="Arial" font-size="13px" font-style="normal" font-weight="normal" text-decoration="none" x="314.5" y="648.5">T</text></g></g><g transform="translate(-62,-22) scale(1,1)"><path fill="none" stroke="#000000" d="M 361 568 L 520 568" stroke-miterlimit="10"/></g><g transform="translate(-62,-22) scale(1,1)"><path fill="#000000" stroke="none" d="M 509.83732514237585 572.209517756016 L 520 568 L 509.83732514237585 563.790482243984"/></g><g transform="translate(-62,-22) scale(1,1)"><path fill="none" stroke="#000000" d="M 509.83732514237585 572.209517756016 L 520 568 L 509.83732514237585 563.790482243984 L 509.83732514237585 572.209517756016" stroke-miterlimit="10"/></g><g transform="translate(-62,-22) scale(1,1)"><g><path fill="none" stroke="none"/><text fill="#000000" stroke="none" font-family="Arial" font-size="13px" font-style="normal" font-weight="normal" text-decoration="none" x="436.5" y="559.5">F</text></g></g><g transform="translate(-62,-22) scale(1,1)"><path fill="#d8f2ff" stroke="none" d="M 250 776 L 355.2216796875 776 Q 365.2216796875 776 365.2216796875 786 L 365.2216796875 811 Q 365.2216796875 821 355.2216796875 821 L 250 821 Q 240 821 240 811 L 240 786 Q 240 776 250 776 Z"/></g><g transform="translate(-62,-22) scale(1,1)"><path fill="none" stroke="#000000" d="M 250 776 L 355.2216796875 776 Q 365.2216796875 776 365.2216796875 786 L 365.2216796875 811 Q 365.2216796875 821 355.2216796875 821 L 250 821 Q 240 821 240 811 L 240 786 Q 240 776 250 776 Z" stroke-miterlimit="10"/></g><g transform="translate(-62,-22) scale(1,1)"><g><path fill="none" stroke="none"/><text fill="#000000" stroke="none" font-family="Arial" font-size="13px" font-style="normal" font-weight="normal" text-decoration="none" x="259.24365234375" y="798.5">thêm đoạn gen</text><text fill="#000000" stroke="none" font-family="Arial" font-size="13px" font-style="normal" font-weight="normal" text-decoration="none" x="260.332275390625" y="811.5">vào cá thể con</text></g></g><g transform="translate(-62,-22) scale(1,1)"><path fill="#d8f2ff" stroke="none" d="M 234 152 L 339.2216796875 152 Q 349.2216796875 152 349.2216796875 162 L 349.2216796875 187 Q 349.2216796875 197 339.2216796875 197 L 234 197 Q 224 197 224 187 L 224 162 Q 224 152 234 152 Z"/></g><g transform="translate(-62,-22) scale(1,1)"><path fill="none" stroke="#000000" d="M 234 152 L 339.2216796875 152 Q 349.2216796875 152 349.2216796875 162 L 349.2216796875 187 Q 349.2216796875 197 339.2216796875 197 L 234 197 Q 224 197 224 187 L 224 162 Q 224 152 234 152 Z" stroke-miterlimit="10"/></g><g transform="translate(-62,-22) scale(1,1)"><g><path fill="none" stroke="none"/><text fill="#000000" stroke="none" font-family="Arial" font-size="13px" font-style="normal" font-weight="normal" text-decoration="none" x="242.599365234375" y="174.5">Khởi tạo cá thể</text><text fill="#000000" stroke="none" font-family="Arial" font-size="13px" font-style="normal" font-weight="normal" text-decoration="none" x="276.130859375" y="187.5">con</text></g></g><g transform="translate(-62,-22) scale(1,1)"><path fill="none" stroke="#000000" d="M 288 197 L 288 248" stroke-miterlimit="10"/></g><g transform="translate(-62,-22) scale(1,1)"><path fill="#000000" stroke="none" d="M 283.790482243984 237.83732514237585 L 288 248 L 292.209517756016 237.83732514237585"/></g><g transform="translate(-62,-22) scale(1,1)"><path fill="none" stroke="#000000" d="M 283.790482243984 237.83732514237585 L 288 248 L 292.209517756016 237.83732514237585 L 283.790482243984 237.83732514237585" stroke-miterlimit="10"/></g><g transform="translate(-62,-22) scale(1,1)"><path fill="none" stroke="#000000" d="M 240 798 L 80 798 M 80 798 A 8 8 0 0 1 72 790 L 72 454 M 72 454 A 8 8 0 0 1 80 446 L 232 446" stroke-miterlimit="10"/></g><g transform="translate(-62,-22) scale(1,1)"><path fill="#000000" stroke="none" d="M 221.83732514237585 450.209517756016 L 232 446 L 221.83732514237585 441.790482243984"/></g><g transform="translate(-62,-22) scale(1,1)"><path fill="none" stroke="#000000" d="M 221.83732514237585 450.209517756016 L 232 446 L 221.83732514237585 441.790482243984 L 221.83732514237585 450.209517756016" stroke-miterlimit="10"/></g><g transform="translate(-62,-22) scale(1,1)"><path fill="#d8f2ff" stroke="none" d="M 530 536 L 635.2216796875 536 Q 645.2216796875 536 645.2216796875 546 L 645.2216796875 584 Q 645.2216796875 594 635.2216796875 594 L 530 594 Q 520 594 520 584 L 520 546 Q 520 536 530 536 Z"/></g><g transform="translate(-62,-22) scale(1,1)"><path fill="none" stroke="#000000" d="M 530 536 L 635.2216796875 536 Q 645.2216796875 536 645.2216796875 546 L 645.2216796875 584 Q 645.2216796875 594 635.2216796875 594 L 530 594 Q 520 594 520 584 L 520 546 Q 520 536 530 536 Z" stroke-miterlimit="10"/></g><g transform="translate(-62,-22) scale(1,1)"><g><path fill="none" stroke="none"/><text fill="#000000" stroke="none" font-family="Arial" font-size="13px" font-style="normal" font-weight="normal" text-decoration="none" x="534.197265625" y="558.5">Thêm cá thể con</text><text fill="#000000" stroke="none" font-family="Arial" font-size="13px" font-style="normal" font-weight="normal" text-decoration="none" x="545.023193359375" y="571.5">vào quần thể</text></g></g><g transform="translate(-62,-22) scale(1,1)"><path fill="none" stroke="#000000" d="M 645 562 L 736 562" stroke-miterlimit="10"/></g><g transform="translate(-62,-22) scale(1,1)"><path fill="#000000" stroke="none" d="M 725.8373251423759 566.209517756016 L 736 562 L 725.8373251423758 557.790482243984"/></g><g transform="translate(-62,-22) scale(1,1)"><path fill="none" stroke="#000000" d="M 725.8373251423759 566.209517756016 L 736 562 L 725.8373251423758 557.790482243984 L 725.8373251423759 566.209517756016" stroke-miterlimit="10"/></g><g transform="translate(-62,-22) scale(1,1)"><path fill="#d8f2ff" stroke="none" d="M 250 664 L 355.2216796875 664 Q 365.2216796875 664 365.2216796875 674 L 365.2216796875 699 Q 365.2216796875 709 355.2216796875 709 L 250 709 Q 240 709 240 699 L 240 674 Q 240 664 250 664 Z"/></g><g transform="translate(-62,-22) scale(1,1)"><path fill="none" stroke="#000000" d="M 250 664 L 355.2216796875 664 Q 365.2216796875 664 365.2216796875 674 L 365.2216796875 699 Q 365.2216796875 709 355.2216796875 709 L 250 709 Q 240 709 240 699 L 240 674 Q 240 664 250 664 Z" stroke-miterlimit="10"/></g><g transform="translate(-62,-22) scale(1,1)"><g><path fill="none" stroke="none"/><text fill="#000000" stroke="none" font-family="Arial" font-size="13px" font-style="normal" font-weight="normal" text-decoration="none" x="258.155029296875" y="686.5">Chọn đoạn gen</text><text fill="#000000" stroke="none" font-family="Arial" font-size="13px" font-style="normal" font-weight="normal" text-decoration="none" x="260.332275390625" y="699.5">cho cá thể con</text></g></g><g transform="translate(-62,-22) scale(1,1)"><path fill="none" stroke="#000000" d="M 303 709 L 303 776" stroke-miterlimit="10"/></g><g transform="translate(-62,-22) scale(1,1)"><path fill="#000000" stroke="none" d="M 298.790482243984 765.8373251423759 L 303 776 L 307.209517756016 765.8373251423759"/></g><g transform="translate(-62,-22) scale(1,1)"><path fill="none" stroke="#000000" d="M 298.790482243984 765.8373251423759 L 303 776 L 307.209517756016 765.8373251423759 L 298.790482243984 765.8373251423759" stroke-miterlimit="10"/></g></g></svg>