<svg version="1.1" xmlns="http://www.w3.org/2000/svg" xmlns:xlink="http://www.w3.org/1999/xlink" width="529.2216796875" height="404"><defs/><g><g transform="translate(-38,-38) scale(1,1)"><path fill="#d8f2ff" stroke="none" d="M 80 72 C 80 58.7451648 92.5360256 48 108 48 C 123.4639744 48 136 58.7451648 136 72 C 136 85.2548352 123.4639744 96 108 96 C 92.5360256 96 80 85.2548352 80 72 Z"/></g><g transform="translate(-38,-38) scale(1,1)"><path fill="none" stroke="#000000" d="M 80 72 C 80 58.7451648 92.5360256 48 108 48 C 123.4639744 48 136 58.7451648 136 72 C 136 85.2548352 123.4639744 96 108 96 C 92.5360256 96 80 85.2548352 80 72 Z" stroke-miterlimit="10"/></g><g transform="translate(-38,-38) scale(1,1)"><g><path fill="none" stroke="none"/><text fill="#000000" stroke="none" font-family="Arial" font-size="13px" font-style="normal" font-weight="normal" text-decoration="none" x="98.24365234375" y="72">Bắt</text><text fill="#000000" stroke="none" font-family="Arial" font-size="13px" font-style="normal" font-weight="normal" text-decoration="none" x="97.155029296875" y="85">đầu</text></g></g><g transform="translate(-38,-38) scale(1,1)"><path fill="#d8f2ff" stroke="none" d="M 472 72 C 472 58.7451648 482.7451648 48 496 48 C 509.2548352 48 520 58.7451648 520 72 C 520 85.2548352 509.2548352 96 496 96 C 482.7451648 96 472 85.2548352 472 72 Z"/></g><g transform="translate(-38,-38) scale(1,1)"><path fill="none" stroke="#000000" d="M 472 72 C 472 58.7451648 482.7451648 48 496 48 C 509.2548352 48 520 58.7451648 520 72 C 520 85.2548352 509.2548352 96 496 96 C 482.7451648 96 472 85.2548352 472 72 Z" stroke-miterlimit="10"/></g><g transform="translate(-38,-38) scale(1,1)"><g><path fill="none" stroke="none"/><text fill="#000000" stroke="none" font-family="Arial" font-size="13px" font-style="normal" font-weight="normal" text-decoration="none" x="486.24365234375" y="72">Kết</text><text fill="#000000" stroke="none" font-family="Arial" font-size="13px" font-style="normal" font-weight="normal" text-decoration="none" x="483.714111328125" y="85">thúc</text></g></g><g transform="translate(-38,-38) scale(1,1)"><path fill="#d8f2ff" stroke="none" d="M 58 128 L 163.2216796875 128 Q 173.2216796875 128 173.2216796875 138 L 173.2216796875 163 Q 173.2216796875 173 163.2216796875 173 L 58 173 Q 48 173 48 163 L 48 138 Q 48 128 58 128 Z"/></g><g transform="translate(-38,-38) scale(1,1)"><path fill="none" stroke="#000000" d="M 58 128 L 163.2216796875 128 Q 173.2216796875 128 173.2216796875 138 L 173.2216796875 163 Q 173.2216796875 173 163.2216796875 173 L 58 173 Q 48 173 48 163 L 48 138 Q 48 128 58 128 Z" stroke-miterlimit="10"/></g><g transform="translate(-38,-38) scale(1,1)"><g><path fill="none" stroke="none"/><text fill="#000000" stroke="none" font-family="Arial" font-size="13px" font-style="normal" font-weight="normal" text-decoration="none" x="71.214111328125" y="150.5">Tạo Hồ Chứa</text><text fill="#000000" stroke="none" font-family="Arial" font-size="13px" font-style="normal" font-weight="normal" text-decoration="none" x="77.78076171875" y="163.5">Phương án</text></g></g><g transform="translate(-38,-38) scale(1,1)"><path fill="#d8f2ff" stroke="none" d="M 58 216 L 163.2216796875 216 Q 173.2216796875 216 173.2216796875 226 L 173.2216796875 238 Q 173.2216796875 248 163.2216796875 248 L 58 248 Q 48 248 48 238 L 48 226 Q 48 216 58 216 Z"/></g><g transform="translate(-38,-38) scale(1,1)"><path fill="none" stroke="#000000" d="M 58 216 L 163.2216796875 216 Q 173.2216796875 216 173.2216796875 226 L 173.2216796875 238 Q 173.2216796875 248 163.2216796875 248 L 58 248 Q 48 248 48 238 L 48 226 Q 48 216 58 216 Z" stroke-miterlimit="10"/></g><g transform="translate(-38,-38) scale(1,1)"><g><path fill="none" stroke="none"/><text fill="#000000" stroke="none" font-family="Arial" font-size="13px" font-style="normal" font-weight="normal" text-decoration="none" x="86.759521484375" y="238.5">Sắp xếp</text></g></g><g transform="translate(-38,-38) scale(1,1)"><path fill="#d8f2ff" stroke="none" d="M 58 400 L 163.2216796875 400 Q 173.2216796875 400 173.2216796875 410 L 173.2216796875 422 Q 173.2216796875 432 163.2216796875 432 L 58 432 Q 48 432 48 422 L 48 410 Q 48 400 58 400 Z"/></g><g transform="translate(-38,-38) scale(1,1)"><path fill="none" stroke="#000000" d="M 58 400 L 163.2216796875 400 Q 173.2216796875 400 173.2216796875 410 L 173.2216796875 422 Q 173.2216796875 432 163.2216796875 432 L 58 432 Q 48 432 48 422 L 48 410 Q 48 400 58 400 Z" stroke-miterlimit="10"/></g><g transform="translate(-38,-38) scale(1,1)"><g><path fill="none" stroke="none"/><text fill="#000000" stroke="none" font-family="Arial" font-size="13px" font-style="normal" font-weight="normal" text-decoration="none" x="65.075927734375" y="422.5">Lọc nguyên liệu</text></g></g><g transform="translate(-38,-38) scale(1,1)"><path fill="#d8f2ff" stroke="none" d="M 442 400 L 547.2216796875 400 Q 557.2216796875 400 557.2216796875 410 L 557.2216796875 422 Q 557.2216796875 432 547.2216796875 432 L 442 432 Q 432 432 432 422 L 432 410 Q 432 400 442 400 Z"/></g><g transform="translate(-38,-38) scale(1,1)"><path fill="none" stroke="#000000" d="M 442 400 L 547.2216796875 400 Q 557.2216796875 400 557.2216796875 410 L 557.2216796875 422 Q 557.2216796875 432 547.2216796875 432 L 442 432 Q 432 432 432 422 L 432 410 Q 432 400 442 400 Z" stroke-miterlimit="10"/></g><g transform="translate(-38,-38) scale(1,1)"><g><path fill="none" stroke="none"/><text fill="#ff0004" stroke="none" font-family="Arial" font-size="13px" font-style="normal" font-weight="normal" text-decoration="none" x="449.50439453125" y="422.5">Tìm phương án</text></g></g><g transform="translate(-38,-38) scale(1,1)"><path fill="#d8f2ff" stroke="none" d="M 48 313.5 L 104.58447265625 288 L 161.1689453125 313.5 L 104.58447265625 339 L 48 313.5"/></g><g transform="translate(-38,-38) scale(1,1)"><path fill="none" stroke="#000000" d="M 48 313.5 L 104.58447265625 288 L 161.1689453125 313.5 L 104.58447265625 339 L 48 313.5 L 48 313.5" stroke-miterlimit="10"/></g><g transform="translate(-38,-38) scale(1,1)"><g><path fill="none" stroke="none"/><text fill="#000000" stroke="none" font-family="Arial" font-size="13px" font-style="normal" font-weight="normal" text-decoration="none" x="77.486328125" y="313.5">Điều kiện</text><text fill="#000000" stroke="none" font-family="Arial" font-size="13px" font-style="normal" font-weight="normal" text-decoration="none" x="89.38818359375" y="326.5">dừng</text></g></g><g transform="translate(-38,-38) scale(1,1)"><path fill="#d8f2ff" stroke="none" d="M 442 128 L 547.2216796875 128 Q 557.2216796875 128 557.2216796875 138 L 557.2216796875 163 Q 557.2216796875 173 547.2216796875 173 L 442 173 Q 432 173 432 163 L 432 138 Q 432 128 442 128 Z"/></g><g transform="translate(-38,-38) scale(1,1)"><path fill="none" stroke="#000000" d="M 442 128 L 547.2216796875 128 Q 557.2216796875 128 557.2216796875 138 L 557.2216796875 163 Q 557.2216796875 173 547.2216796875 173 L 442 173 Q 432 173 432 163 L 432 138 Q 432 128 442 128 Z" stroke-miterlimit="10"/></g><g transform="translate(-38,-38) scale(1,1)"><g><path fill="none" stroke="none"/><text fill="#000000" stroke="none" font-family="Arial" font-size="13px" font-style="normal" font-weight="normal" text-decoration="none" x="445.15625" y="150.5">Chọn phương án</text><text fill="#000000" stroke="none" font-family="Arial" font-size="13px" font-style="normal" font-weight="normal" text-decoration="none" x="472.92724609375" y="163.5">tốt nhất</text></g></g><g transform="translate(-38,-38) scale(1,1)"><path fill="none" stroke="#000000" d="M 104 96 L 104 128" stroke-miterlimit="10"/></g><g transform="translate(-38,-38) scale(1,1)"><path fill="#000000" stroke="none" d="M 99.79048224398402 117.83732514237585 L 104 128 L 108.20951775601598 117.83732514237585"/></g><g transform="translate(-38,-38) scale(1,1)"><path fill="none" stroke="#000000" d="M 99.79048224398402 117.83732514237585 L 104 128 L 108.20951775601598 117.83732514237585 L 99.79048224398402 117.83732514237585" stroke-miterlimit="10"/></g><g transform="translate(-38,-38) scale(1,1)"><path fill="none" stroke="#000000" d="M 104 173 L 104 216" stroke-miterlimit="10"/></g><g transform="translate(-38,-38) scale(1,1)"><path fill="#000000" stroke="none" d="M 99.79048224398402 205.83732514237585 L 104 216 L 108.20951775601598 205.83732514237585"/></g><g transform="translate(-38,-38) scale(1,1)"><path fill="none" stroke="#000000" d="M 99.79048224398402 205.83732514237585 L 104 216 L 108.20951775601598 205.83732514237585 L 99.79048224398402 205.83732514237585" stroke-miterlimit="10"/></g><g transform="translate(-38,-38) scale(1,1)"><path fill="none" stroke="#000000" d="M 104 248 L 104 288" stroke-miterlimit="10"/></g><g transform="translate(-38,-38) scale(1,1)"><path fill="#000000" stroke="none" d="M 99.79048224398402 277.83732514237585 L 104 288 L 108.20951775601598 277.83732514237585"/></g><g transform="translate(-38,-38) scale(1,1)"><path fill="none" stroke="#000000" d="M 99.79048224398402 277.83732514237585 L 104 288 L 108.20951775601598 277.83732514237585 L 99.79048224398402 277.83732514237585" stroke-miterlimit="10"/></g><g transform="translate(-38,-38) scale(1,1)"><path fill="none" stroke="#000000" d="M 173 416 L 432 416" stroke-miterlimit="10"/></g><g transform="translate(-38,-38) scale(1,1)"><path fill="#000000" stroke="none" d="M 421.83732514237585 420.209517756016 L 432 416 L 421.83732514237585 411.790482243984"/></g><g transform="translate(-38,-38) scale(1,1)"><path fill="none" stroke="#000000" d="M 421.83732514237585 420.209517756016 L 432 416 L 421.83732514237585 411.790482243984 L 421.83732514237585 420.209517756016" stroke-miterlimit="10"/></g><g transform="translate(-38,-38) scale(1,1)"><path fill="none" stroke="#000000" d="M 496 400 L 496 328 M 496 328 A 8 8 0 0 0 488 320 L 161 320" stroke-miterlimit="10"/></g><g transform="translate(-38,-38) scale(1,1)"><path fill="#000000" stroke="none" d="M 171.16267485762415 315.790482243984 L 161 320 L 171.16267485762415 324.209517756016"/></g><g transform="translate(-38,-38) scale(1,1)"><path fill="none" stroke="#000000" d="M 171.16267485762415 315.790482243984 L 161 320 L 171.16267485762415 324.209517756016 L 171.16267485762415 315.790482243984" stroke-miterlimit="10"/></g><g transform="translate(-38,-38) scale(1,1)"><path fill="none" stroke="#000000" d="M 104 339 L 104 400" stroke-miterlimit="10"/></g><g transform="translate(-38,-38) scale(1,1)"><path fill="#000000" stroke="none" d="M 99.79048224398402 389.83732514237585 L 104 400 L 108.20951775601598 389.83732514237585"/></g><g transform="translate(-38,-38) scale(1,1)"><path fill="none" stroke="#000000" d="M 99.79048224398402 389.83732514237585 L 104 400 L 108.20951775601598 389.83732514237585 L 99.79048224398402 389.83732514237585" stroke-miterlimit="10"/></g><g transform="translate(-38,-38) scale(1,1)"><g><path fill="none" stroke="none"/><text fill="#000000" stroke="none" font-family="Arial" font-size="13px" font-style="normal" font-weight="normal" text-decoration="none" x="111.5" y="368.5">F</text></g></g><g transform="translate(-38,-38) scale(1,1)"><path fill="none" stroke="#000000" d="M 161 313 L 488 313 M 488 313 A 8 8 0 0 0 496 305 L 496 173" stroke-miterlimit="10"/></g><g transform="translate(-38,-38) scale(1,1)"><path fill="#000000" stroke="none" d="M 500.209517756016 183.16267485762415 L 496 173 L 491.790482243984 183.16267485762415"/></g><g transform="translate(-38,-38) scale(1,1)"><path fill="none" stroke="#000000" d="M 500.209517756016 183.16267485762415 L 496 173 L 491.790482243984 183.16267485762415 L 500.209517756016 183.16267485762415" stroke-miterlimit="10"/></g><g transform="translate(-38,-38) scale(1,1)"><g><path fill="none" stroke="none"/><text fill="#000000" stroke="none" font-family="Arial" font-size="13px" font-style="normal" font-weight="normal" text-decoration="none" x="302.5" y="300.5">T</text></g></g><g transform="translate(-38,-38) scale(1,1)"><path fill="none" stroke="#000000" d="M 496 128 L 496 96" stroke-miterlimit="10"/></g><g transform="translate(-38,-38) scale(1,1)"><path fill="#000000" stroke="none" d="M 500.209517756016 106.16267485762415 L 496 96 L 491.790482243984 106.16267485762415"/></g><g transform="translate(-38,-38) scale(1,1)"><path fill="none" stroke="#000000" d="M 500.209517756016 106.16267485762415 L 496 96 L 491.790482243984 106.16267485762415 L 500.209517756016 106.16267485762415" stroke-miterlimit="10"/></g></g></svg>