<svg version="1.1" xmlns="http://www.w3.org/2000/svg" xmlns:xlink="http://www.w3.org/1999/xlink" width="572" height="694"><defs/><g><g transform="translate(-54,-6) scale(1,1)"><path fill="#d8f2ff" stroke="none" d="M 96 60 C 96 40.1177472 112.1177472 24 132 24 C 151.8822528 24 168 40.1177472 168 60 C 168 79.8822528 151.8822528 96 132 96 C 112.1177472 96 96 79.8822528 96 60 Z"/></g><g transform="translate(-54,-6) scale(1,1)"><path fill="none" stroke="#000000" d="M 96 60 C 96 40.1177472 112.1177472 24 132 24 C 151.8822528 24 168 40.1177472 168 60 C 168 79.8822528 151.8822528 96 132 96 C 112.1177472 96 96 79.8822528 96 60 Z" stroke-miterlimit="10"/></g><g transform="translate(-54,-6) scale(1,1)"><g><path fill="none" stroke="none"/><text fill="#000000" stroke="none" font-family="Arial" font-size="13px" font-style="normal" font-weight="normal" text-decoration="none" x="122.24365234375" y="60">Bắt</text><text fill="#000000" stroke="none" font-family="Arial" font-size="13px" font-style="normal" font-weight="normal" text-decoration="none" x="121.155029296875" y="73">đầu</text></g></g><g transform="translate(-54,-6) scale(1,1)"><path fill="#d8f2ff" stroke="none" d="M 74 304 L 179.2216796875 304 Q 189.2216796875 304 189.2216796875 314 L 189.2216796875 352 Q 189.2216796875 362 179.2216796875 362 L 74 362 Q 64 362 64 352 L 64 314 Q 64 304 74 304 Z"/></g><g transform="translate(-54,-6) scale(1,1)"><path fill="none" stroke="#000000" d="M 74 304 L 179.2216796875 304 Q 189.2216796875 304 189.2216796875 314 L 189.2216796875 352 Q 189.2216796875 362 179.2216796875 362 L 74 362 Q 64 362 64 352 L 64 314 Q 64 304 74 304 Z" stroke-miterlimit="10"/></g><g transform="translate(-54,-6) scale(1,1)"><g><path fill="none" stroke="none"/><text fill="#000000" stroke="none" font-family="Arial" font-size="13px" font-style="normal" font-weight="normal" text-decoration="none" x="95.878662109375" y="326.5">Đưa thanh</text><text fill="#000000" stroke="none" font-family="Arial" font-size="13px" font-style="normal" font-weight="normal" text-decoration="none" x="82.8818359375" y="339.5">nguyên liệu dài</text><text fill="#000000" stroke="none" font-family="Arial" font-size="13px" font-style="normal" font-weight="normal" text-decoration="none" x="89.39453125" y="352.5">nhất lên máy</text></g></g><g transform="translate(-54,-6) scale(1,1)"><path fill="none" stroke="#000000" d="M 128 96 L 128 304" stroke-miterlimit="10"/></g><g transform="translate(-54,-6) scale(1,1)"><path fill="#000000" stroke="none" d="M 123.79048224398402 293.83732514237585 L 128 304 L 132.209517756016 293.83732514237585"/></g><g transform="translate(-54,-6) scale(1,1)"><path fill="none" stroke="#000000" d="M 123.79048224398402 293.83732514237585 L 128 304 L 132.209517756016 293.83732514237585 L 123.79048224398402 293.83732514237585" stroke-miterlimit="10"/></g><g transform="translate(-54,-6) scale(1,1)"><path fill="#d8f2ff" stroke="none" d="M 72 502.5 L 128.58447265625 464 L 185.1689453125 502.5 L 128.58447265625 541 L 72 502.5"/></g><g transform="translate(-54,-6) scale(1,1)"><path fill="none" stroke="#000000" d="M 72 502.5 L 128.58447265625 464 L 185.1689453125 502.5 L 128.58447265625 541 L 72 502.5 L 72 502.5" stroke-miterlimit="10"/></g><g transform="translate(-54,-6) scale(1,1)"><g><path fill="none" stroke="none"/><text fill="#000000" stroke="none" font-family="Arial" font-size="13px" font-style="normal" font-weight="normal" text-decoration="none" x="102.20361328125" y="496">Có thanh</text><text fill="#000000" stroke="none" font-family="Arial" font-size="13px" font-style="normal" font-weight="normal" text-decoration="none" x="100.826171875" y="509">đơn hàng</text><text fill="#000000" stroke="none" font-family="Arial" font-size="13px" font-style="normal" font-weight="normal" text-decoration="none" x="100.826171875" y="522">ngắn hơn</text></g></g><g transform="translate(-54,-6) scale(1,1)"><path fill="#d8f2ff" stroke="none" d="M 74 632 L 179.2216796875 632 Q 189.2216796875 632 189.2216796875 642 L 189.2216796875 680 Q 189.2216796875 690 179.2216796875 690 L 74 690 Q 64 690 64 680 L 64 642 Q 64 632 74 632 Z"/></g><g transform="translate(-54,-6) scale(1,1)"><path fill="none" stroke="#000000" d="M 74 632 L 179.2216796875 632 Q 189.2216796875 632 189.2216796875 642 L 189.2216796875 680 Q 189.2216796875 690 179.2216796875 690 L 74 690 Q 64 690 64 680 L 64 642 Q 64 632 74 632 Z" stroke-miterlimit="10"/></g><g transform="translate(-54,-6) scale(1,1)"><g><path fill="none" stroke="none"/><text fill="#000000" stroke="none" font-family="Arial" font-size="13px" font-style="normal" font-weight="normal" text-decoration="none" x="83.96728515625" y="654.5">Cắt theo thanh</text><text fill="#000000" stroke="none" font-family="Arial" font-size="13px" font-style="normal" font-weight="normal" text-decoration="none" x="88.37255859375" y="667.5">đơn hàng dài</text><text fill="#000000" stroke="none" font-family="Arial" font-size="13px" font-style="normal" font-weight="normal" text-decoration="none" x="94.447265625" y="680.5">nhất có thể</text></g></g><g transform="translate(-54,-6) scale(1,1)"><path fill="#d8f2ff" stroke="none" d="M 482 112 L 595.2216796875 112 Q 605.2216796875 112 605.2216796875 122 L 605.2216796875 147 Q 605.2216796875 157 595.2216796875 157 L 482 157 Q 472 157 472 147 L 472 122 Q 472 112 482 112 Z"/></g><g transform="translate(-54,-6) scale(1,1)"><path fill="none" stroke="#000000" d="M 482 112 L 595.2216796875 112 Q 605.2216796875 112 605.2216796875 122 L 605.2216796875 147 Q 605.2216796875 157 595.2216796875 157 L 482 157 Q 472 157 472 147 L 472 122 Q 472 112 482 112 Z" stroke-miterlimit="10"/></g><g transform="translate(-54,-6) scale(1,1)"><g><path fill="none" stroke="none"/><text fill="#000000" stroke="none" font-family="Arial" font-size="13px" font-style="normal" font-weight="normal" text-decoration="none" x="487.350341796875" y="134.5">Ghi nhận phương</text><text fill="#000000" stroke="none" font-family="Arial" font-size="13px" font-style="normal" font-weight="normal" text-decoration="none" x="518.453857421875" y="147.5">án mới</text></g></g><g transform="translate(-54,-6) scale(1,1)"><path fill="#d8f2ff" stroke="none" d="M 490 480 L 595.2216796875 480 Q 605.2216796875 480 605.2216796875 490 L 605.2216796875 515 Q 605.2216796875 525 595.2216796875 525 L 490 525 Q 480 525 480 515 L 480 490 Q 480 480 490 480 Z"/></g><g transform="translate(-54,-6) scale(1,1)"><path fill="none" stroke="#000000" d="M 490 480 L 595.2216796875 480 Q 605.2216796875 480 605.2216796875 490 L 605.2216796875 515 Q 605.2216796875 525 595.2216796875 525 L 490 525 Q 480 525 480 515 L 480 490 Q 480 480 490 480 Z" stroke-miterlimit="10"/></g><g transform="translate(-54,-6) scale(1,1)"><g><path fill="none" stroke="none"/><text fill="#000000" stroke="none" font-family="Arial" font-size="13px" font-style="normal" font-weight="normal" text-decoration="none" x="493.457763671875" y="502.5">Bỏ thanh nguyên</text><text fill="#000000" stroke="none" font-family="Arial" font-size="13px" font-style="normal" font-weight="normal" text-decoration="none" x="497.091796875" y="515.5">liệu ra khỏi máy</text></g></g><g transform="translate(-54,-6) scale(1,1)"><path fill="#d8f2ff" stroke="none" d="M 472 338.5 L 544 248 L 616 338.5 L 544 429 L 472 338.5"/></g><g transform="translate(-54,-6) scale(1,1)"><path fill="none" stroke="#000000" d="M 472 338.5 L 544 248 L 616 338.5 L 544 429 L 472 338.5 L 472 338.5" stroke-miterlimit="10"/></g><g transform="translate(-54,-6) scale(1,1)"><g><path fill="none" stroke="none"/><text fill="#000000" stroke="none" font-family="Arial" font-size="13px" font-style="normal" font-weight="normal" text-decoration="none" x="511.55078125" y="312.5">Đã hết đơn</text><text fill="#000000" stroke="none" font-family="Arial" font-size="13px" font-style="normal" font-weight="normal" text-decoration="none" x="513.63916015625" y="325.5">hàng hoặc</text><text fill="#000000" stroke="none" font-family="Arial" font-size="13px" font-style="normal" font-weight="normal" text-decoration="none" x="514.004150390625" y="338.5">không còn</text><text fill="#000000" stroke="none" font-family="Arial" font-size="13px" font-style="normal" font-weight="normal" text-decoration="none" x="527.734130859375" y="351.5">thanh</text><text fill="#000000" stroke="none" font-family="Arial" font-size="13px" font-style="normal" font-weight="normal" text-decoration="none" x="510.7509765625" y="364.5">nguyên liệu</text><text fill="#000000" stroke="none" font-family="Arial" font-size="13px" font-style="normal" font-weight="normal" text-decoration="none" x="526.2900390625" y="377.5">đủ dài</text></g></g><g transform="translate(-54,-6) scale(1,1)"><path fill="none" stroke="#000000" d="M 125 362 L 125 464" stroke-miterlimit="10"/></g><g transform="translate(-54,-6) scale(1,1)"><path fill="#000000" stroke="none" d="M 120.79048224398402 453.83732514237585 L 125 464 L 129.209517756016 453.83732514237585"/></g><g transform="translate(-54,-6) scale(1,1)"><path fill="none" stroke="#000000" d="M 120.79048224398402 453.83732514237585 L 125 464 L 129.209517756016 453.83732514237585 L 120.79048224398402 453.83732514237585" stroke-miterlimit="10"/></g><g transform="translate(-54,-6) scale(1,1)"><path fill="none" stroke="#000000" d="M 128 541 L 128 632" stroke-miterlimit="10"/></g><g transform="translate(-54,-6) scale(1,1)"><path fill="#000000" stroke="none" d="M 123.79048224398402 621.8373251423759 L 128 632 L 132.209517756016 621.8373251423759"/></g><g transform="translate(-54,-6) scale(1,1)"><path fill="none" stroke="#000000" d="M 123.79048224398402 621.8373251423759 L 128 632 L 132.209517756016 621.8373251423759 L 123.79048224398402 621.8373251423759" stroke-miterlimit="10"/></g><g transform="translate(-54,-6) scale(1,1)"><g><path fill="none" stroke="none"/><text fill="#000000" stroke="none" font-family="Arial" font-size="13px" font-style="normal" font-weight="normal" text-decoration="none" x="138.5" y="591.5">T</text></g></g><g transform="translate(-54,-6) scale(1,1)"><path fill="none" stroke="#000000" d="M 185 504 L 480 504" stroke-miterlimit="10"/></g><g transform="translate(-54,-6) scale(1,1)"><path fill="#000000" stroke="none" d="M 469.83732514237585 508.209517756016 L 480 504 L 469.83732514237585 499.790482243984"/></g><g transform="translate(-54,-6) scale(1,1)"><path fill="none" stroke="#000000" d="M 469.83732514237585 508.209517756016 L 480 504 L 469.83732514237585 499.790482243984 L 469.83732514237585 508.209517756016" stroke-miterlimit="10"/></g><g transform="translate(-54,-6) scale(1,1)"><g><path fill="none" stroke="none"/><text fill="#000000" stroke="none" font-family="Arial" font-size="13px" font-style="normal" font-weight="normal" text-decoration="none" x="328.5" y="495.5">F</text></g></g><g transform="translate(-54,-6) scale(1,1)"><path fill="none" stroke="#000000" d="M 189 661 L 224 661 M 224 661 A 8 8 0 0 0 232 653 L 232 528 M 232 528 A 8 8 0 0 0 224 520 L 185 520" stroke-miterlimit="10"/></g><g transform="translate(-54,-6) scale(1,1)"><path fill="#000000" stroke="none" d="M 195.16267485762415 515.790482243984 L 185 520 L 195.16267485762415 524.209517756016"/></g><g transform="translate(-54,-6) scale(1,1)"><path fill="none" stroke="#000000" d="M 195.16267485762415 515.790482243984 L 185 520 L 195.16267485762415 524.209517756016 L 195.16267485762415 515.790482243984" stroke-miterlimit="10"/></g><g transform="translate(-54,-6) scale(1,1)"><path fill="none" stroke="#000000" d="M 543 480 L 543 429" stroke-miterlimit="10"/></g><g transform="translate(-54,-6) scale(1,1)"><path fill="#000000" stroke="none" d="M 547.209517756016 439.16267485762415 L 543 429 L 538.790482243984 439.16267485762415"/></g><g transform="translate(-54,-6) scale(1,1)"><path fill="none" stroke="#000000" d="M 547.209517756016 439.16267485762415 L 543 429 L 538.790482243984 439.16267485762415 L 547.209517756016 439.16267485762415" stroke-miterlimit="10"/></g><g transform="translate(-54,-6) scale(1,1)"><path fill="none" stroke="#000000" d="M 544 248 L 544 157" stroke-miterlimit="10"/></g><g transform="translate(-54,-6) scale(1,1)"><path fill="#000000" stroke="none" d="M 548.209517756016 167.16267485762415 L 544 157 L 539.790482243984 167.16267485762415"/></g><g transform="translate(-54,-6) scale(1,1)"><path fill="none" stroke="#000000" d="M 548.209517756016 167.16267485762415 L 544 157 L 539.790482243984 167.16267485762415 L 548.209517756016 167.16267485762415" stroke-miterlimit="10"/></g><g transform="translate(-54,-6) scale(1,1)"><g><path fill="none" stroke="none"/><text fill="#000000" stroke="none" font-family="Arial" font-size="13px" font-style="normal" font-weight="normal" text-decoration="none" x="525.5" y="207.5">T</text></g></g><g transform="translate(-54,-6) scale(1,1)"><path fill="none" stroke="#000000" d="M 472 338 L 189 338" stroke-miterlimit="10"/></g><g transform="translate(-54,-6) scale(1,1)"><path fill="#000000" stroke="none" d="M 199.16267485762415 333.790482243984 L 189 338 L 199.16267485762415 342.209517756016"/></g><g transform="translate(-54,-6) scale(1,1)"><path fill="none" stroke="#000000" d="M 199.16267485762415 333.790482243984 L 189 338 L 199.16267485762415 342.209517756016 L 199.16267485762415 333.790482243984" stroke-miterlimit="10"/></g><g transform="translate(-54,-6) scale(1,1)"><g><path fill="none" stroke="none"/><text fill="#000000" stroke="none" font-family="Arial" font-size="13px" font-style="normal" font-weight="normal" text-decoration="none" x="325.5" y="359.5">F</text></g></g><g transform="translate(-54,-6) scale(1,1)"><path fill="#d8f2ff" stroke="none" d="M 504 48 C 504 30.3268864 520.1177472 16 540 16 C 559.8822528 16 576 30.3268864 576 48 C 576 65.6731136 559.8822528 80 540 80 C 520.1177472 80 504 65.6731136 504 48 Z"/></g><g transform="translate(-54,-6) scale(1,1)"><path fill="none" stroke="#000000" d="M 504 48 C 504 30.3268864 520.1177472 16 540 16 C 559.8822528 16 576 30.3268864 576 48 C 576 65.6731136 559.8822528 80 540 80 C 520.1177472 80 504 65.6731136 504 48 Z" stroke-miterlimit="10"/></g><g transform="translate(-54,-6) scale(1,1)"><g><path fill="none" stroke="none"/></g></g><g transform="translate(-54,-6) scale(1,1)"><path fill="#d8f2ff" stroke="none" d="M 512 48 C 512 34.7451648 524.5360256 24 540 24 C 555.4639744 24 568 34.7451648 568 48 C 568 61.2548352 555.4639744 72 540 72 C 524.5360256 72 512 61.2548352 512 48 Z"/></g><g transform="translate(-54,-6) scale(1,1)"><path fill="none" stroke="#000000" d="M 512 48 C 512 34.7451648 524.5360256 24 540 24 C 555.4639744 24 568 34.7451648 568 48 C 568 61.2548352 555.4639744 72 540 72 C 524.5360256 72 512 61.2548352 512 48 Z" stroke-miterlimit="10"/></g><g transform="translate(-54,-6) scale(1,1)"><g><path fill="none" stroke="none"/><text fill="#000000" stroke="none" font-family="Arial" font-size="13px" font-style="normal" font-weight="normal" text-decoration="none" x="530.24365234375" y="48">Kết</text><text fill="#000000" stroke="none" font-family="Arial" font-size="13px" font-style="normal" font-weight="normal" text-decoration="none" x="527.714111328125" y="61">thúc</text></g></g><g transform="translate(-54,-6) scale(1,1)"><path fill="none" stroke="#000000" d="M 544 112 L 544 80" stroke-miterlimit="10"/></g><g transform="translate(-54,-6) scale(1,1)"><path fill="#000000" stroke="none" d="M 548.209517756016 90.16267485762415 L 544 80 L 539.790482243984 90.16267485762415"/></g><g transform="translate(-54,-6) scale(1,1)"><path fill="none" stroke="#000000" d="M 548.209517756016 90.16267485762415 L 544 80 L 539.790482243984 90.16267485762415 L 548.209517756016 90.16267485762415" stroke-miterlimit="10"/></g></g></svg>