<svg version="1.1" xmlns="http://www.w3.org/2000/svg" xmlns:xlink="http://www.w3.org/1999/xlink" width="565.1689453125" height="548"><defs/><g><g transform="translate(-54,-22) scale(1,1)"><path fill="#d8f2ff" stroke="none" d="M 96 62.5 C 96 50.073592 107.8644528 40 122.5 40 C 137.1355472 40 149 50.073592 149 62.5 C 149 74.926408 137.1355472 85 122.5 85 C 107.8644528 85 96 74.926408 96 62.5 Z"/></g><g transform="translate(-54,-22) scale(1,1)"><path fill="none" stroke="#000000" d="M 96 62.5 C 96 50.073592 107.8644528 40 122.5 40 C 137.1355472 40 149 50.073592 149 62.5 C 149 74.926408 137.1355472 85 122.5 85 C 107.8644528 85 96 74.926408 96 62.5 Z" stroke-miterlimit="10"/></g><g transform="translate(-54,-22) scale(1,1)"><g><path fill="none" stroke="none"/><text fill="#000000" stroke="none" font-family="Arial" font-size="13px" font-style="normal" font-weight="normal" text-decoration="none" x="112.74365234375" y="62.5">Bắt</text><text fill="#000000" stroke="none" font-family="Arial" font-size="13px" font-style="normal" font-weight="normal" text-decoration="none" x="111.655029296875" y="75.5">đầu</text></g></g><g transform="translate(-54,-22) scale(1,1)"><path fill="#d8f2ff" stroke="none" d="M 74 224 L 179.2216796875 224 Q 189.2216796875 224 189.2216796875 234 L 189.2216796875 246 Q 189.2216796875 256 179.2216796875 256 L 74 256 Q 64 256 64 246 L 64 234 Q 64 224 74 224 Z"/></g><g transform="translate(-54,-22) scale(1,1)"><path fill="none" stroke="#000000" d="M 74 224 L 179.2216796875 224 Q 189.2216796875 224 189.2216796875 234 L 189.2216796875 246 Q 189.2216796875 256 179.2216796875 256 L 74 256 Q 64 256 64 246 L 64 234 Q 64 224 74 224 Z" stroke-miterlimit="10"/></g><g transform="translate(-54,-22) scale(1,1)"><g><path fill="none" stroke="none"/><text fill="#000000" stroke="none" font-family="Arial" font-size="13px" font-style="normal" font-weight="normal" text-decoration="none" x="76.016845703125" y="246.5">Chọn nguyên liệu</text></g></g><g transform="translate(-54,-22) scale(1,1)"><path fill="none" stroke="#000000" d="M 120 85 L 120 224" stroke-miterlimit="10"/></g><g transform="translate(-54,-22) scale(1,1)"><path fill="#000000" stroke="none" d="M 115.79048224398402 213.83732514237585 L 120 224 L 124.20951775601598 213.83732514237585"/></g><g transform="translate(-54,-22) scale(1,1)"><path fill="none" stroke="#000000" d="M 115.79048224398402 213.83732514237585 L 120 224 L 124.20951775601598 213.83732514237585 L 115.79048224398402 213.83732514237585" stroke-miterlimit="10"/></g><g transform="translate(-54,-22) scale(1,1)"><path fill="#d8f2ff" stroke="none" d="M 64 369.5 L 120.58447265625 344 L 177.1689453125 369.5 L 120.58447265625 395 L 64 369.5"/></g><g transform="translate(-54,-22) scale(1,1)"><path fill="none" stroke="#000000" d="M 64 369.5 L 120.58447265625 344 L 177.1689453125 369.5 L 120.58447265625 395 L 64 369.5 L 64 369.5" stroke-miterlimit="10"/></g><g transform="translate(-54,-22) scale(1,1)"><g><path fill="none" stroke="none"/><text fill="#000000" stroke="none" font-family="Arial" font-size="13px" font-style="normal" font-weight="normal" text-decoration="none" x="93.486328125" y="369.5">Điều kiện</text><text fill="#000000" stroke="none" font-family="Arial" font-size="13px" font-style="normal" font-weight="normal" text-decoration="none" x="111.91357421875" y="382.5">cắt</text></g></g><g transform="translate(-54,-22) scale(1,1)"><path fill="#d8f2ff" stroke="none" d="M 82 528 L 187.2216796875 528 Q 197.2216796875 528 197.2216796875 538 L 197.2216796875 550 Q 197.2216796875 560 187.2216796875 560 L 82 560 Q 72 560 72 550 L 72 538 Q 72 528 82 528 Z"/></g><g transform="translate(-54,-22) scale(1,1)"><path fill="none" stroke="#000000" d="M 82 528 L 187.2216796875 528 Q 197.2216796875 528 197.2216796875 538 L 197.2216796875 550 Q 197.2216796875 560 187.2216796875 560 L 82 560 Q 72 560 72 550 L 72 538 Q 72 528 82 528 Z" stroke-miterlimit="10"/></g><g transform="translate(-54,-22) scale(1,1)"><g><path fill="none" stroke="none"/><text fill="#000000" stroke="none" font-family="Arial" font-size="13px" font-style="normal" font-weight="normal" text-decoration="none" x="124.495849609375" y="550.5">Cắt</text></g></g><g transform="translate(-54,-22) scale(1,1)"><path fill="#d8f2ff" stroke="none" d="M 482 112 L 595.2216796875 112 Q 605.2216796875 112 605.2216796875 122 L 605.2216796875 147 Q 605.2216796875 157 595.2216796875 157 L 482 157 Q 472 157 472 147 L 472 122 Q 472 112 482 112 Z"/></g><g transform="translate(-54,-22) scale(1,1)"><path fill="none" stroke="#000000" d="M 482 112 L 595.2216796875 112 Q 605.2216796875 112 605.2216796875 122 L 605.2216796875 147 Q 605.2216796875 157 595.2216796875 157 L 482 157 Q 472 157 472 147 L 472 122 Q 472 112 482 112 Z" stroke-miterlimit="10"/></g><g transform="translate(-54,-22) scale(1,1)"><g><path fill="none" stroke="none"/><text fill="#000000" stroke="none" font-family="Arial" font-size="13px" font-style="normal" font-weight="normal" text-decoration="none" x="492.3427734375" y="134.5">Cải tạo hồ chứa</text></g></g><g transform="translate(-54,-22) scale(1,1)"><path fill="#d8f2ff" stroke="none" d="M 490 352 L 595.2216796875 352 Q 605.2216796875 352 605.2216796875 362 L 605.2216796875 374 Q 605.2216796875 384 595.2216796875 384 L 490 384 Q 480 384 480 374 L 480 362 Q 480 352 490 352 Z"/></g><g transform="translate(-54,-22) scale(1,1)"><path fill="none" stroke="#000000" d="M 490 352 L 595.2216796875 352 Q 605.2216796875 352 605.2216796875 362 L 605.2216796875 374 Q 605.2216796875 384 595.2216796875 384 L 490 384 Q 480 384 480 374 L 480 362 Q 480 352 490 352 Z" stroke-miterlimit="10"/></g><g transform="translate(-54,-22) scale(1,1)"><g><path fill="none" stroke="none"/><text fill="#000000" stroke="none" font-family="Arial" font-size="13px" font-style="normal" font-weight="normal" text-decoration="none" x="505.7373046875" y="374.5">Vật liệu thừa</text></g></g><g transform="translate(-54,-22) scale(1,1)"><path fill="#d8f2ff" stroke="none" d="M 480 238.5 L 544.58447265625 200 L 609.1689453125 238.5 L 544.58447265625 277 L 480 238.5"/></g><g transform="translate(-54,-22) scale(1,1)"><path fill="none" stroke="#000000" d="M 480 238.5 L 544.58447265625 200 L 609.1689453125 238.5 L 544.58447265625 277 L 480 238.5 L 480 238.5" stroke-miterlimit="10"/></g><g transform="translate(-54,-22) scale(1,1)"><g><path fill="none" stroke="none"/><text fill="#000000" stroke="none" font-family="Arial" font-size="13px" font-style="normal" font-weight="normal" text-decoration="none" x="517.486328125" y="238.5">Điều kiện</text><text fill="#000000" stroke="none" font-family="Arial" font-size="13px" font-style="normal" font-weight="normal" text-decoration="none" x="529.38818359375" y="251.5">dừng</text></g></g><g transform="translate(-54,-22) scale(1,1)"><path fill="#d8f2ff" stroke="none" d="M 512 54.5 C 512 42.073592 523.8644528 32 538.5 32 C 553.1355472 32 565 42.073592 565 54.5 C 565 66.926408 553.1355472 77 538.5 77 C 523.8644528 77 512 66.926408 512 54.5 Z"/></g><g transform="translate(-54,-22) scale(1,1)"><path fill="none" stroke="#000000" d="M 512 54.5 C 512 42.073592 523.8644528 32 538.5 32 C 553.1355472 32 565 42.073592 565 54.5 C 565 66.926408 553.1355472 77 538.5 77 C 523.8644528 77 512 66.926408 512 54.5 Z" stroke-miterlimit="10"/></g><g transform="translate(-54,-22) scale(1,1)"><g><path fill="none" stroke="none"/><text fill="#000000" stroke="none" font-family="Arial" font-size="13px" font-style="normal" font-weight="normal" text-decoration="none" x="528.74365234375" y="54.5">Kết</text><text fill="#000000" stroke="none" font-family="Arial" font-size="13px" font-style="normal" font-weight="normal" text-decoration="none" x="526.214111328125" y="67.5">thúc</text></g></g><g transform="translate(-54,-22) scale(1,1)"><path fill="none" stroke="#000000" d="M 125 256 L 125 344" stroke-miterlimit="10"/></g><g transform="translate(-54,-22) scale(1,1)"><path fill="#000000" stroke="none" d="M 120.79048224398402 333.83732514237585 L 125 344 L 129.209517756016 333.83732514237585"/></g><g transform="translate(-54,-22) scale(1,1)"><path fill="none" stroke="#000000" d="M 120.79048224398402 333.83732514237585 L 125 344 L 129.209517756016 333.83732514237585 L 120.79048224398402 333.83732514237585" stroke-miterlimit="10"/></g><g transform="translate(-54,-22) scale(1,1)"><path fill="none" stroke="#000000" d="M 121 395 L 121 528" stroke-miterlimit="10"/></g><g transform="translate(-54,-22) scale(1,1)"><path fill="#000000" stroke="none" d="M 116.79048224398402 517.8373251423759 L 121 528 L 125.20951775601598 517.8373251423759"/></g><g transform="translate(-54,-22) scale(1,1)"><path fill="none" stroke="#000000" d="M 116.79048224398402 517.8373251423759 L 121 528 L 125.20951775601598 517.8373251423759 L 116.79048224398402 517.8373251423759" stroke-miterlimit="10"/></g><g transform="translate(-54,-22) scale(1,1)"><g><path fill="none" stroke="none"/><text fill="#000000" stroke="none" font-family="Arial" font-size="13px" font-style="normal" font-weight="normal" text-decoration="none" x="131.5" y="466.5">T</text></g></g><g transform="translate(-54,-22) scale(1,1)"><path fill="none" stroke="#000000" d="M 177 369 L 480 369" stroke-miterlimit="10"/></g><g transform="translate(-54,-22) scale(1,1)"><path fill="#000000" stroke="none" d="M 469.83732514237585 373.209517756016 L 480 369 L 469.83732514237585 364.790482243984"/></g><g transform="translate(-54,-22) scale(1,1)"><path fill="none" stroke="#000000" d="M 469.83732514237585 373.209517756016 L 480 369 L 469.83732514237585 364.790482243984 L 469.83732514237585 373.209517756016" stroke-miterlimit="10"/></g><g transform="translate(-54,-22) scale(1,1)"><g><path fill="none" stroke="none"/><text fill="#000000" stroke="none" font-family="Arial" font-size="13px" font-style="normal" font-weight="normal" text-decoration="none" x="324.5" y="360.5">F</text></g></g><g transform="translate(-54,-22) scale(1,1)"><path fill="none" stroke="#000000" d="M 197 544 L 224 544 M 224 544 A 8 8 0 0 0 232 536 L 232 384 M 232 384 A 8 8 0 0 0 224 376 L 177 376" stroke-miterlimit="10"/></g><g transform="translate(-54,-22) scale(1,1)"><path fill="#000000" stroke="none" d="M 187.16267485762415 371.790482243984 L 177 376 L 187.16267485762415 380.209517756016"/></g><g transform="translate(-54,-22) scale(1,1)"><path fill="none" stroke="#000000" d="M 187.16267485762415 371.790482243984 L 177 376 L 187.16267485762415 380.209517756016 L 187.16267485762415 371.790482243984" stroke-miterlimit="10"/></g><g transform="translate(-54,-22) scale(1,1)"><path fill="none" stroke="#000000" d="M 543 352 L 543 277" stroke-miterlimit="10"/></g><g transform="translate(-54,-22) scale(1,1)"><path fill="#000000" stroke="none" d="M 547.209517756016 287.16267485762415 L 543 277 L 538.790482243984 287.16267485762415"/></g><g transform="translate(-54,-22) scale(1,1)"><path fill="none" stroke="#000000" d="M 547.209517756016 287.16267485762415 L 543 277 L 538.790482243984 287.16267485762415 L 547.209517756016 287.16267485762415" stroke-miterlimit="10"/></g><g transform="translate(-54,-22) scale(1,1)"><path fill="none" stroke="#000000" d="M 539 200 L 539 157" stroke-miterlimit="10"/></g><g transform="translate(-54,-22) scale(1,1)"><path fill="#000000" stroke="none" d="M 543.209517756016 167.16267485762415 L 539 157 L 534.790482243984 167.16267485762415"/></g><g transform="translate(-54,-22) scale(1,1)"><path fill="none" stroke="#000000" d="M 543.209517756016 167.16267485762415 L 539 157 L 534.790482243984 167.16267485762415 L 543.209517756016 167.16267485762415" stroke-miterlimit="10"/></g><g transform="translate(-54,-22) scale(1,1)"><g><path fill="none" stroke="none"/><text fill="#000000" stroke="none" font-family="Arial" font-size="13px" font-style="normal" font-weight="normal" text-decoration="none" x="520.5" y="183.5">T</text></g></g><g transform="translate(-54,-22) scale(1,1)"><path fill="none" stroke="#000000" d="M 480 240 L 189 240" stroke-miterlimit="10"/></g><g transform="translate(-54,-22) scale(1,1)"><path fill="#000000" stroke="none" d="M 199.16267485762415 235.790482243984 L 189 240 L 199.16267485762415 244.209517756016"/></g><g transform="translate(-54,-22) scale(1,1)"><path fill="none" stroke="#000000" d="M 199.16267485762415 235.790482243984 L 189 240 L 199.16267485762415 244.209517756016 L 199.16267485762415 235.790482243984" stroke-miterlimit="10"/></g><g transform="translate(-54,-22) scale(1,1)"><g><path fill="none" stroke="none"/><text fill="#000000" stroke="none" font-family="Arial" font-size="13px" font-style="normal" font-weight="normal" text-decoration="none" x="329.5" y="261.5">F</text></g></g><g transform="translate(-54,-22) scale(1,1)"><path fill="none" stroke="#000000" d="M 538 112 L 538 77" stroke-miterlimit="10"/></g><g transform="translate(-54,-22) scale(1,1)"><path fill="#000000" stroke="none" d="M 542.209517756016 87.16267485762415 L 538 77 L 533.790482243984 87.16267485762415"/></g><g transform="translate(-54,-22) scale(1,1)"><path fill="none" stroke="#000000" d="M 542.209517756016 87.16267485762415 L 538 77 L 533.790482243984 87.16267485762415 L 542.209517756016 87.16267485762415" stroke-miterlimit="10"/></g></g></svg>