<svg version="1.1" xmlns="http://www.w3.org/2000/svg" xmlns:xlink="http://www.w3.org/1999/xlink" width="553.2216796875" height="545"><defs/><g><g transform="translate(-22,-30) scale(1,1)"><path fill="#d8f2ff" stroke="none" d="M 80 72 C 80 58.7451648 92.5360256 48 108 48 C 123.4639744 48 136 58.7451648 136 72 C 136 85.2548352 123.4639744 96 108 96 C 92.5360256 96 80 85.2548352 80 72 Z"/></g><g transform="translate(-22,-30) scale(1,1)"><path fill="none" stroke="#000000" d="M 80 72 C 80 58.7451648 92.5360256 48 108 48 C 123.4639744 48 136 58.7451648 136 72 C 136 85.2548352 123.4639744 96 108 96 C 92.5360256 96 80 85.2548352 80 72 Z" stroke-miterlimit="10"/></g><g transform="translate(-22,-30) scale(1,1)"><g><path fill="none" stroke="none"/><text fill="#000000" stroke="none" font-family="Arial" font-size="13px" font-style="normal" font-weight="normal" text-decoration="none" x="98.24365234375" y="72">Bắt</text><text fill="#000000" stroke="none" font-family="Arial" font-size="13px" font-style="normal" font-weight="normal" text-decoration="none" x="97.155029296875" y="85">đầu</text></g></g><g transform="translate(-22,-30) scale(1,1)"><path fill="#d8f2ff" stroke="none" d="M 58 136 L 163.2216796875 136 Q 173.2216796875 136 173.2216796875 146 L 173.2216796875 171 Q 173.2216796875 181 163.2216796875 181 L 58 181 Q 48 181 48 171 L 48 146 Q 48 136 58 136 Z"/></g><g transform="translate(-22,-30) scale(1,1)"><path fill="none" stroke="#000000" d="M 58 136 L 163.2216796875 136 Q 173.2216796875 136 173.2216796875 146 L 173.2216796875 171 Q 173.2216796875 181 163.2216796875 181 L 58 181 Q 48 181 48 171 L 48 146 Q 48 136 58 136 Z" stroke-miterlimit="10"/></g><g transform="translate(-22,-30) scale(1,1)"><g><path fill="none" stroke="none"/><text fill="#000000" stroke="none" font-family="Arial" font-size="13px" font-style="normal" font-weight="normal" text-decoration="none" x="68.687744140625" y="158.5">Sắp xếp thanh</text><text fill="#000000" stroke="none" font-family="Arial" font-size="13px" font-style="normal" font-weight="normal" text-decoration="none" x="77.36181640625" y="171.5">nguyên liệu</text></g></g><g transform="translate(-22,-30) scale(1,1)"><path fill="#d8f2ff" stroke="none" d="M 58 216 L 163.2216796875 216 Q 173.2216796875 216 173.2216796875 226 L 173.2216796875 251 Q 173.2216796875 261 163.2216796875 261 L 58 261 Q 48 261 48 251 L 48 226 Q 48 216 58 216 Z"/></g><g transform="translate(-22,-30) scale(1,1)"><path fill="none" stroke="#000000" d="M 58 216 L 163.2216796875 216 Q 173.2216796875 216 173.2216796875 226 L 173.2216796875 251 Q 173.2216796875 261 163.2216796875 261 L 58 261 Q 48 261 48 251 L 48 226 Q 48 216 58 216 Z" stroke-miterlimit="10"/></g><g transform="translate(-22,-30) scale(1,1)"><g><path fill="none" stroke="none"/><text fill="#000000" stroke="none" font-family="Arial" font-size="13px" font-style="normal" font-weight="normal" text-decoration="none" x="68.687744140625" y="238.5">Sắp xếp thanh</text><text fill="#000000" stroke="none" font-family="Arial" font-size="13px" font-style="normal" font-weight="normal" text-decoration="none" x="82.8525390625" y="251.5">đơn hàng</text></g></g><g transform="translate(-22,-30) scale(1,1)"><path fill="#d8f2ff" stroke="none" d="M 32 402.5 L 112 312 L 192 402.5 L 112 493 L 32 402.5"/></g><g transform="translate(-22,-30) scale(1,1)"><path fill="none" stroke="#000000" d="M 32 402.5 L 112 312 L 192 402.5 L 112 493 L 32 402.5 L 32 402.5" stroke-miterlimit="10"/></g><g transform="translate(-22,-30) scale(1,1)"><g><path fill="none" stroke="none"/><text fill="#000000" stroke="none" font-family="Arial" font-size="13px" font-style="normal" font-weight="normal" text-decoration="none" x="85.619140625" y="383">Có thanh</text><text fill="#000000" stroke="none" font-family="Arial" font-size="13px" font-style="normal" font-weight="normal" text-decoration="none" x="78.7509765625" y="396">nguyên liệu</text><text fill="#000000" stroke="none" font-family="Arial" font-size="13px" font-style="normal" font-weight="normal" text-decoration="none" x="90.027587890625" y="409">dài hơn</text><text fill="#000000" stroke="none" font-family="Arial" font-size="13px" font-style="normal" font-weight="normal" text-decoration="none" x="82.435791015625" y="422">thanh đơn</text><text fill="#000000" stroke="none" font-family="Arial" font-size="13px" font-style="normal" font-weight="normal" text-decoration="none" x="97.5400390625" y="435">hàng</text></g></g><g transform="translate(-22,-30) scale(1,1)"><path fill="#d8f2ff" stroke="none" d="M 442 136 L 547.2216796875 136 Q 557.2216796875 136 557.2216796875 146 L 557.2216796875 171 Q 557.2216796875 181 547.2216796875 181 L 442 181 Q 432 181 432 171 L 432 146 Q 432 136 442 136 Z"/></g><g transform="translate(-22,-30) scale(1,1)"><path fill="none" stroke="#000000" d="M 442 136 L 547.2216796875 136 Q 557.2216796875 136 557.2216796875 146 L 557.2216796875 171 Q 557.2216796875 181 547.2216796875 181 L 442 181 Q 432 181 432 171 L 432 146 Q 432 136 442 136 Z" stroke-miterlimit="10"/></g><g transform="translate(-22,-30) scale(1,1)"><g><path fill="none" stroke="none"/><text fill="#000000" stroke="none" font-family="Arial" font-size="13px" font-style="normal" font-weight="normal" text-decoration="none" x="445.15625" y="158.5">Chọn phương án</text><text fill="#000000" stroke="none" font-family="Arial" font-size="13px" font-style="normal" font-weight="normal" text-decoration="none" x="472.92724609375" y="171.5">tốt nhất</text></g></g><g transform="translate(-22,-30) scale(1,1)"><path fill="none" stroke="#000000" d="M 112 96 L 112 136" stroke-miterlimit="10"/></g><g transform="translate(-22,-30) scale(1,1)"><path fill="#000000" stroke="none" d="M 107.79048224398402 125.83732514237585 L 112 136 L 116.20951775601598 125.83732514237585"/></g><g transform="translate(-22,-30) scale(1,1)"><path fill="none" stroke="#000000" d="M 107.79048224398402 125.83732514237585 L 112 136 L 116.20951775601598 125.83732514237585 L 107.79048224398402 125.83732514237585" stroke-miterlimit="10"/></g><g transform="translate(-22,-30) scale(1,1)"><path fill="none" stroke="#000000" d="M 112 181 L 112 216" stroke-miterlimit="10"/></g><g transform="translate(-22,-30) scale(1,1)"><path fill="#000000" stroke="none" d="M 107.79048224398402 205.83732514237585 L 112 216 L 116.20951775601598 205.83732514237585"/></g><g transform="translate(-22,-30) scale(1,1)"><path fill="none" stroke="#000000" d="M 107.79048224398402 205.83732514237585 L 112 216 L 116.20951775601598 205.83732514237585 L 107.79048224398402 205.83732514237585" stroke-miterlimit="10"/></g><g transform="translate(-22,-30) scale(1,1)"><path fill="none" stroke="#000000" d="M 112 261 L 112 312" stroke-miterlimit="10"/></g><g transform="translate(-22,-30) scale(1,1)"><path fill="#000000" stroke="none" d="M 107.79048224398402 301.83732514237585 L 112 312 L 116.20951775601598 301.83732514237585"/></g><g transform="translate(-22,-30) scale(1,1)"><path fill="none" stroke="#000000" d="M 107.79048224398402 301.83732514237585 L 112 312 L 116.20951775601598 301.83732514237585 L 107.79048224398402 301.83732514237585" stroke-miterlimit="10"/></g><g transform="translate(-22,-30) scale(1,1)"><path fill="none" stroke="#000000" d="M 192 376 L 488 376 M 488 376 A 8 8 0 0 0 496 368 L 496 181" stroke-miterlimit="10"/></g><g transform="translate(-22,-30) scale(1,1)"><path fill="#000000" stroke="none" d="M 500.209517756016 191.16267485762415 L 496 181 L 491.790482243984 191.16267485762415"/></g><g transform="translate(-22,-30) scale(1,1)"><path fill="none" stroke="#000000" d="M 500.209517756016 191.16267485762415 L 496 181 L 491.790482243984 191.16267485762415 L 500.209517756016 191.16267485762415" stroke-miterlimit="10"/></g><g transform="translate(-22,-30) scale(1,1)"><g><path fill="none" stroke="none"/><text fill="#000000" stroke="none" font-family="Arial" font-size="13px" font-style="normal" font-weight="normal" text-decoration="none" x="302.5" y="363.5">F</text></g></g><g transform="translate(-22,-30) scale(1,1)"><rect fill="#d8f2ff" stroke="none" x="424" y="520" width="136.06982421875" height="45"/></g><g transform="translate(-22,-30) scale(1,1)"><path fill="none" stroke="#000000" d="M 424 520 L 560.06982421875 520 L 560.06982421875 565 L 424 565 L 424 520 Z Z" stroke-miterlimit="10"/></g><g transform="translate(-22,-30) scale(1,1)"><path fill="none" stroke="#000000" d="M 429 520 L 429 565" stroke-miterlimit="10"/></g><g transform="translate(-22,-30) scale(1,1)"><path fill="none" stroke="#000000" d="M 555.06982421875 520 L 555.06982421875 565" stroke-miterlimit="10"/></g><g transform="translate(-22,-30) scale(1,1)"><g><path fill="none" stroke="none"/><text fill="#000000" stroke="none" font-family="Arial" font-size="13px" font-style="normal" font-weight="normal" text-decoration="none" x="449.428466796875" y="542.5">Tìm phương án</text><text fill="#000000" stroke="none" font-family="Arial" font-size="13px" font-style="normal" font-weight="normal" text-decoration="none" x="485.864013671875" y="555.5">cắt</text></g></g><g transform="translate(-22,-30) scale(1,1)"><path fill="none" stroke="#000000" d="M 496 520 L 496 429" stroke-miterlimit="10"/></g><g transform="translate(-22,-30) scale(1,1)"><path fill="#000000" stroke="none" d="M 500.209517756016 439.16267485762415 L 496 429 L 491.790482243984 439.16267485762415"/></g><g transform="translate(-22,-30) scale(1,1)"><path fill="none" stroke="#000000" d="M 500.209517756016 439.16267485762415 L 496 429 L 491.790482243984 439.16267485762415 L 500.209517756016 439.16267485762415" stroke-miterlimit="10"/></g><g transform="translate(-22,-30) scale(1,1)"><path fill="#d8f2ff" stroke="none" d="M 450 384 L 555.2216796875 384 Q 565.2216796875 384 565.2216796875 394 L 565.2216796875 419 Q 565.2216796875 429 555.2216796875 429 L 450 429 Q 440 429 440 419 L 440 394 Q 440 384 450 384 Z"/></g><g transform="translate(-22,-30) scale(1,1)"><path fill="none" stroke="#000000" d="M 450 384 L 555.2216796875 384 Q 565.2216796875 384 565.2216796875 394 L 565.2216796875 419 Q 565.2216796875 429 555.2216796875 429 L 450 429 Q 440 429 440 419 L 440 394 Q 440 384 450 384 Z" stroke-miterlimit="10"/></g><g transform="translate(-22,-30) scale(1,1)"><g><path fill="none" stroke="none"/><text fill="#000000" stroke="none" font-family="Arial" font-size="13px" font-style="normal" font-weight="normal" text-decoration="none" x="453.457763671875" y="406.5">Bỏ thanh nguyên</text><text fill="#000000" stroke="none" font-family="Arial" font-size="13px" font-style="normal" font-weight="normal" text-decoration="none" x="467.555908203125" y="419.5">liệu dài nhất</text></g></g><g transform="translate(-22,-30) scale(1,1)"><path fill="none" stroke="#000000" d="M 440 400 L 192 400" stroke-miterlimit="10"/></g><g transform="translate(-22,-30) scale(1,1)"><path fill="#000000" stroke="none" d="M 202.16267485762415 395.790482243984 L 192 400 L 202.16267485762415 404.209517756016"/></g><g transform="translate(-22,-30) scale(1,1)"><path fill="none" stroke="#000000" d="M 202.16267485762415 395.790482243984 L 192 400 L 202.16267485762415 404.209517756016 L 202.16267485762415 395.790482243984" stroke-miterlimit="10"/></g><g transform="translate(-22,-30) scale(1,1)"><path fill="none" stroke="#000000" d="M 112 493 L 112 536 M 112 536 A 8 8 0 0 0 120 544 L 424 544" stroke-miterlimit="10"/></g><g transform="translate(-22,-30) scale(1,1)"><path fill="#000000" stroke="none" d="M 413.83732514237585 548.209517756016 L 424 544 L 413.83732514237585 539.790482243984"/></g><g transform="translate(-22,-30) scale(1,1)"><path fill="none" stroke="#000000" d="M 413.83732514237585 548.209517756016 L 424 544 L 413.83732514237585 539.790482243984 L 413.83732514237585 548.209517756016" stroke-miterlimit="10"/></g><g transform="translate(-22,-30) scale(1,1)"><g><path fill="none" stroke="none"/><text fill="#000000" stroke="none" font-family="Arial" font-size="13px" font-style="normal" font-weight="normal" text-decoration="none" x="100.5" y="535.5">    T</text></g></g><g transform="translate(-22,-30) scale(1,1)"><path fill="#d8f2ff" stroke="none" d="M 464 72 C 464 54.3268864 478.3268864 40 496 40 C 513.6731136 40 528 54.3268864 528 72 C 528 89.6731136 513.6731136 104 496 104 C 478.3268864 104 464 89.6731136 464 72 Z"/></g><g transform="translate(-22,-30) scale(1,1)"><path fill="none" stroke="#000000" d="M 464 72 C 464 54.3268864 478.3268864 40 496 40 C 513.6731136 40 528 54.3268864 528 72 C 528 89.6731136 513.6731136 104 496 104 C 478.3268864 104 464 89.6731136 464 72 Z" stroke-miterlimit="10"/></g><g transform="translate(-22,-30) scale(1,1)"><g><path fill="none" stroke="none"/></g></g><g transform="translate(-22,-30) scale(1,1)"><path fill="#d8f2ff" stroke="none" d="M 472 72 C 472 58.7451648 482.7451648 48 496 48 C 509.2548352 48 520 58.7451648 520 72 C 520 85.2548352 509.2548352 96 496 96 C 482.7451648 96 472 85.2548352 472 72 Z"/></g><g transform="translate(-22,-30) scale(1,1)"><path fill="none" stroke="#000000" d="M 472 72 C 472 58.7451648 482.7451648 48 496 48 C 509.2548352 48 520 58.7451648 520 72 C 520 85.2548352 509.2548352 96 496 96 C 482.7451648 96 472 85.2548352 472 72 Z" stroke-miterlimit="10"/></g><g transform="translate(-22,-30) scale(1,1)"><g><path fill="none" stroke="none"/><text fill="#000000" stroke="none" font-family="Arial" font-size="13px" font-style="normal" font-weight="normal" text-decoration="none" x="486.24365234375" y="72">Kết</text><text fill="#000000" stroke="none" font-family="Arial" font-size="13px" font-style="normal" font-weight="normal" text-decoration="none" x="483.714111328125" y="85">thúc</text></g></g><g transform="translate(-22,-30) scale(1,1)"><path fill="none" stroke="#000000" d="M 495 136 L 495 104" stroke-miterlimit="10"/></g><g transform="translate(-22,-30) scale(1,1)"><path fill="#000000" stroke="none" d="M 499.209517756016 114.16267485762415 L 495 104 L 490.790482243984 114.16267485762415"/></g><g transform="translate(-22,-30) scale(1,1)"><path fill="none" stroke="#000000" d="M 499.209517756016 114.16267485762415 L 495 104 L 490.790482243984 114.16267485762415 L 499.209517756016 114.16267485762415" stroke-miterlimit="10"/></g></g></svg>