<svg version="1.1" xmlns="http://www.w3.org/2000/svg" xmlns:xlink="http://www.w3.org/1999/xlink" width="845" height="887"><defs/><g><g transform="translate(-30,-126) scale(1,1)"><path fill="#d8f2ff" stroke="none" d="M 256 164 C 256 148.5360256 268.5360256 136 284 136 C 299.4639744 136 312 148.5360256 312 164 C 312 179.4639744 299.4639744 192 284 192 C 268.5360256 192 256 179.4639744 256 164 Z"/></g><g transform="translate(-30,-126) scale(1,1)"><path fill="none" stroke="#000000" d="M 256 164 C 256 148.5360256 268.5360256 136 284 136 C 299.4639744 136 312 148.5360256 312 164 C 312 179.4639744 299.4639744 192 284 192 C 268.5360256 192 256 179.4639744 256 164 Z" stroke-miterlimit="10"/></g><g transform="translate(-30,-126) scale(1,1)"><g><path fill="none" stroke="none"/><text fill="#000000" stroke="none" font-family="Arial" font-size="13px" font-style="normal" font-weight="normal" text-decoration="none" x="274.24365234375" y="164">Bắt</text><text fill="#000000" stroke="none" font-family="Arial" font-size="13px" font-style="normal" font-weight="normal" text-decoration="none" x="273.155029296875" y="177">đầu</text></g></g><g transform="translate(-30,-126) scale(1,1)"><path fill="#d8f2ff" stroke="none" d="M 40 452 C 40 436.5360256 52.5360256 424 68 424 C 83.4639744 424 96 436.5360256 96 452 C 96 467.4639744 83.4639744 480 68 480 C 52.5360256 480 40 467.4639744 40 452 Z"/></g><g transform="translate(-30,-126) scale(1,1)"><path fill="none" stroke="#000000" d="M 40 452 C 40 436.5360256 52.5360256 424 68 424 C 83.4639744 424 96 436.5360256 96 452 C 96 467.4639744 83.4639744 480 68 480 C 52.5360256 480 40 467.4639744 40 452 Z" stroke-miterlimit="10"/></g><g transform="translate(-30,-126) scale(1,1)"><g><path fill="none" stroke="none"/><text fill="#000000" stroke="none" font-family="Arial" font-size="13px" font-style="normal" font-weight="normal" text-decoration="none" x="58.24365234375" y="452">Kết</text><text fill="#000000" stroke="none" font-family="Arial" font-size="13px" font-style="normal" font-weight="normal" text-decoration="none" x="55.714111328125" y="465">thúc</text></g></g><g transform="translate(-30,-126) scale(1,1)"><path fill="#d8f2ff" stroke="none" d="M 234 256 L 342 256 Q 352 256 352 266 L 352 291 Q 352 301 342 301 L 234 301 Q 224 301 224 291 L 224 266 Q 224 256 234 256 Z"/></g><g transform="translate(-30,-126) scale(1,1)"><path fill="none" stroke="#000000" d="M 234 256 L 342 256 Q 352 256 352 266 L 352 291 Q 352 301 342 301 L 234 301 Q 224 301 224 291 L 224 266 Q 224 256 234 256 Z" stroke-miterlimit="10"/></g><g transform="translate(-30,-126) scale(1,1)"><g><path fill="none" stroke="none"/><text fill="#000000" stroke="none" font-family="Arial" font-size="13px" font-style="normal" font-weight="normal" text-decoration="none" x="248.2509765625" y="278.5">Tạo Quần thể</text></g></g><g transform="translate(-30,-126) scale(1,1)"><path fill="#d8f2ff" stroke="none" d="M 234 808 L 339.2216796875 808 Q 349.2216796875 808 349.2216796875 818 L 349.2216796875 830 Q 349.2216796875 840 339.2216796875 840 L 234 840 Q 224 840 224 830 L 224 818 Q 224 808 234 808 Z"/></g><g transform="translate(-30,-126) scale(1,1)"><path fill="none" stroke="#000000" d="M 234 808 L 339.2216796875 808 Q 349.2216796875 808 349.2216796875 818 L 349.2216796875 830 Q 349.2216796875 840 339.2216796875 840 L 234 840 Q 224 840 224 830 L 224 818 Q 224 808 234 808 Z" stroke-miterlimit="10"/></g><g transform="translate(-30,-126) scale(1,1)"><g><path fill="none" stroke="none"/><text fill="#000000" stroke="none" font-family="Arial" font-size="13px" font-style="normal" font-weight="normal" text-decoration="none" x="236.016845703125" y="830.5">Chọn nguyên liệu</text></g></g><g transform="translate(-30,-126) scale(1,1)"><path fill="#d8f2ff" stroke="none" d="M 224 977.5 L 280.58447265625 952 L 337.1689453125 977.5 L 280.58447265625 1003 L 224 977.5"/></g><g transform="translate(-30,-126) scale(1,1)"><path fill="none" stroke="#000000" d="M 224 977.5 L 280.58447265625 952 L 337.1689453125 977.5 L 280.58447265625 1003 L 224 977.5 L 224 977.5" stroke-miterlimit="10"/></g><g transform="translate(-30,-126) scale(1,1)"><g><path fill="none" stroke="none"/><text fill="#000000" stroke="none" font-family="Arial" font-size="13px" font-style="normal" font-weight="normal" text-decoration="none" x="253.486328125" y="977.5">Điều kiện</text><text fill="#000000" stroke="none" font-family="Arial" font-size="13px" font-style="normal" font-weight="normal" text-decoration="none" x="271.91357421875" y="990.5">cắt</text></g></g><g transform="translate(-30,-126) scale(1,1)"><path fill="none" stroke="#000000" d="M 288 192 L 288 256" stroke-miterlimit="10"/></g><g transform="translate(-30,-126) scale(1,1)"><path fill="#000000" stroke="none" d="M 283.790482243984 245.83732514237585 L 288 256 L 292.209517756016 245.83732514237585"/></g><g transform="translate(-30,-126) scale(1,1)"><path fill="none" stroke="#000000" d="M 283.790482243984 245.83732514237585 L 288 256 L 292.209517756016 245.83732514237585 L 283.790482243984 245.83732514237585" stroke-miterlimit="10"/></g><g transform="translate(-30,-126) scale(1,1)"><path fill="#d8f2ff" stroke="none" d="M 224 457.5 L 288 432 L 352 457.5 L 288 483 L 224 457.5"/></g><g transform="translate(-30,-126) scale(1,1)"><path fill="none" stroke="#000000" d="M 224 457.5 L 288 432 L 352 457.5 L 288 483 L 224 457.5 L 224 457.5" stroke-miterlimit="10"/></g><g transform="translate(-30,-126) scale(1,1)"><g><path fill="none" stroke="none"/><text fill="#000000" stroke="none" font-family="Arial" font-size="13px" font-style="normal" font-weight="normal" text-decoration="none" x="259.81640625" y="457.5">Điều Kiện</text><text fill="#000000" stroke="none" font-family="Arial" font-size="13px" font-style="normal" font-weight="normal" text-decoration="none" x="272.8037109375" y="470.5">dừng</text></g></g><g transform="translate(-30,-126) scale(1,1)"><path fill="#d8f2ff" stroke="none" d="M 224 558.5 L 288 520 L 352 558.5 L 288 597 L 224 558.5"/></g><g transform="translate(-30,-126) scale(1,1)"><path fill="none" stroke="#000000" d="M 224 558.5 L 288 520 L 352 558.5 L 288 597 L 224 558.5 L 224 558.5" stroke-miterlimit="10"/></g><g transform="translate(-30,-126) scale(1,1)"><g><path fill="none" stroke="none"/><text fill="#000000" stroke="none" font-family="Arial" font-size="13px" font-style="normal" font-weight="normal" text-decoration="none" x="260.90185546875" y="552">Điều kiện</text><text fill="#000000" stroke="none" font-family="Arial" font-size="13px" font-style="normal" font-weight="normal" text-decoration="none" x="261.263671875" y="565">thêm vào</text><text fill="#000000" stroke="none" font-family="Arial" font-size="13px" font-style="normal" font-weight="normal" text-decoration="none" x="262.6982421875" y="578">quần thể</text></g></g><g transform="translate(-30,-126) scale(1,1)"><path fill="none" stroke="#000000" d="M 288 597 L 288 656" stroke-miterlimit="10"/></g><g transform="translate(-30,-126) scale(1,1)"><path fill="#000000" stroke="none" d="M 283.790482243984 645.8373251423759 L 288 656 L 292.209517756016 645.8373251423759"/></g><g transform="translate(-30,-126) scale(1,1)"><path fill="none" stroke="#000000" d="M 283.790482243984 645.8373251423759 L 288 656 L 292.209517756016 645.8373251423759 L 283.790482243984 645.8373251423759" stroke-miterlimit="10"/></g><g transform="translate(-30,-126) scale(1,1)"><g><path fill="none" stroke="none"/><text fill="#000000" stroke="none" font-family="Arial" font-size="13px" font-style="normal" font-weight="normal" text-decoration="none" x="298.5" y="631.5">F</text></g></g><g transform="translate(-30,-126) scale(1,1)"><path fill="#d8f2ff" stroke="none" d="M 234 344 L 342 344 Q 352 344 352 354 L 352 379 Q 352 389 342 389 L 234 389 Q 224 389 224 379 L 224 354 Q 224 344 234 344 Z"/></g><g transform="translate(-30,-126) scale(1,1)"><path fill="none" stroke="#000000" d="M 234 344 L 342 344 Q 352 344 352 354 L 352 379 Q 352 389 342 389 L 234 389 Q 224 389 224 379 L 224 354 Q 224 344 234 344 Z" stroke-miterlimit="10"/></g><g transform="translate(-30,-126) scale(1,1)"><g><path fill="none" stroke="none"/><text fill="#000000" stroke="none" font-family="Arial" font-size="13px" font-style="normal" font-weight="normal" text-decoration="none" x="241.074951171875" y="366.5">Phương án hiện</text><text fill="#000000" stroke="none" font-family="Arial" font-size="13px" font-style="normal" font-weight="normal" text-decoration="none" x="281.135009765625" y="379.5">tại</text></g></g><g transform="translate(-30,-126) scale(1,1)"><path fill="none" stroke="#000000" d="M 288 840 L 288 952" stroke-miterlimit="10"/></g><g transform="translate(-30,-126) scale(1,1)"><path fill="#000000" stroke="none" d="M 283.790482243984 941.8373251423759 L 288 952 L 292.209517756016 941.8373251423759"/></g><g transform="translate(-30,-126) scale(1,1)"><path fill="none" stroke="#000000" d="M 283.790482243984 941.8373251423759 L 288 952 L 292.209517756016 941.8373251423759 L 283.790482243984 941.8373251423759" stroke-miterlimit="10"/></g><g transform="translate(-30,-126) scale(1,1)"><path fill="#d8f2ff" stroke="none" d="M 466 960 L 571.2216796875 960 Q 581.2216796875 960 581.2216796875 970 L 581.2216796875 982 Q 581.2216796875 992 571.2216796875 992 L 466 992 Q 456 992 456 982 L 456 970 Q 456 960 466 960 Z"/></g><g transform="translate(-30,-126) scale(1,1)"><path fill="none" stroke="#000000" d="M 466 960 L 571.2216796875 960 Q 581.2216796875 960 581.2216796875 970 L 581.2216796875 982 Q 581.2216796875 992 571.2216796875 992 L 466 992 Q 456 992 456 982 L 456 970 Q 456 960 466 960 Z" stroke-miterlimit="10"/></g><g transform="translate(-30,-126) scale(1,1)"><g><path fill="none" stroke="none"/><text fill="#000000" stroke="none" font-family="Arial" font-size="13px" font-style="normal" font-weight="normal" text-decoration="none" x="508.495849609375" y="982.5">Cắt</text></g></g><g transform="translate(-30,-126) scale(1,1)"><path fill="none" stroke="#000000" d="M 337 976 L 456 976" stroke-miterlimit="10"/></g><g transform="translate(-30,-126) scale(1,1)"><path fill="#000000" stroke="none" d="M 445.83732514237585 980.209517756016 L 456 976 L 445.83732514237585 971.790482243984"/></g><g transform="translate(-30,-126) scale(1,1)"><path fill="none" stroke="#000000" d="M 445.83732514237585 980.209517756016 L 456 976 L 445.83732514237585 971.790482243984 L 445.83732514237585 980.209517756016" stroke-miterlimit="10"/></g><g transform="translate(-30,-126) scale(1,1)"><g><path fill="none" stroke="none"/><text fill="#000000" stroke="none" font-family="Arial" font-size="13px" font-style="normal" font-weight="normal" text-decoration="none" x="392.5" y="967.5">T</text></g></g><g transform="translate(-30,-126) scale(1,1)"><path fill="#d8f2ff" stroke="none" d="M 658 952 L 763.2216796875 952 Q 773.2216796875 952 773.2216796875 962 L 773.2216796875 987 Q 773.2216796875 997 763.2216796875 997 L 658 997 Q 648 997 648 987 L 648 962 Q 648 952 658 952 Z"/></g><g transform="translate(-30,-126) scale(1,1)"><path fill="none" stroke="#000000" d="M 658 952 L 763.2216796875 952 Q 773.2216796875 952 773.2216796875 962 L 773.2216796875 987 Q 773.2216796875 997 763.2216796875 997 L 658 997 Q 648 997 648 987 L 648 962 Q 648 952 658 952 Z" stroke-miterlimit="10"/></g><g transform="translate(-30,-126) scale(1,1)"><g><path fill="none" stroke="none"/><text fill="#000000" stroke="none" font-family="Arial" font-size="13px" font-style="normal" font-weight="normal" text-decoration="none" x="659.350341796875" y="974.5">Cập nhật phương</text><text fill="#000000" stroke="none" font-family="Arial" font-size="13px" font-style="normal" font-weight="normal" text-decoration="none" x="680.614990234375" y="987.5">án hiện tại</text></g></g><g transform="translate(-30,-126) scale(1,1)"><path fill="none" stroke="#000000" d="M 581 974 L 648 974" stroke-miterlimit="10"/></g><g transform="translate(-30,-126) scale(1,1)"><path fill="#000000" stroke="none" d="M 637.8373251423759 978.209517756016 L 648 974 L 637.8373251423758 969.790482243984"/></g><g transform="translate(-30,-126) scale(1,1)"><path fill="none" stroke="#000000" d="M 637.8373251423759 978.209517756016 L 648 974 L 637.8373251423758 969.790482243984 L 637.8373251423759 978.209517756016" stroke-miterlimit="10"/></g><g transform="translate(-30,-126) scale(1,1)"><path fill="none" stroke="#000000" d="M 288 301 L 288 344" stroke-miterlimit="10"/></g><g transform="translate(-30,-126) scale(1,1)"><path fill="#000000" stroke="none" d="M 283.790482243984 333.83732514237585 L 288 344 L 292.209517756016 333.83732514237585"/></g><g transform="translate(-30,-126) scale(1,1)"><path fill="none" stroke="#000000" d="M 283.790482243984 333.83732514237585 L 288 344 L 292.209517756016 333.83732514237585 L 283.790482243984 333.83732514237585" stroke-miterlimit="10"/></g><g transform="translate(-30,-126) scale(1,1)"><path fill="none" stroke="#000000" d="M 288 389 L 288 432" stroke-miterlimit="10"/></g><g transform="translate(-30,-126) scale(1,1)"><path fill="#000000" stroke="none" d="M 283.790482243984 421.83732514237585 L 288 432 L 292.209517756016 421.83732514237585"/></g><g transform="translate(-30,-126) scale(1,1)"><path fill="none" stroke="#000000" d="M 283.790482243984 421.83732514237585 L 288 432 L 292.209517756016 421.83732514237585 L 283.790482243984 421.83732514237585" stroke-miterlimit="10"/></g><g transform="translate(-30,-126) scale(1,1)"><path fill="none" stroke="#000000" d="M 224 456 L 96 456" stroke-miterlimit="10"/></g><g transform="translate(-30,-126) scale(1,1)"><path fill="#000000" stroke="none" d="M 106.16267485762415 451.790482243984 L 96 456 L 106.16267485762415 460.209517756016"/></g><g transform="translate(-30,-126) scale(1,1)"><path fill="none" stroke="#000000" d="M 106.16267485762415 451.790482243984 L 96 456 L 106.16267485762415 460.209517756016 L 106.16267485762415 451.790482243984" stroke-miterlimit="10"/></g><g transform="translate(-30,-126) scale(1,1)"><g><path fill="none" stroke="none"/><text fill="#000000" stroke="none" font-family="Arial" font-size="13px" font-style="normal" font-weight="normal" text-decoration="none" x="161.529541015625" y="475.5">T</text></g></g><g transform="translate(-30,-126) scale(1,1)"><path fill="none" stroke="#000000" d="M 290 483 L 290 520" stroke-miterlimit="10"/></g><g transform="translate(-30,-126) scale(1,1)"><path fill="#000000" stroke="none" d="M 285.790482243984 509.83732514237585 L 290 520 L 294.209517756016 509.83732514237585"/></g><g transform="translate(-30,-126) scale(1,1)"><path fill="none" stroke="#000000" d="M 285.790482243984 509.83732514237585 L 290 520 L 294.209517756016 509.83732514237585 L 285.790482243984 509.83732514237585" stroke-miterlimit="10"/></g><g transform="translate(-30,-126) scale(1,1)"><g><path fill="none" stroke="none"/><text fill="#000000" stroke="none" font-family="Arial" font-size="13px" font-style="normal" font-weight="normal" text-decoration="none" x="300.5" y="506.5">F</text></g></g><g transform="translate(-30,-126) scale(1,1)"><path fill="#d8f2ff" stroke="none" d="M 458 544 L 590 544 Q 600 544 600 554 L 600 566 Q 600 576 590 576 L 458 576 Q 448 576 448 566 L 448 554 Q 448 544 458 544 Z"/></g><g transform="translate(-30,-126) scale(1,1)"><path fill="none" stroke="#000000" d="M 458 544 L 590 544 Q 600 544 600 554 L 600 566 Q 600 576 590 576 L 458 576 Q 448 576 448 566 L 448 554 Q 448 544 458 544 Z" stroke-miterlimit="10"/></g><g transform="translate(-30,-126) scale(1,1)"><g><path fill="none" stroke="none"/><text fill="#000000" stroke="none" font-family="Arial" font-size="13px" font-style="normal" font-weight="normal" text-decoration="none" x="467.991455078125" y="566.5">Thêm vào quần thể</text></g></g><g transform="translate(-30,-126) scale(1,1)"><path fill="none" stroke="#000000" d="M 352 560 L 448 560" stroke-miterlimit="10"/></g><g transform="translate(-30,-126) scale(1,1)"><path fill="#000000" stroke="none" d="M 437.83732514237585 564.209517756016 L 448 560 L 437.83732514237585 555.790482243984"/></g><g transform="translate(-30,-126) scale(1,1)"><path fill="none" stroke="#000000" d="M 437.83732514237585 564.209517756016 L 448 560 L 437.83732514237585 555.790482243984 L 437.83732514237585 564.209517756016" stroke-miterlimit="10"/></g><g transform="translate(-30,-126) scale(1,1)"><g><path fill="none" stroke="none"/><text fill="#000000" stroke="none" font-family="Arial" font-size="13px" font-style="normal" font-weight="normal" text-decoration="none" x="396.5" y="551.5">T</text></g></g><g transform="translate(-30,-126) scale(1,1)"><path fill="#d8f2ff" stroke="none" d="M 666 528 L 771.2216796875 528 Q 781.2216796875 528 781.2216796875 538 L 781.2216796875 576 Q 781.2216796875 586 771.2216796875 586 L 666 586 Q 656 586 656 576 L 656 538 Q 656 528 666 528 Z"/></g><g transform="translate(-30,-126) scale(1,1)"><path fill="none" stroke="#000000" d="M 666 528 L 771.2216796875 528 Q 781.2216796875 528 781.2216796875 538 L 781.2216796875 576 Q 781.2216796875 586 771.2216796875 586 L 666 586 Q 656 586 656 576 L 656 538 Q 656 528 666 528 Z" stroke-miterlimit="10"/></g><g transform="translate(-30,-126) scale(1,1)"><g><path fill="none" stroke="none"/><text fill="#000000" stroke="none" font-family="Arial" font-size="13px" font-style="normal" font-weight="normal" text-decoration="none" x="669.08642578125" y="550.5">Xóa phần tử cuối</text><text fill="#000000" stroke="none" font-family="Arial" font-size="13px" font-style="normal" font-weight="normal" text-decoration="none" x="674.21533203125" y="563.5">của phương án</text><text fill="#000000" stroke="none" font-family="Arial" font-size="13px" font-style="normal" font-weight="normal" text-decoration="none" x="697.65087890625" y="576.5">hiện tại</text></g></g><g transform="translate(-30,-126) scale(1,1)"><path fill="none" stroke="#000000" d="M 600 560 L 656 560" stroke-miterlimit="10"/></g><g transform="translate(-30,-126) scale(1,1)"><path fill="#000000" stroke="none" d="M 645.8373251423759 564.209517756016 L 656 560 L 645.8373251423758 555.790482243984"/></g><g transform="translate(-30,-126) scale(1,1)"><path fill="none" stroke="#000000" d="M 645.8373251423759 564.209517756016 L 656 560 L 645.8373251423758 555.790482243984 L 645.8373251423759 564.209517756016" stroke-miterlimit="10"/></g><g transform="translate(-30,-126) scale(1,1)"><path fill="none" stroke="#000000" d="M 773 974 L 856 974 M 856 974 A 8 8 0 0 0 864 966 L 864 376 M 864 376 A 8 8 0 0 0 856 368 L 352 368" stroke-miterlimit="10"/></g><g transform="translate(-30,-126) scale(1,1)"><path fill="#000000" stroke="none" d="M 362.16267485762415 363.790482243984 L 352 368 L 362.16267485762415 372.209517756016"/></g><g transform="translate(-30,-126) scale(1,1)"><path fill="none" stroke="#000000" d="M 362.16267485762415 363.790482243984 L 352 368 L 362.16267485762415 372.209517756016 L 362.16267485762415 363.790482243984" stroke-miterlimit="10"/></g><g transform="translate(-30,-126) scale(1,1)"><path fill="none" stroke="#000000" d="M 224 977 L 168 977 M 168 977 A 8 8 0 0 1 160 969 L 160 715 M 160 715 A 8 8 0 0 1 168 707 L 224 707" stroke-miterlimit="10"/></g><g transform="translate(-30,-126) scale(1,1)"><path fill="#000000" stroke="none" d="M 213.83732514237585 711.209517756016 L 224 707 L 213.83732514237585 702.790482243984"/></g><g transform="translate(-30,-126) scale(1,1)"><path fill="none" stroke="#000000" d="M 213.83732514237585 711.209517756016 L 224 707 L 213.83732514237585 702.790482243984 L 213.83732514237585 711.209517756016" stroke-miterlimit="10"/></g><g transform="translate(-30,-126) scale(1,1)"><g><path fill="none" stroke="none"/><text fill="#000000" stroke="none" font-family="Arial" font-size="13px" font-style="normal" font-weight="normal" text-decoration="none" x="141.5" y="847.5">F</text></g></g><g transform="translate(-30,-126) scale(1,1)"><path fill="none" stroke="#000000" d="M 728 586 L 728 712 M 728 712 A 8 8 0 0 1 720 720 L 352 720" stroke-miterlimit="10"/></g><g transform="translate(-30,-126) scale(1,1)"><path fill="#000000" stroke="none" d="M 362.16267485762415 715.790482243984 L 352 720 L 362.16267485762415 724.209517756016"/></g><g transform="translate(-30,-126) scale(1,1)"><path fill="none" stroke="#000000" d="M 362.16267485762415 715.790482243984 L 352 720 L 362.16267485762415 724.209517756016 L 362.16267485762415 715.790482243984" stroke-miterlimit="10"/></g><g transform="translate(-30,-126) scale(1,1)"><path fill="#d8f2ff" stroke="none" d="M 224 707.5 L 288 656 L 352 707.5 L 288 759 L 224 707.5"/></g><g transform="translate(-30,-126) scale(1,1)"><path fill="none" stroke="#000000" d="M 224 707.5 L 288 656 L 352 707.5 L 288 759 L 224 707.5 L 224 707.5" stroke-miterlimit="10"/></g><g transform="translate(-30,-126) scale(1,1)"><g><path fill="none" stroke="none"/><text fill="#000000" stroke="none" font-family="Arial" font-size="13px" font-style="normal" font-weight="normal" text-decoration="none" x="260.90185546875" y="694.5">Điều kiện</text><text fill="#000000" stroke="none" font-family="Arial" font-size="13px" font-style="normal" font-weight="normal" text-decoration="none" x="273.905029296875" y="707.5">chọn</text><text fill="#000000" stroke="none" font-family="Arial" font-size="13px" font-style="normal" font-weight="normal" text-decoration="none" x="266.675048828125" y="720.5">nguyên</text><text fill="#000000" stroke="none" font-family="Arial" font-size="13px" font-style="normal" font-weight="normal" text-decoration="none" x="277.8818359375" y="733.5">liệu</text></g></g><g transform="translate(-30,-126) scale(1,1)"><path fill="none" stroke="#000000" d="M 287 759 L 287 808" stroke-miterlimit="10"/></g><g transform="translate(-30,-126) scale(1,1)"><path fill="#000000" stroke="none" d="M 282.790482243984 797.8373251423759 L 287 808 L 291.209517756016 797.8373251423759"/></g><g transform="translate(-30,-126) scale(1,1)"><path fill="none" stroke="#000000" d="M 282.790482243984 797.8373251423759 L 287 808 L 291.209517756016 797.8373251423759 L 282.790482243984 797.8373251423759" stroke-miterlimit="10"/></g><g transform="translate(-30,-126) scale(1,1)"><g><path fill="none" stroke="none"/><text fill="#000000" stroke="none" font-family="Arial" font-size="13px" font-style="normal" font-weight="normal" text-decoration="none" x="297.5" y="788.5">T</text></g></g><g transform="translate(-30,-126) scale(1,1)"><path fill="none" stroke="#000000" d="M 352 704 L 680 704 M 680 704 A 8 8 0 0 0 688 696 L 688 586" stroke-miterlimit="10"/></g><g transform="translate(-30,-126) scale(1,1)"><path fill="#000000" stroke="none" d="M 692.209517756016 596.1626748576241 L 688 586 L 683.790482243984 596.1626748576241"/></g><g transform="translate(-30,-126) scale(1,1)"><path fill="none" stroke="#000000" d="M 692.209517756016 596.1626748576241 L 688 586 L 683.790482243984 596.1626748576241 L 692.209517756016 596.1626748576241" stroke-miterlimit="10"/></g><g transform="translate(-30,-126) scale(1,1)"><g><path fill="none" stroke="none"/><text fill="#000000" stroke="none" font-family="Arial" font-size="13px" font-style="normal" font-weight="normal" text-decoration="none" x="574.5" y="701.5">F</text></g></g></g></svg>