<svg version="1.1" xmlns="http://www.w3.org/2000/svg" xmlns:xlink="http://www.w3.org/1999/xlink" width="529.2216796875" height="657"><defs/><g><g transform="translate(-278,-22) scale(1,1)"><path fill="#d8f2ff" stroke="none" d="M 312 66.5 C 312 47.446174400000004 327.4461744 32 346.5 32 C 365.5538256 32 381 47.446174400000004 381 66.5 C 381 85.5538256 365.5538256 101 346.5 101 C 327.4461744 101 312 85.5538256 312 66.5 Z"/></g><g transform="translate(-278,-22) scale(1,1)"><path fill="none" stroke="#000000" d="M 312 66.5 C 312 47.446174400000004 327.4461744 32 346.5 32 C 365.5538256 32 381 47.446174400000004 381 66.5 C 381 85.5538256 365.5538256 101 346.5 101 C 327.4461744 101 312 85.5538256 312 66.5 Z" stroke-miterlimit="10"/></g><g transform="translate(-278,-22) scale(1,1)"><g><path fill="none" stroke="none"/><text fill="#000000" stroke="none" font-family="Arial" font-size="13px" font-style="normal" font-weight="normal" text-decoration="none" x="336.74365234375" y="66.5">Bắt</text><text fill="#000000" stroke="none" font-family="Arial" font-size="13px" font-style="normal" font-weight="normal" text-decoration="none" x="335.655029296875" y="79.5">đầu</text></g></g><g transform="translate(-278,-22) scale(1,1)"><path fill="#d8f2ff" stroke="none" d="M 298 144 L 403.2216796875 144 Q 413.2216796875 144 413.2216796875 154 L 413.2216796875 179 Q 413.2216796875 189 403.2216796875 189 L 298 189 Q 288 189 288 179 L 288 154 Q 288 144 298 144 Z"/></g><g transform="translate(-278,-22) scale(1,1)"><path fill="none" stroke="#000000" d="M 298 144 L 403.2216796875 144 Q 413.2216796875 144 413.2216796875 154 L 413.2216796875 179 Q 413.2216796875 189 403.2216796875 189 L 298 189 Q 288 189 288 179 L 288 154 Q 288 144 298 144 Z" stroke-miterlimit="10"/></g><g transform="translate(-278,-22) scale(1,1)"><g><path fill="none" stroke="none"/><text fill="#000000" stroke="none" font-family="Arial" font-size="13px" font-style="normal" font-weight="normal" text-decoration="none" x="303.273193359375" y="166.5">Chọn cá thể cần</text><text fill="#000000" stroke="none" font-family="Arial" font-size="13px" font-style="normal" font-weight="normal" text-decoration="none" x="327.47998046875" y="179.5">đột biến</text></g></g><g transform="translate(-278,-22) scale(1,1)"><path fill="#d8f2ff" stroke="none" d="M 298 224 L 403.2216796875 224 Q 413.2216796875 224 413.2216796875 234 L 413.2216796875 272 Q 413.2216796875 282 403.2216796875 282 L 298 282 Q 288 282 288 272 L 288 234 Q 288 224 298 224 Z"/></g><g transform="translate(-278,-22) scale(1,1)"><path fill="none" stroke="#000000" d="M 298 224 L 403.2216796875 224 Q 413.2216796875 224 413.2216796875 234 L 413.2216796875 272 Q 413.2216796875 282 403.2216796875 282 L 298 282 Q 288 282 288 272 L 288 234 Q 288 224 298 224 Z" stroke-miterlimit="10"/></g><g transform="translate(-278,-22) scale(1,1)"><g><path fill="none" stroke="none"/><text fill="#000000" stroke="none" font-family="Arial" font-size="13px" font-style="normal" font-weight="normal" text-decoration="none" x="318.5107421875" y="246.5">Tính lượng</text><text fill="#000000" stroke="none" font-family="Arial" font-size="13px" font-style="normal" font-weight="normal" text-decoration="none" x="305.075927734375" y="259.5">nguyên liệu còn</text><text fill="#000000" stroke="none" font-family="Arial" font-size="13px" font-style="normal" font-weight="normal" text-decoration="none" x="344.107666015625" y="272.5">lại</text></g></g><g transform="translate(-278,-22) scale(1,1)"><path fill="#d8f2ff" stroke="none" d="M 298 368 L 403.2216796875 368 Q 413.2216796875 368 413.2216796875 378 L 413.2216796875 403 Q 413.2216796875 413 403.2216796875 413 L 298 413 Q 288 413 288 403 L 288 378 Q 288 368 298 368 Z"/></g><g transform="translate(-278,-22) scale(1,1)"><path fill="none" stroke="#000000" d="M 298 368 L 403.2216796875 368 Q 413.2216796875 368 413.2216796875 378 L 413.2216796875 403 Q 413.2216796875 413 403.2216796875 413 L 298 413 Q 288 413 288 403 L 288 378 Q 288 368 298 368 Z" stroke-miterlimit="10"/></g><g transform="translate(-278,-22) scale(1,1)"><g><path fill="none" stroke="none"/><text fill="#000000" stroke="none" font-family="Arial" font-size="13px" font-style="normal" font-weight="normal" text-decoration="none" x="319.17724609375" y="390.5">Vị trí thanh</text><text fill="#000000" stroke="none" font-family="Arial" font-size="13px" font-style="normal" font-weight="normal" text-decoration="none" x="306.339111328125" y="403.5">nguyên liệu = 1</text></g></g><g transform="translate(-278,-22) scale(1,1)"><path fill="#d8f2ff" stroke="none" d="M 298 624 L 403.2216796875 624 Q 413.2216796875 624 413.2216796875 634 L 413.2216796875 659 Q 413.2216796875 669 403.2216796875 669 L 298 669 Q 288 669 288 659 L 288 634 Q 288 624 298 624 Z"/></g><g transform="translate(-278,-22) scale(1,1)"><path fill="none" stroke="#000000" d="M 298 624 L 403.2216796875 624 Q 413.2216796875 624 413.2216796875 634 L 413.2216796875 659 Q 413.2216796875 669 403.2216796875 669 L 298 669 Q 288 669 288 659 L 288 634 Q 288 624 298 624 Z" stroke-miterlimit="10"/></g><g transform="translate(-278,-22) scale(1,1)"><g><path fill="none" stroke="none"/><text fill="#000000" stroke="none" font-family="Arial" font-size="13px" font-style="normal" font-weight="normal" text-decoration="none" x="298.582275390625" y="646.5">Tăng vị trí nguyên</text><text fill="#000000" stroke="none" font-family="Arial" font-size="13px" font-style="normal" font-weight="normal" text-decoration="none" x="338.686767578125" y="659.5">liệu </text></g></g><g transform="translate(-278,-22) scale(1,1)"><path fill="#d8f2ff" stroke="none" d="M 298 488 L 403.2216796875 488 Q 413.2216796875 488 413.2216796875 498 L 413.2216796875 562 Q 413.2216796875 572 403.2216796875 572 L 298 572 Q 288 572 288 562 L 288 498 Q 288 488 298 488 Z"/></g><g transform="translate(-278,-22) scale(1,1)"><path fill="none" stroke="#000000" d="M 298 488 L 403.2216796875 488 Q 413.2216796875 488 413.2216796875 498 L 413.2216796875 562 Q 413.2216796875 572 403.2216796875 572 L 298 572 Q 288 572 288 562 L 288 498 Q 288 488 298 488 Z" stroke-miterlimit="10"/></g><g transform="translate(-278,-22) scale(1,1)"><g><path fill="none" stroke="none"/><text fill="#000000" stroke="none" font-family="Arial" font-size="13px" font-style="normal" font-weight="normal" text-decoration="none" x="305.494873046875" y="510.5">Tạo phương án</text><text fill="#000000" stroke="none" font-family="Arial" font-size="13px" font-style="normal" font-weight="normal" text-decoration="none" x="307.68798828125" y="523.5">mới bằng cách</text><text fill="#000000" stroke="none" font-family="Arial" font-size="13px" font-style="normal" font-weight="normal" text-decoration="none" x="309.411376953125" y="536.5">thay thế thanh</text><text fill="#000000" stroke="none" font-family="Arial" font-size="13px" font-style="normal" font-weight="normal" text-decoration="none" x="298.575927734375" y="549.5">nguyên liệu vào vị</text><text fill="#000000" stroke="none" font-family="Arial" font-size="13px" font-style="normal" font-weight="normal" text-decoration="none" x="305.802734375" y="562.5">trí gene hiện tại</text></g></g><g transform="translate(-278,-22) scale(1,1)"><path fill="#d8f2ff" stroke="none" d="M 298 312 L 403.2216796875 312 Q 413.2216796875 312 413.2216796875 322 L 413.2216796875 334 Q 413.2216796875 344 403.2216796875 344 L 298 344 Q 288 344 288 334 L 288 322 Q 288 312 298 312 Z"/></g><g transform="translate(-278,-22) scale(1,1)"><path fill="none" stroke="#000000" d="M 298 312 L 403.2216796875 312 Q 413.2216796875 312 413.2216796875 322 L 413.2216796875 334 Q 413.2216796875 344 403.2216796875 344 L 298 344 Q 288 344 288 334 L 288 322 Q 288 312 298 312 Z" stroke-miterlimit="10"/></g><g transform="translate(-278,-22) scale(1,1)"><g><path fill="none" stroke="none"/><text fill="#000000" stroke="none" font-family="Arial" font-size="13px" font-style="normal" font-weight="normal" text-decoration="none" x="309.96044921875" y="334.5">Vị trí gene = 1</text></g></g><g transform="translate(-278,-22) scale(1,1)"><path fill="#d8f2ff" stroke="none" d="M 490 376 L 595.2216796875 376 Q 605.2216796875 376 605.2216796875 386 L 605.2216796875 398 Q 605.2216796875 408 595.2216796875 408 L 490 408 Q 480 408 480 398 L 480 386 Q 480 376 490 376 Z"/></g><g transform="translate(-278,-22) scale(1,1)"><path fill="none" stroke="#000000" d="M 490 376 L 595.2216796875 376 Q 605.2216796875 376 605.2216796875 386 L 605.2216796875 398 Q 605.2216796875 408 595.2216796875 408 L 490 408 Q 480 408 480 398 L 480 386 Q 480 376 490 376 Z" stroke-miterlimit="10"/></g><g transform="translate(-278,-22) scale(1,1)"><g><path fill="none" stroke="none"/><text fill="#000000" stroke="none" font-family="Arial" font-size="13px" font-style="normal" font-weight="normal" text-decoration="none" x="497.447265625" y="398.5">Tăng vị trí gene</text></g></g><g transform="translate(-278,-22) scale(1,1)"><path fill="#d8f2ff" stroke="none" d="M 680 531.5 L 736.58447265625 480 L 793.1689453125 531.5 L 736.58447265625 583 L 680 531.5"/></g><g transform="translate(-278,-22) scale(1,1)"><path fill="none" stroke="#000000" d="M 680 531.5 L 736.58447265625 480 L 793.1689453125 531.5 L 736.58447265625 583 L 680 531.5 L 680 531.5" stroke-miterlimit="10"/></g><g transform="translate(-278,-22) scale(1,1)"><g><path fill="none" stroke="none"/><text fill="#000000" stroke="none" font-family="Arial" font-size="13px" font-style="normal" font-weight="normal" text-decoration="none" x="709.12451171875" y="518.5">Đã đến vị</text><text fill="#000000" stroke="none" font-family="Arial" font-size="13px" font-style="normal" font-weight="normal" text-decoration="none" x="712.736328125" y="531.5">trí thanh</text><text fill="#000000" stroke="none" font-family="Arial" font-size="13px" font-style="normal" font-weight="normal" text-decoration="none" x="715.259521484375" y="544.5">nguyên</text><text fill="#000000" stroke="none" font-family="Arial" font-size="13px" font-style="normal" font-weight="normal" text-decoration="none" x="712.736328125" y="557.5">liệu cuối</text></g></g><g transform="translate(-278,-22) scale(1,1)"><path fill="none" stroke="#000000" d="M 736 583 L 736 638 M 736 638 A 8 8 0 0 1 728 646 L 413 646" stroke-miterlimit="10"/></g><g transform="translate(-278,-22) scale(1,1)"><path fill="#000000" stroke="none" d="M 423.16267485762415 641.790482243984 L 413 646 L 423.16267485762415 650.209517756016"/></g><g transform="translate(-278,-22) scale(1,1)"><path fill="none" stroke="#000000" d="M 423.16267485762415 641.790482243984 L 413 646 L 423.16267485762415 650.209517756016 L 423.16267485762415 641.790482243984" stroke-miterlimit="10"/></g><g transform="translate(-278,-22) scale(1,1)"><g><path fill="none" stroke="none"/><text fill="#000000" stroke="none" font-family="Arial" font-size="13px" font-style="normal" font-weight="normal" text-decoration="none" x="731.5" y="667.5">F</text></g></g><g transform="translate(-278,-22) scale(1,1)"><path fill="none" stroke="#000000" d="M 358 624 L 358 572" stroke-miterlimit="10"/></g><g transform="translate(-278,-22) scale(1,1)"><path fill="#000000" stroke="none" d="M 362.209517756016 582.1626748576241 L 358 572 L 353.790482243984 582.1626748576241"/></g><g transform="translate(-278,-22) scale(1,1)"><path fill="none" stroke="#000000" d="M 362.209517756016 582.1626748576241 L 358 572 L 353.790482243984 582.1626748576241 L 362.209517756016 582.1626748576241" stroke-miterlimit="10"/></g><g transform="translate(-278,-22) scale(1,1)"><path fill="none" stroke="#000000" d="M 413 528 L 680 528" stroke-miterlimit="10"/></g><g transform="translate(-278,-22) scale(1,1)"><path fill="#000000" stroke="none" d="M 669.8373251423759 532.209517756016 L 680 528 L 669.8373251423758 523.790482243984"/></g><g transform="translate(-278,-22) scale(1,1)"><path fill="none" stroke="#000000" d="M 669.8373251423759 532.209517756016 L 680 528 L 669.8373251423758 523.790482243984 L 669.8373251423759 532.209517756016" stroke-miterlimit="10"/></g><g transform="translate(-278,-22) scale(1,1)"><path fill="#d8f2ff" stroke="none" d="M 680 390.5 L 736.58447265625 352 L 793.1689453125 390.5 L 736.58447265625 429 L 680 390.5"/></g><g transform="translate(-278,-22) scale(1,1)"><path fill="none" stroke="#000000" d="M 680 390.5 L 736.58447265625 352 L 793.1689453125 390.5 L 736.58447265625 429 L 680 390.5 L 680 390.5" stroke-miterlimit="10"/></g><g transform="translate(-278,-22) scale(1,1)"><g><path fill="none" stroke="none"/><text fill="#000000" stroke="none" font-family="Arial" font-size="13px" font-style="normal" font-weight="normal" text-decoration="none" x="709.12451171875" y="384">Đã đến vị</text><text fill="#000000" stroke="none" font-family="Arial" font-size="13px" font-style="normal" font-weight="normal" text-decoration="none" x="714.542236328125" y="397">trí gene</text><text fill="#000000" stroke="none" font-family="Arial" font-size="13px" font-style="normal" font-weight="normal" text-decoration="none" x="724.660400390625" y="410">cuối</text></g></g><g transform="translate(-278,-22) scale(1,1)"><path fill="none" stroke="#000000" d="M 736 480 L 736 429" stroke-miterlimit="10"/></g><g transform="translate(-278,-22) scale(1,1)"><path fill="#000000" stroke="none" d="M 740.209517756016 439.16267485762415 L 736 429 L 731.790482243984 439.16267485762415"/></g><g transform="translate(-278,-22) scale(1,1)"><path fill="none" stroke="#000000" d="M 740.209517756016 439.16267485762415 L 736 429 L 731.790482243984 439.16267485762415 L 740.209517756016 439.16267485762415" stroke-miterlimit="10"/></g><g transform="translate(-278,-22) scale(1,1)"><g><path fill="none" stroke="none"/><text fill="#000000" stroke="none" font-family="Arial" font-size="13px" font-style="normal" font-weight="normal" text-decoration="none" x="717.5" y="459.5">T</text></g></g><g transform="translate(-278,-22) scale(1,1)"><path fill="none" stroke="#000000" d="M 480 390 L 413 390" stroke-miterlimit="10"/></g><g transform="translate(-278,-22) scale(1,1)"><path fill="#000000" stroke="none" d="M 423.16267485762415 385.790482243984 L 413 390 L 423.16267485762415 394.209517756016"/></g><g transform="translate(-278,-22) scale(1,1)"><path fill="none" stroke="#000000" d="M 423.16267485762415 385.790482243984 L 413 390 L 423.16267485762415 394.209517756016 L 423.16267485762415 385.790482243984" stroke-miterlimit="10"/></g><g transform="translate(-278,-22) scale(1,1)"><path fill="none" stroke="#000000" d="M 348 101 L 348 144" stroke-miterlimit="10"/></g><g transform="translate(-278,-22) scale(1,1)"><path fill="#000000" stroke="none" d="M 343.790482243984 133.83732514237585 L 348 144 L 352.209517756016 133.83732514237585"/></g><g transform="translate(-278,-22) scale(1,1)"><path fill="none" stroke="#000000" d="M 343.790482243984 133.83732514237585 L 348 144 L 352.209517756016 133.83732514237585 L 343.790482243984 133.83732514237585" stroke-miterlimit="10"/></g><g transform="translate(-278,-22) scale(1,1)"><path fill="#d8f2ff" stroke="none" d="M 682 152 L 787.2216796875 152 Q 797.2216796875 152 797.2216796875 162 L 797.2216796875 187 Q 797.2216796875 197 787.2216796875 197 L 682 197 Q 672 197 672 187 L 672 162 Q 672 152 682 152 Z"/></g><g transform="translate(-278,-22) scale(1,1)"><path fill="none" stroke="#000000" d="M 682 152 L 787.2216796875 152 Q 797.2216796875 152 797.2216796875 162 L 797.2216796875 187 Q 797.2216796875 197 787.2216796875 197 L 682 197 Q 672 197 672 187 L 672 162 Q 672 152 682 152 Z" stroke-miterlimit="10"/></g><g transform="translate(-278,-22) scale(1,1)"><g><path fill="none" stroke="none"/><text fill="#000000" stroke="none" font-family="Arial" font-size="13px" font-style="normal" font-weight="normal" text-decoration="none" x="685.15625" y="174.5">Chọn phương án</text><text fill="#000000" stroke="none" font-family="Arial" font-size="13px" font-style="normal" font-weight="normal" text-decoration="none" x="687.99365234375" y="187.5">thay thế tốt nhất</text></g></g><g transform="translate(-278,-22) scale(1,1)"><path fill="none" stroke="#000000" d="M 736 352 L 736 197" stroke-miterlimit="10"/></g><g transform="translate(-278,-22) scale(1,1)"><path fill="#000000" stroke="none" d="M 740.209517756016 207.16267485762415 L 736 197 L 731.790482243984 207.16267485762415"/></g><g transform="translate(-278,-22) scale(1,1)"><path fill="none" stroke="#000000" d="M 740.209517756016 207.16267485762415 L 736 197 L 731.790482243984 207.16267485762415 L 740.209517756016 207.16267485762415" stroke-miterlimit="10"/></g><g transform="translate(-278,-22) scale(1,1)"><g><path fill="none" stroke="none"/><text fill="#000000" stroke="none" font-family="Arial" font-size="13px" font-style="normal" font-weight="normal" text-decoration="none" x="717.5" y="279.5">T</text></g></g><g transform="translate(-278,-22) scale(1,1)"><path fill="#d8f2ff" stroke="none" d="M 696 68 C 696 48.1177472 712.1177472 32 732 32 C 751.8822528 32 768 48.1177472 768 68 C 768 87.8822528 751.8822528 104 732 104 C 712.1177472 104 696 87.8822528 696 68 Z"/></g><g transform="translate(-278,-22) scale(1,1)"><path fill="none" stroke="#000000" d="M 696 68 C 696 48.1177472 712.1177472 32 732 32 C 751.8822528 32 768 48.1177472 768 68 C 768 87.8822528 751.8822528 104 732 104 C 712.1177472 104 696 87.8822528 696 68 Z" stroke-miterlimit="10"/></g><g transform="translate(-278,-22) scale(1,1)"><g><path fill="none" stroke="none"/></g></g><g transform="translate(-278,-22) scale(1,1)"><path fill="none" stroke="#000000" d="M 736 152 L 736 104" stroke-miterlimit="10"/></g><g transform="translate(-278,-22) scale(1,1)"><path fill="#000000" stroke="none" d="M 740.209517756016 114.16267485762415 L 736 104 L 731.790482243984 114.16267485762415"/></g><g transform="translate(-278,-22) scale(1,1)"><path fill="none" stroke="#000000" d="M 740.209517756016 114.16267485762415 L 736 104 L 731.790482243984 114.16267485762415 L 740.209517756016 114.16267485762415" stroke-miterlimit="10"/></g><g transform="translate(-278,-22) scale(1,1)"><path fill="none" stroke="#000000" d="M 352 189 L 352 224" stroke-miterlimit="10"/></g><g transform="translate(-278,-22) scale(1,1)"><path fill="#000000" stroke="none" d="M 347.790482243984 213.83732514237585 L 352 224 L 356.209517756016 213.83732514237585"/></g><g transform="translate(-278,-22) scale(1,1)"><path fill="none" stroke="#000000" d="M 347.790482243984 213.83732514237585 L 352 224 L 356.209517756016 213.83732514237585 L 347.790482243984 213.83732514237585" stroke-miterlimit="10"/></g><g transform="translate(-278,-22) scale(1,1)"><path fill="none" stroke="#000000" d="M 353 282 L 353 312" stroke-miterlimit="10"/></g><g transform="translate(-278,-22) scale(1,1)"><path fill="#000000" stroke="none" d="M 348.790482243984 301.83732514237585 L 353 312 L 357.209517756016 301.83732514237585"/></g><g transform="translate(-278,-22) scale(1,1)"><path fill="none" stroke="#000000" d="M 348.790482243984 301.83732514237585 L 353 312 L 357.209517756016 301.83732514237585 L 348.790482243984 301.83732514237585" stroke-miterlimit="10"/></g><g transform="translate(-278,-22) scale(1,1)"><path fill="none" stroke="#000000" d="M 358 344 L 358 368" stroke-miterlimit="10"/></g><g transform="translate(-278,-22) scale(1,1)"><path fill="#000000" stroke="none" d="M 353.790482243984 357.83732514237585 L 358 368 L 362.209517756016 357.83732514237585"/></g><g transform="translate(-278,-22) scale(1,1)"><path fill="none" stroke="#000000" d="M 353.790482243984 357.83732514237585 L 358 368 L 362.209517756016 357.83732514237585 L 353.790482243984 357.83732514237585" stroke-miterlimit="10"/></g><g transform="translate(-278,-22) scale(1,1)"><path fill="none" stroke="#000000" d="M 358 413 L 358 488" stroke-miterlimit="10"/></g><g transform="translate(-278,-22) scale(1,1)"><path fill="#000000" stroke="none" d="M 353.790482243984 477.83732514237585 L 358 488 L 362.209517756016 477.83732514237585"/></g><g transform="translate(-278,-22) scale(1,1)"><path fill="none" stroke="#000000" d="M 353.790482243984 477.83732514237585 L 358 488 L 362.209517756016 477.83732514237585 L 353.790482243984 477.83732514237585" stroke-miterlimit="10"/></g><g transform="translate(-278,-22) scale(1,1)"><path fill="#d8f2ff" stroke="none" d="M 704 68 C 704 52.5360256 716.5360256 40 732 40 C 747.4639744 40 760 52.5360256 760 68 C 760 83.4639744 747.4639744 96 732 96 C 716.5360256 96 704 83.4639744 704 68 Z"/></g><g transform="translate(-278,-22) scale(1,1)"><path fill="none" stroke="#000000" d="M 704 68 C 704 52.5360256 716.5360256 40 732 40 C 747.4639744 40 760 52.5360256 760 68 C 760 83.4639744 747.4639744 96 732 96 C 716.5360256 96 704 83.4639744 704 68 Z" stroke-miterlimit="10"/></g><g transform="translate(-278,-22) scale(1,1)"><g><path fill="none" stroke="none"/><text fill="#000000" stroke="none" font-family="Arial" font-size="13px" font-style="normal" font-weight="normal" text-decoration="none" x="722.24365234375" y="68">Kết</text><text fill="#000000" stroke="none" font-family="Arial" font-size="13px" font-style="normal" font-weight="normal" text-decoration="none" x="719.714111328125" y="81">thúc</text></g></g><g transform="translate(-278,-22) scale(1,1)"><path fill="none" stroke="#000000" d="M 680 391 L 605 391" stroke-miterlimit="10"/></g><g transform="translate(-278,-22) scale(1,1)"><path fill="#000000" stroke="none" d="M 615.1626748576241 386.790482243984 L 605 391 L 615.1626748576241 395.209517756016"/></g><g transform="translate(-278,-22) scale(1,1)"><path fill="none" stroke="#000000" d="M 615.1626748576241 386.790482243984 L 605 391 L 615.1626748576241 395.209517756016 L 615.1626748576241 386.790482243984" stroke-miterlimit="10"/></g><g transform="translate(-278,-22) scale(1,1)"><g><path fill="none" stroke="none"/><text fill="#000000" stroke="none" font-family="Arial" font-size="13px" font-style="normal" font-weight="normal" text-decoration="none" x="637.5" y="412.5">F</text></g></g></g></svg>