<svg version="1.1" xmlns="http://www.w3.org/2000/svg" xmlns:xlink="http://www.w3.org/1999/xlink" width="1097.2216796875" height="923"><defs/><g><g transform="translate(-14,-14) scale(1,1)"><path fill="#d8f2ff" stroke="none" d="M 536 52 C 536 36.5360256 548.5360256 24 564 24 C 579.4639744 24 592 36.5360256 592 52 C 592 67.4639744 579.4639744 80 564 80 C 548.5360256 80 536 67.4639744 536 52 Z"/></g><g transform="translate(-14,-14) scale(1,1)"><path fill="none" stroke="#000000" d="M 536 52 C 536 36.5360256 548.5360256 24 564 24 C 579.4639744 24 592 36.5360256 592 52 C 592 67.4639744 579.4639744 80 564 80 C 548.5360256 80 536 67.4639744 536 52 Z" stroke-miterlimit="10"/></g><g transform="translate(-14,-14) scale(1,1)"><g><path fill="none" stroke="none"/><text fill="#000000" stroke="none" font-family="Arial" font-size="13px" font-style="normal" font-weight="normal" text-decoration="none" x="554.24365234375" y="52">Bắt</text><text fill="#000000" stroke="none" font-family="Arial" font-size="13px" font-style="normal" font-weight="normal" text-decoration="none" x="553.155029296875" y="65">đầu</text></g></g><g transform="translate(-14,-14) scale(1,1)"><path fill="#d8f2ff" stroke="none" d="M 1008 244 C 1008 228.5360256 1020.5360256 216 1036 216 C 1051.4639744 216 1064 228.5360256 1064 244 C 1064 259.4639744 1051.4639744 272 1036 272 C 1020.5360256 272 1008 259.4639744 1008 244 Z"/></g><g transform="translate(-14,-14) scale(1,1)"><path fill="none" stroke="#000000" d="M 1008 244 C 1008 228.5360256 1020.5360256 216 1036 216 C 1051.4639744 216 1064 228.5360256 1064 244 C 1064 259.4639744 1051.4639744 272 1036 272 C 1020.5360256 272 1008 259.4639744 1008 244 Z" stroke-miterlimit="10"/></g><g transform="translate(-14,-14) scale(1,1)"><g><path fill="none" stroke="none"/><text fill="#000000" stroke="none" font-family="Arial" font-size="13px" font-style="normal" font-weight="normal" text-decoration="none" x="1026.24365234375" y="244">Kết</text><text fill="#000000" stroke="none" font-family="Arial" font-size="13px" font-style="normal" font-weight="normal" text-decoration="none" x="1023.714111328125" y="257">thúc</text></g></g><g transform="translate(-14,-14) scale(1,1)"><path fill="#d8f2ff" stroke="none" d="M 514 104 L 622 104 Q 632 104 632 114 L 632 139 Q 632 149 622 149 L 514 149 Q 504 149 504 139 L 504 114 Q 504 104 514 104 Z"/></g><g transform="translate(-14,-14) scale(1,1)"><path fill="none" stroke="#000000" d="M 514 104 L 622 104 Q 632 104 632 114 L 632 139 Q 632 149 622 149 L 514 149 Q 504 149 504 139 L 504 114 Q 504 104 514 104 Z" stroke-miterlimit="10"/></g><g transform="translate(-14,-14) scale(1,1)"><g><path fill="none" stroke="none"/><text fill="#000000" stroke="none" font-family="Arial" font-size="13px" font-style="normal" font-weight="normal" text-decoration="none" x="535.89990234375" y="126.5">Tính lượng</text><text fill="#000000" stroke="none" font-family="Arial" font-size="13px" font-style="normal" font-weight="normal" text-decoration="none" x="514.156005859375" y="139.5">nguyên liệu còn lại</text></g></g><g transform="translate(-14,-14) scale(1,1)"><path fill="none" stroke="#000000" d="M 568 80 L 568 104" stroke-miterlimit="10"/></g><g transform="translate(-14,-14) scale(1,1)"><path fill="#000000" stroke="none" d="M 563.790482243984 93.83732514237585 L 568 104 L 572.209517756016 93.83732514237585"/></g><g transform="translate(-14,-14) scale(1,1)"><path fill="none" stroke="#000000" d="M 563.790482243984 93.83732514237585 L 568 104 L 572.209517756016 93.83732514237585 L 563.790482243984 93.83732514237585" stroke-miterlimit="10"/></g><g transform="translate(-14,-14) scale(1,1)"><path fill="#d8f2ff" stroke="none" d="M 496 411.5 L 560 360 L 624 411.5 L 560 463 L 496 411.5"/></g><g transform="translate(-14,-14) scale(1,1)"><path fill="none" stroke="#000000" d="M 496 411.5 L 560 360 L 624 411.5 L 560 463 L 496 411.5 L 496 411.5" stroke-miterlimit="10"/></g><g transform="translate(-14,-14) scale(1,1)"><g><path fill="none" stroke="none"/><text fill="#000000" stroke="none" font-family="Arial" font-size="13px" font-style="normal" font-weight="normal" text-decoration="none" x="532.90185546875" y="405">Điều kiện</text><text fill="#000000" stroke="none" font-family="Arial" font-size="13px" font-style="normal" font-weight="normal" text-decoration="none" x="531.81640625" y="418">lặp nhiễm</text><text fill="#000000" stroke="none" font-family="Arial" font-size="13px" font-style="normal" font-weight="normal" text-decoration="none" x="539.043212890625" y="431">sắc thể</text></g></g><g transform="translate(-14,-14) scale(1,1)"><path fill="none" stroke="#000000" d="M 568 149 L 568 184" stroke-miterlimit="10"/></g><g transform="translate(-14,-14) scale(1,1)"><path fill="#000000" stroke="none" d="M 563.790482243984 173.83732514237585 L 568 184 L 572.209517756016 173.83732514237585"/></g><g transform="translate(-14,-14) scale(1,1)"><path fill="none" stroke="#000000" d="M 563.790482243984 173.83732514237585 L 568 184 L 572.209517756016 173.83732514237585 L 563.790482243984 173.83732514237585" stroke-miterlimit="10"/></g><g transform="translate(-14,-14) scale(1,1)"><path fill="#d8f2ff" stroke="none" d="M 514 184 L 619.2216796875 184 Q 629.2216796875 184 629.2216796875 194 L 629.2216796875 219 Q 629.2216796875 229 619.2216796875 229 L 514 229 Q 504 229 504 219 L 504 194 Q 504 184 514 184 Z"/></g><g transform="translate(-14,-14) scale(1,1)"><path fill="none" stroke="#000000" d="M 514 184 L 619.2216796875 184 Q 629.2216796875 184 629.2216796875 194 L 629.2216796875 219 Q 629.2216796875 229 619.2216796875 229 L 514 229 Q 504 229 504 219 L 504 194 Q 504 184 514 184 Z" stroke-miterlimit="10"/></g><g transform="translate(-14,-14) scale(1,1)"><g><path fill="none" stroke="none"/><text fill="#000000" stroke="none" font-family="Arial" font-size="13px" font-style="normal" font-weight="normal" text-decoration="none" x="519.711181640625" y="206.5">Khởi tạo các giá</text><text fill="#000000" stroke="none" font-family="Arial" font-size="13px" font-style="normal" font-weight="normal" text-decoration="none" x="534.824951171875" y="219.5">trị mục tiêu</text></g></g><g transform="translate(-14,-14) scale(1,1)"><path fill="none" stroke="#000000" d="M 568 229 L 568 256" stroke-miterlimit="10"/></g><g transform="translate(-14,-14) scale(1,1)"><path fill="#000000" stroke="none" d="M 563.790482243984 245.83732514237585 L 568 256 L 572.209517756016 245.83732514237585"/></g><g transform="translate(-14,-14) scale(1,1)"><path fill="none" stroke="#000000" d="M 563.790482243984 245.83732514237585 L 568 256 L 572.209517756016 245.83732514237585 L 563.790482243984 245.83732514237585" stroke-miterlimit="10"/></g><g transform="translate(-14,-14) scale(1,1)"><path fill="#d8f2ff" stroke="none" d="M 514 520 L 619.2216796875 520 Q 629.2216796875 520 629.2216796875 530 L 629.2216796875 568 Q 629.2216796875 578 619.2216796875 578 L 514 578 Q 504 578 504 568 L 504 530 Q 504 520 514 520 Z"/></g><g transform="translate(-14,-14) scale(1,1)"><path fill="none" stroke="#000000" d="M 514 520 L 619.2216796875 520 Q 629.2216796875 520 629.2216796875 530 L 629.2216796875 568 Q 629.2216796875 578 619.2216796875 578 L 514 578 Q 504 578 504 568 L 504 530 Q 504 520 514 520 Z" stroke-miterlimit="10"/></g><g transform="translate(-14,-14) scale(1,1)"><g><path fill="none" stroke="none"/><text fill="#000000" stroke="none" font-family="Arial" font-size="13px" font-style="normal" font-weight="normal" text-decoration="none" x="519.711181640625" y="542.5">Khởi tạo các giá</text><text fill="#000000" stroke="none" font-family="Arial" font-size="13px" font-style="normal" font-weight="normal" text-decoration="none" x="522.18359375" y="555.5">trị mục tiêu tạm</text><text fill="#000000" stroke="none" font-family="Arial" font-size="13px" font-style="normal" font-weight="normal" text-decoration="none" x="555.4833984375" y="568.5">thời</text></g></g><g transform="translate(-14,-14) scale(1,1)"><path fill="#d8f2ff" stroke="none" d="M 506 256 L 611.2216796875 256 Q 621.2216796875 256 621.2216796875 266 L 621.2216796875 304 Q 621.2216796875 314 611.2216796875 314 L 506 314 Q 496 314 496 304 L 496 266 Q 496 256 506 256 Z"/></g><g transform="translate(-14,-14) scale(1,1)"><path fill="none" stroke="#000000" d="M 506 256 L 611.2216796875 256 Q 621.2216796875 256 621.2216796875 266 L 621.2216796875 304 Q 621.2216796875 314 611.2216796875 314 L 506 314 Q 496 314 496 304 L 496 266 Q 496 256 506 256 Z" stroke-miterlimit="10"/></g><g transform="translate(-14,-14) scale(1,1)"><g><path fill="none" stroke="none"/><text fill="#000000" stroke="none" font-family="Arial" font-size="13px" font-style="normal" font-weight="normal" text-decoration="none" x="516.41162109375" y="278.5">Khởi tạo giá trị</text><text fill="#000000" stroke="none" font-family="Arial" font-size="13px" font-style="normal" font-weight="normal" text-decoration="none" x="516.332275390625" y="291.5">biến lặp nhiễm</text><text fill="#000000" stroke="none" font-family="Arial" font-size="13px" font-style="normal" font-weight="normal" text-decoration="none" x="537.654052734375" y="304.5">sắc thể</text></g></g><g transform="translate(-14,-14) scale(1,1)"><path fill="none" stroke="#000000" d="M 567 314 L 567 360" stroke-miterlimit="10"/></g><g transform="translate(-14,-14) scale(1,1)"><path fill="#000000" stroke="none" d="M 562.790482243984 349.83732514237585 L 567 360 L 571.209517756016 349.83732514237585"/></g><g transform="translate(-14,-14) scale(1,1)"><path fill="none" stroke="#000000" d="M 562.790482243984 349.83732514237585 L 567 360 L 571.209517756016 349.83732514237585 L 562.790482243984 349.83732514237585" stroke-miterlimit="10"/></g><g transform="translate(-14,-14) scale(1,1)"><path fill="none" stroke="#000000" d="M 563 463 L 563 520" stroke-miterlimit="10"/></g><g transform="translate(-14,-14) scale(1,1)"><path fill="#000000" stroke="none" d="M 558.790482243984 509.83732514237585 L 563 520 L 567.209517756016 509.83732514237585"/></g><g transform="translate(-14,-14) scale(1,1)"><path fill="none" stroke="#000000" d="M 558.790482243984 509.83732514237585 L 563 520 L 567.209517756016 509.83732514237585 L 558.790482243984 509.83732514237585" stroke-miterlimit="10"/></g><g transform="translate(-14,-14) scale(1,1)"><g><path fill="none" stroke="none"/><text fill="#000000" stroke="none" font-family="Arial" font-size="13px" font-style="normal" font-weight="normal" text-decoration="none" x="573.5" y="496.5">T</text></g></g><g transform="translate(-14,-14) scale(1,1)"><path fill="none" stroke="#000000" d="M 624 408 L 760 408" stroke-miterlimit="10"/></g><g transform="translate(-14,-14) scale(1,1)"><path fill="#000000" stroke="none" d="M 749.8373251423759 412.209517756016 L 760 408 L 749.8373251423758 403.790482243984"/></g><g transform="translate(-14,-14) scale(1,1)"><path fill="none" stroke="#000000" d="M 749.8373251423759 412.209517756016 L 760 408 L 749.8373251423758 403.790482243984 L 749.8373251423759 412.209517756016" stroke-miterlimit="10"/></g><g transform="translate(-14,-14) scale(1,1)"><g><path fill="none" stroke="none"/><text fill="#000000" stroke="none" font-family="Arial" font-size="13px" font-style="normal" font-weight="normal" text-decoration="none" x="688.5" y="399.5">F</text></g></g><g transform="translate(-14,-14) scale(1,1)"><path fill="#d8f2ff" stroke="none" d="M 770 520 L 875.2216796875 520 Q 885.2216796875 520 885.2216796875 530 L 885.2216796875 568 Q 885.2216796875 578 875.2216796875 578 L 770 578 Q 760 578 760 568 L 760 530 Q 760 520 770 520 Z"/></g><g transform="translate(-14,-14) scale(1,1)"><path fill="none" stroke="#000000" d="M 770 520 L 875.2216796875 520 Q 885.2216796875 520 885.2216796875 530 L 885.2216796875 568 Q 885.2216796875 578 875.2216796875 578 L 770 578 Q 760 578 760 568 L 760 530 Q 760 520 770 520 Z" stroke-miterlimit="10"/></g><g transform="translate(-14,-14) scale(1,1)"><g><path fill="none" stroke="none"/><text fill="#000000" stroke="none" font-family="Arial" font-size="13px" font-style="normal" font-weight="normal" text-decoration="none" x="780.41162109375" y="542.5">Khởi tạo giá trị</text><text fill="#000000" stroke="none" font-family="Arial" font-size="13px" font-style="normal" font-weight="normal" text-decoration="none" x="776.7109375" y="555.5">biến lặp nguyên</text><text fill="#000000" stroke="none" font-family="Arial" font-size="13px" font-style="normal" font-weight="normal" text-decoration="none" x="812.49267578125" y="568.5">liệu</text></g></g><g transform="translate(-14,-14) scale(1,1)"><path fill="#d8f2ff" stroke="none" d="M 978 848 L 1083.2216796875 848 Q 1093.2216796875 848 1093.2216796875 858 L 1093.2216796875 896 Q 1093.2216796875 906 1083.2216796875 906 L 978 906 Q 968 906 968 896 L 968 858 Q 968 848 978 848 Z"/></g><g transform="translate(-14,-14) scale(1,1)"><path fill="none" stroke="#000000" d="M 978 848 L 1083.2216796875 848 Q 1093.2216796875 848 1093.2216796875 858 L 1093.2216796875 896 Q 1093.2216796875 906 1083.2216796875 906 L 978 906 Q 968 906 968 896 L 968 858 Q 968 848 978 848 Z" stroke-miterlimit="10"/></g><g transform="translate(-14,-14) scale(1,1)"><g><path fill="none" stroke="none"/><text fill="#000000" stroke="none" font-family="Arial" font-size="13px" font-style="normal" font-weight="normal" text-decoration="none" x="981.8291015625" y="870.5">Cập nhật các giá</text><text fill="#000000" stroke="none" font-family="Arial" font-size="13px" font-style="normal" font-weight="normal" text-decoration="none" x="986.18359375" y="883.5">trị mục tiêu tạm</text><text fill="#000000" stroke="none" font-family="Arial" font-size="13px" font-style="normal" font-weight="normal" text-decoration="none" x="1019.4833984375" y="896.5">thời</text></g></g><g transform="translate(-14,-14) scale(1,1)"><path fill="#d8f2ff" stroke="none" d="M 760 675.5 L 816.58447265625 624 L 873.1689453125 675.5 L 816.58447265625 727 L 760 675.5"/></g><g transform="translate(-14,-14) scale(1,1)"><path fill="none" stroke="#000000" d="M 760 675.5 L 816.58447265625 624 L 873.1689453125 675.5 L 816.58447265625 727 L 760 675.5 L 760 675.5" stroke-miterlimit="10"/></g><g transform="translate(-14,-14) scale(1,1)"><g><path fill="none" stroke="none"/><text fill="#000000" stroke="none" font-family="Arial" font-size="13px" font-style="normal" font-weight="normal" text-decoration="none" x="789.486328125" y="662.5">Điều kiện</text><text fill="#000000" stroke="none" font-family="Arial" font-size="13px" font-style="normal" font-weight="normal" text-decoration="none" x="807.910400390625" y="675.5">lặp</text><text fill="#000000" stroke="none" font-family="Arial" font-size="13px" font-style="normal" font-weight="normal" text-decoration="none" x="794.180419921875" y="688.5">Nguyên</text><text fill="#000000" stroke="none" font-family="Arial" font-size="13px" font-style="normal" font-weight="normal" text-decoration="none" x="806.46630859375" y="701.5">liệu</text></g></g><g transform="translate(-14,-14) scale(1,1)"><path fill="none" stroke="#000000" d="M 629 557 L 760 557" stroke-miterlimit="10"/></g><g transform="translate(-14,-14) scale(1,1)"><path fill="#000000" stroke="none" d="M 749.8373251423759 561.209517756016 L 760 557 L 749.8373251423758 552.790482243984"/></g><g transform="translate(-14,-14) scale(1,1)"><path fill="none" stroke="#000000" d="M 749.8373251423759 561.209517756016 L 760 557 L 749.8373251423758 552.790482243984 L 749.8373251423759 561.209517756016" stroke-miterlimit="10"/></g><g transform="translate(-14,-14) scale(1,1)"><path fill="none" stroke="#000000" d="M 816 578 L 816 624" stroke-miterlimit="10"/></g><g transform="translate(-14,-14) scale(1,1)"><path fill="#000000" stroke="none" d="M 811.790482243984 613.8373251423759 L 816 624 L 820.209517756016 613.8373251423759"/></g><g transform="translate(-14,-14) scale(1,1)"><path fill="none" stroke="#000000" d="M 811.790482243984 613.8373251423759 L 816 624 L 820.209517756016 613.8373251423759 L 811.790482243984 613.8373251423759" stroke-miterlimit="10"/></g><g transform="translate(-14,-14) scale(1,1)"><path fill="#d8f2ff" stroke="none" d="M 752 875.5 L 808.58447265625 824 L 865.1689453125 875.5 L 808.58447265625 927 L 752 875.5"/></g><g transform="translate(-14,-14) scale(1,1)"><path fill="none" stroke="#000000" d="M 752 875.5 L 808.58447265625 824 L 865.1689453125 875.5 L 808.58447265625 927 L 752 875.5 L 752 875.5" stroke-miterlimit="10"/></g><g transform="translate(-14,-14) scale(1,1)"><g><path fill="none" stroke="none"/><text fill="#000000" stroke="none" font-family="Arial" font-size="13px" font-style="normal" font-weight="normal" text-decoration="none" x="781.486328125" y="862.5">Điều kiện</text><text fill="#000000" stroke="none" font-family="Arial" font-size="13px" font-style="normal" font-weight="normal" text-decoration="none" x="785.456787109375" y="875.5">thay thế</text><text fill="#000000" stroke="none" font-family="Arial" font-size="13px" font-style="normal" font-weight="normal" text-decoration="none" x="784.01904296875" y="888.5">mục tiêu</text><text fill="#000000" stroke="none" font-family="Arial" font-size="13px" font-style="normal" font-weight="normal" text-decoration="none" x="784.815673828125" y="901.5">tạm thời</text></g></g><g transform="translate(-14,-14) scale(1,1)"><path fill="none" stroke="#000000" d="M 816 727 L 816 824" stroke-miterlimit="10"/></g><g transform="translate(-14,-14) scale(1,1)"><path fill="#000000" stroke="none" d="M 811.790482243984 813.8373251423759 L 816 824 L 820.209517756016 813.8373251423759"/></g><g transform="translate(-14,-14) scale(1,1)"><path fill="none" stroke="#000000" d="M 811.790482243984 813.8373251423759 L 816 824 L 820.209517756016 813.8373251423759 L 811.790482243984 813.8373251423759" stroke-miterlimit="10"/></g><g transform="translate(-14,-14) scale(1,1)"><g><path fill="none" stroke="none"/><text fill="#000000" stroke="none" font-family="Arial" font-size="13px" font-style="normal" font-weight="normal" text-decoration="none" x="799.5" y="779.5">T</text></g></g><g transform="translate(-14,-14) scale(1,1)"><path fill="none" stroke="#000000" d="M 865 877 L 968 877" stroke-miterlimit="10"/></g><g transform="translate(-14,-14) scale(1,1)"><path fill="#000000" stroke="none" d="M 957.8373251423759 881.209517756016 L 968 877 L 957.8373251423758 872.790482243984"/></g><g transform="translate(-14,-14) scale(1,1)"><path fill="none" stroke="#000000" d="M 957.8373251423759 881.209517756016 L 968 877 L 957.8373251423758 872.790482243984 L 957.8373251423759 881.209517756016" stroke-miterlimit="10"/></g><g transform="translate(-14,-14) scale(1,1)"><g><path fill="none" stroke="none"/><text fill="#000000" stroke="none" font-family="Arial" font-size="13px" font-style="normal" font-weight="normal" text-decoration="none" x="912.5" y="868.5">T</text></g></g><g transform="translate(-14,-14) scale(1,1)"><path fill="#d8f2ff" stroke="none" d="M 986 720 L 1091.2216796875 720 Q 1101.2216796875 720 1101.2216796875 730 L 1101.2216796875 755 Q 1101.2216796875 765 1091.2216796875 765 L 986 765 Q 976 765 976 755 L 976 730 Q 976 720 986 720 Z"/></g><g transform="translate(-14,-14) scale(1,1)"><path fill="none" stroke="#000000" d="M 986 720 L 1091.2216796875 720 Q 1101.2216796875 720 1101.2216796875 730 L 1101.2216796875 755 Q 1101.2216796875 765 1091.2216796875 765 L 986 765 Q 976 765 976 755 L 976 730 Q 976 720 986 720 Z" stroke-miterlimit="10"/></g><g transform="translate(-14,-14) scale(1,1)"><g><path fill="none" stroke="none"/><text fill="#000000" stroke="none" font-family="Arial" font-size="13px" font-style="normal" font-weight="normal" text-decoration="none" x="987.655029296875" y="742.5">Cập nhật biến lặp</text><text fill="#000000" stroke="none" font-family="Arial" font-size="13px" font-style="normal" font-weight="normal" text-decoration="none" x="1005.36181640625" y="755.5">nguyên liệu</text></g></g><g transform="translate(-14,-14) scale(1,1)"><path fill="none" stroke="#000000" d="M 832 824 L 832 744 M 832 744 A 8 8 0 0 1 840 736 L 976 736" stroke-miterlimit="10"/></g><g transform="translate(-14,-14) scale(1,1)"><path fill="#000000" stroke="none" d="M 965.8373251423759 740.209517756016 L 976 736 L 965.8373251423758 731.790482243984"/></g><g transform="translate(-14,-14) scale(1,1)"><path fill="none" stroke="#000000" d="M 965.8373251423759 740.209517756016 L 976 736 L 965.8373251423758 731.790482243984 L 965.8373251423759 740.209517756016" stroke-miterlimit="10"/></g><g transform="translate(-14,-14) scale(1,1)"><g><path fill="none" stroke="none"/><text fill="#000000" stroke="none" font-family="Arial" font-size="13px" font-style="normal" font-weight="normal" text-decoration="none" x="919.5" y="755.5">F</text></g></g><g transform="translate(-14,-14) scale(1,1)"><path fill="#d8f2ff" stroke="none" d="M 234 384 L 339.2216796875 384 Q 349.2216796875 384 349.2216796875 394 L 349.2216796875 419 Q 349.2216796875 429 339.2216796875 429 L 234 429 Q 224 429 224 419 L 224 394 Q 224 384 234 384 Z"/></g><g transform="translate(-14,-14) scale(1,1)"><path fill="none" stroke="#000000" d="M 234 384 L 339.2216796875 384 Q 349.2216796875 384 349.2216796875 394 L 349.2216796875 419 Q 349.2216796875 429 339.2216796875 429 L 234 429 Q 224 429 224 419 L 224 394 Q 224 384 234 384 Z" stroke-miterlimit="10"/></g><g transform="translate(-14,-14) scale(1,1)"><g><path fill="none" stroke="none"/><text fill="#000000" stroke="none" font-family="Arial" font-size="13px" font-style="normal" font-weight="normal" text-decoration="none" x="235.655029296875" y="406.5">Cập nhật biến lặp</text><text fill="#000000" stroke="none" font-family="Arial" font-size="13px" font-style="normal" font-weight="normal" text-decoration="none" x="246.14453125" y="419.5">nhiễm sắc thể</text></g></g><g transform="translate(-14,-14) scale(1,1)"><path fill="none" stroke="#000000" d="M 1038 720 L 1038 680 M 1038 680 A 8 8 0 0 0 1030 672 L 873 672" stroke-miterlimit="10"/></g><g transform="translate(-14,-14) scale(1,1)"><path fill="#000000" stroke="none" d="M 883.1626748576241 667.790482243984 L 873 672 L 883.1626748576241 676.209517756016"/></g><g transform="translate(-14,-14) scale(1,1)"><path fill="none" stroke="#000000" d="M 883.1626748576241 667.790482243984 L 873 672 L 883.1626748576241 676.209517756016 L 883.1626748576241 667.790482243984" stroke-miterlimit="10"/></g><g transform="translate(-14,-14) scale(1,1)"><path fill="none" stroke="#000000" d="M 349 408 L 496 408" stroke-miterlimit="10"/></g><g transform="translate(-14,-14) scale(1,1)"><path fill="#000000" stroke="none" d="M 485.83732514237585 412.209517756016 L 496 408 L 485.83732514237585 403.790482243984"/></g><g transform="translate(-14,-14) scale(1,1)"><path fill="none" stroke="#000000" d="M 485.83732514237585 412.209517756016 L 496 408 L 485.83732514237585 403.790482243984 L 485.83732514237585 412.209517756016" stroke-miterlimit="10"/></g><g transform="translate(-14,-14) scale(1,1)"><path fill="#d8f2ff" stroke="none" d="M 232 678.5 L 288.58447265625 640 L 345.1689453125 678.5 L 288.58447265625 717 L 232 678.5"/></g><g transform="translate(-14,-14) scale(1,1)"><path fill="none" stroke="#000000" d="M 232 678.5 L 288.58447265625 640 L 345.1689453125 678.5 L 288.58447265625 717 L 232 678.5 L 232 678.5" stroke-miterlimit="10"/></g><g transform="translate(-14,-14) scale(1,1)"><g><path fill="none" stroke="none"/><text fill="#000000" stroke="none" font-family="Arial" font-size="13px" font-style="normal" font-weight="normal" text-decoration="none" x="261.486328125" y="672">Điều kiện</text><text fill="#000000" stroke="none" font-family="Arial" font-size="13px" font-style="normal" font-weight="normal" text-decoration="none" x="265.456787109375" y="685">thay thế</text><text fill="#000000" stroke="none" font-family="Arial" font-size="13px" font-style="normal" font-weight="normal" text-decoration="none" x="264.01904296875" y="698">mục tiêu</text></g></g><g transform="translate(-14,-14) scale(1,1)"><path fill="#d8f2ff" stroke="none" d="M 34 664 L 139.2216796875 664 Q 149.2216796875 664 149.2216796875 674 L 149.2216796875 699 Q 149.2216796875 709 139.2216796875 709 L 34 709 Q 24 709 24 699 L 24 674 Q 24 664 34 664 Z"/></g><g transform="translate(-14,-14) scale(1,1)"><path fill="none" stroke="#000000" d="M 34 664 L 139.2216796875 664 Q 149.2216796875 664 149.2216796875 674 L 149.2216796875 699 Q 149.2216796875 709 139.2216796875 709 L 34 709 Q 24 709 24 699 L 24 674 Q 24 664 34 664 Z" stroke-miterlimit="10"/></g><g transform="translate(-14,-14) scale(1,1)"><g><path fill="none" stroke="none"/><text fill="#000000" stroke="none" font-family="Arial" font-size="13px" font-style="normal" font-weight="normal" text-decoration="none" x="37.8291015625" y="686.5">Cập nhật các giá</text><text fill="#000000" stroke="none" font-family="Arial" font-size="13px" font-style="normal" font-weight="normal" text-decoration="none" x="54.824951171875" y="699.5">trị mục tiêu</text></g></g><g transform="translate(-14,-14) scale(1,1)"><path fill="none" stroke="#000000" d="M 86 664 L 86 414 M 86 414 A 8 8 0 0 1 94 406 L 224 406" stroke-miterlimit="10"/></g><g transform="translate(-14,-14) scale(1,1)"><path fill="#000000" stroke="none" d="M 213.83732514237585 410.209517756016 L 224 406 L 213.83732514237585 401.790482243984"/></g><g transform="translate(-14,-14) scale(1,1)"><path fill="none" stroke="#000000" d="M 213.83732514237585 410.209517756016 L 224 406 L 213.83732514237585 401.790482243984 L 213.83732514237585 410.209517756016" stroke-miterlimit="10"/></g><g transform="translate(-14,-14) scale(1,1)"><path fill="none" stroke="#000000" d="M 290 640 L 290 429" stroke-miterlimit="10"/></g><g transform="translate(-14,-14) scale(1,1)"><path fill="#000000" stroke="none" d="M 294.209517756016 439.16267485762415 L 290 429 L 285.790482243984 439.16267485762415"/></g><g transform="translate(-14,-14) scale(1,1)"><path fill="none" stroke="#000000" d="M 294.209517756016 439.16267485762415 L 290 429 L 285.790482243984 439.16267485762415 L 294.209517756016 439.16267485762415" stroke-miterlimit="10"/></g><g transform="translate(-14,-14) scale(1,1)"><g><path fill="none" stroke="none"/><text fill="#000000" stroke="none" font-family="Arial" font-size="13px" font-style="normal" font-weight="normal" text-decoration="none" x="271.5" y="539.5">F</text></g></g><g transform="translate(-14,-14) scale(1,1)"><path fill="#d8f2ff" stroke="none" d="M 760 411.5 L 816.58447265625 360 L 873.1689453125 411.5 L 816.58447265625 463 L 760 411.5"/></g><g transform="translate(-14,-14) scale(1,1)"><path fill="none" stroke="#000000" d="M 760 411.5 L 816.58447265625 360 L 873.1689453125 411.5 L 816.58447265625 463 L 760 411.5 L 760 411.5" stroke-miterlimit="10"/></g><g transform="translate(-14,-14) scale(1,1)"><g><path fill="none" stroke="none"/><text fill="#000000" stroke="none" font-family="Arial" font-size="13px" font-style="normal" font-weight="normal" text-decoration="none" x="789.486328125" y="398.5">Điều kiện</text><text fill="#000000" stroke="none" font-family="Arial" font-size="13px" font-style="normal" font-weight="normal" text-decoration="none" x="791.292236328125" y="411.5">tạo ra cá</text><text fill="#000000" stroke="none" font-family="Arial" font-size="13px" font-style="normal" font-weight="normal" text-decoration="none" x="796.706787109375" y="424.5">thể đột</text><text fill="#000000" stroke="none" font-family="Arial" font-size="13px" font-style="normal" font-weight="normal" text-decoration="none" x="804.29541015625" y="437.5">biến</text></g></g><g transform="translate(-14,-14) scale(1,1)"><path fill="#d8f2ff" stroke="none" d="M 986 392 L 1091.2216796875 392 Q 1101.2216796875 392 1101.2216796875 402 L 1101.2216796875 427 Q 1101.2216796875 437 1091.2216796875 437 L 986 437 Q 976 437 976 427 L 976 402 Q 976 392 986 392 Z"/></g><g transform="translate(-14,-14) scale(1,1)"><path fill="none" stroke="#000000" d="M 986 392 L 1091.2216796875 392 Q 1101.2216796875 392 1101.2216796875 402 L 1101.2216796875 427 Q 1101.2216796875 437 1091.2216796875 437 L 986 437 Q 976 437 976 427 L 976 402 Q 976 392 986 392 Z" stroke-miterlimit="10"/></g><g transform="translate(-14,-14) scale(1,1)"><g><path fill="none" stroke="none"/><text fill="#000000" stroke="none" font-family="Arial" font-size="13px" font-style="normal" font-weight="normal" text-decoration="none" x="989.470458984375" y="414.5">Tạo ra cá thể đột</text><text fill="#000000" stroke="none" font-family="Arial" font-size="13px" font-style="normal" font-weight="normal" text-decoration="none" x="1026.32177734375" y="427.5">biến</text></g></g><g transform="translate(-14,-14) scale(1,1)"><path fill="none" stroke="#000000" d="M 873 408 L 976 408" stroke-miterlimit="10"/></g><g transform="translate(-14,-14) scale(1,1)"><path fill="#000000" stroke="none" d="M 965.8373251423759 412.209517756016 L 976 408 L 965.8373251423758 403.790482243984"/></g><g transform="translate(-14,-14) scale(1,1)"><path fill="none" stroke="#000000" d="M 965.8373251423759 412.209517756016 L 976 408 L 965.8373251423758 403.790482243984 L 965.8373251423759 412.209517756016" stroke-miterlimit="10"/></g><g transform="translate(-14,-14) scale(1,1)"><g><path fill="none" stroke="none"/><text fill="#000000" stroke="none" font-family="Arial" font-size="13px" font-style="normal" font-weight="normal" text-decoration="none" x="920.5" y="399.5">T</text></g></g><g transform="translate(-14,-14) scale(1,1)"><path fill="none" stroke="#000000" d="M 1040 392 L 1040 272" stroke-miterlimit="10"/></g><g transform="translate(-14,-14) scale(1,1)"><path fill="#000000" stroke="none" d="M 1044.2095177560159 282.16267485762415 L 1040 272 L 1035.7904822439841 282.16267485762415"/></g><g transform="translate(-14,-14) scale(1,1)"><path fill="none" stroke="#000000" d="M 1044.2095177560159 282.16267485762415 L 1040 272 L 1035.7904822439841 282.16267485762415 L 1044.2095177560159 282.16267485762415" stroke-miterlimit="10"/></g><g transform="translate(-14,-14) scale(1,1)"><path fill="none" stroke="#000000" d="M 824 360 L 824 252 M 824 252 A 8 8 0 0 1 832 244 L 1008 244" stroke-miterlimit="10"/></g><g transform="translate(-14,-14) scale(1,1)"><path fill="#000000" stroke="none" d="M 997.8373251423759 248.209517756016 L 1008 244 L 997.8373251423758 239.790482243984"/></g><g transform="translate(-14,-14) scale(1,1)"><path fill="none" stroke="#000000" d="M 997.8373251423759 248.209517756016 L 1008 244 L 997.8373251423758 239.790482243984 L 997.8373251423759 248.209517756016" stroke-miterlimit="10"/></g><g transform="translate(-14,-14) scale(1,1)"><g><path fill="none" stroke="none"/><text fill="#000000" stroke="none" font-family="Arial" font-size="13px" font-style="normal" font-weight="normal" text-decoration="none" x="820.5" y="235.5">F</text></g></g><g transform="translate(-14,-14) scale(1,1)"><path fill="none" stroke="#000000" d="M 760 678 L 345 678" stroke-miterlimit="10"/></g><g transform="translate(-14,-14) scale(1,1)"><path fill="#000000" stroke="none" d="M 355.16267485762415 673.790482243984 L 345 678 L 355.16267485762415 682.209517756016"/></g><g transform="translate(-14,-14) scale(1,1)"><path fill="none" stroke="#000000" d="M 355.16267485762415 673.790482243984 L 345 678 L 355.16267485762415 682.209517756016 L 355.16267485762415 673.790482243984" stroke-miterlimit="10"/></g><g transform="translate(-14,-14) scale(1,1)"><g><path fill="none" stroke="none"/><text fill="#000000" stroke="none" font-family="Arial" font-size="13px" font-style="normal" font-weight="normal" text-decoration="none" x="547.5" y="699.5">F</text></g></g><g transform="translate(-14,-14) scale(1,1)"><path fill="none" stroke="#000000" d="M 232 683 L 149 683" stroke-miterlimit="10"/></g><g transform="translate(-14,-14) scale(1,1)"><path fill="#000000" stroke="none" d="M 159.16267485762415 678.790482243984 L 149 683 L 159.16267485762415 687.209517756016"/></g><g transform="translate(-14,-14) scale(1,1)"><path fill="none" stroke="#000000" d="M 159.16267485762415 678.790482243984 L 149 683 L 159.16267485762415 687.209517756016 L 159.16267485762415 678.790482243984" stroke-miterlimit="10"/></g><g transform="translate(-14,-14) scale(1,1)"><g><path fill="none" stroke="none"/><text fill="#000000" stroke="none" font-family="Arial" font-size="13px" font-style="normal" font-weight="normal" text-decoration="none" x="185.5" y="704.5">T</text></g></g><g transform="translate(-14,-14) scale(1,1)"><path fill="none" stroke="#000000" d="M 1032 848 L 1032 765" stroke-miterlimit="10"/></g><g transform="translate(-14,-14) scale(1,1)"><path fill="#000000" stroke="none" d="M 1036.2095177560159 775.1626748576241 L 1032 765 L 1027.7904822439841 775.1626748576241"/></g><g transform="translate(-14,-14) scale(1,1)"><path fill="none" stroke="#000000" d="M 1036.2095177560159 775.1626748576241 L 1032 765 L 1027.7904822439841 775.1626748576241 L 1036.2095177560159 775.1626748576241" stroke-miterlimit="10"/></g></g></svg>