<svg version="1.1" xmlns="http://www.w3.org/2000/svg" xmlns:xlink="http://www.w3.org/1999/xlink" width="436" height="556"><defs/><g><g transform="translate(-230,-110) scale(1,1)"><path fill="#d8f2ff" stroke="none" d="M 272 156 C 272 136.1177472 288.1177472 120 308 120 C 327.8822528 120 344 136.1177472 344 156 C 344 175.8822528 327.8822528 192 308 192 C 288.1177472 192 272 175.8822528 272 156 Z"/></g><g transform="translate(-230,-110) scale(1,1)"><path fill="none" stroke="#000000" d="M 272 156 C 272 136.1177472 288.1177472 120 308 120 C 327.8822528 120 344 136.1177472 344 156 C 344 175.8822528 327.8822528 192 308 192 C 288.1177472 192 272 175.8822528 272 156 Z" stroke-miterlimit="10"/></g><g transform="translate(-230,-110) scale(1,1)"><g><path fill="none" stroke="none"/><text fill="#000000" stroke="none" font-family="Arial" font-size="13px" font-style="normal" font-weight="normal" text-decoration="none" x="298.24365234375" y="156">Bắt</text><text fill="#000000" stroke="none" font-family="Arial" font-size="13px" font-style="normal" font-weight="normal" text-decoration="none" x="297.155029296875" y="169">đầu</text></g></g><g transform="translate(-230,-110) scale(1,1)"><path fill="#d8f2ff" stroke="none" d="M 538 624 L 643.2216796875 624 Q 653.2216796875 624 653.2216796875 634 L 653.2216796875 646 Q 653.2216796875 656 643.2216796875 656 L 538 656 Q 528 656 528 646 L 528 634 Q 528 624 538 624 Z"/></g><g transform="translate(-230,-110) scale(1,1)"><path fill="none" stroke="#000000" d="M 538 624 L 643.2216796875 624 Q 653.2216796875 624 653.2216796875 634 L 653.2216796875 646 Q 653.2216796875 656 643.2216796875 656 L 538 656 Q 528 656 528 646 L 528 634 Q 528 624 538 624 Z" stroke-miterlimit="10"/></g><g transform="translate(-230,-110) scale(1,1)"><g><path fill="none" stroke="none"/><text fill="#000000" stroke="none" font-family="Arial" font-size="13px" font-style="normal" font-weight="normal" text-decoration="none" x="539.28369140625" y="646.5">Chọn lọc tự nhiên</text></g></g><g transform="translate(-230,-110) scale(1,1)"><path fill="#d8f2ff" stroke="none" d="M 250 408 L 366 408 Q 376 408 376 418 L 376 443 Q 376 453 366 453 L 250 453 Q 240 453 240 443 L 240 418 Q 240 408 250 408 Z"/></g><g transform="translate(-230,-110) scale(1,1)"><path fill="none" stroke="#000000" d="M 250 408 L 366 408 Q 376 408 376 418 L 376 443 Q 376 453 366 453 L 250 453 Q 240 453 240 443 L 240 418 Q 240 408 250 408 Z" stroke-miterlimit="10"/></g><g transform="translate(-230,-110) scale(1,1)"><g><path fill="none" stroke="none"/><text fill="#000000" stroke="none" font-family="Arial" font-size="13px" font-style="normal" font-weight="normal" text-decoration="none" x="257.04736328125" y="430.5">Đánh giá độ thích</text><text fill="#000000" stroke="none" font-family="Arial" font-size="13px" font-style="normal" font-weight="normal" text-decoration="none" x="256.3173828125" y="443.5">nghi của quần thể</text></g></g><g transform="translate(-230,-110) scale(1,1)"><path fill="#d8f2ff" stroke="none" d="M 538 272 L 643.2216796875 272 Q 653.2216796875 272 653.2216796875 282 L 653.2216796875 307 Q 653.2216796875 317 643.2216796875 317 L 538 317 Q 528 317 528 307 L 528 282 Q 528 272 538 272 Z"/></g><g transform="translate(-230,-110) scale(1,1)"><path fill="none" stroke="#000000" d="M 538 272 L 643.2216796875 272 Q 653.2216796875 272 653.2216796875 282 L 653.2216796875 307 Q 653.2216796875 317 643.2216796875 317 L 538 317 Q 528 317 528 307 L 528 282 Q 528 272 538 272 Z" stroke-miterlimit="10"/></g><g transform="translate(-230,-110) scale(1,1)"><g><path fill="none" stroke="none"/><text fill="#000000" stroke="none" font-family="Arial" font-size="13px" font-style="normal" font-weight="normal" text-decoration="none" x="541.15625" y="294.5">Chọn phương án</text><text fill="#000000" stroke="none" font-family="Arial" font-size="13px" font-style="normal" font-weight="normal" text-decoration="none" x="568.92724609375" y="307.5">tốt nhất</text></g></g><g transform="translate(-230,-110) scale(1,1)"><path fill="#d8f2ff" stroke="none" d="M 528 433.5 L 592 408 L 656 433.5 L 592 459 L 528 433.5"/></g><g transform="translate(-230,-110) scale(1,1)"><path fill="none" stroke="#000000" d="M 528 433.5 L 592 408 L 656 433.5 L 592 459 L 528 433.5 L 528 433.5" stroke-miterlimit="10"/></g><g transform="translate(-230,-110) scale(1,1)"><g><path fill="none" stroke="none"/><text fill="#000000" stroke="none" font-family="Arial" font-size="13px" font-style="normal" font-weight="normal" text-decoration="none" x="564.90185546875" y="433.5">Điều kiện</text><text fill="#000000" stroke="none" font-family="Arial" font-size="13px" font-style="normal" font-weight="normal" text-decoration="none" x="576.8037109375" y="446.5">dừng</text></g></g><g transform="translate(-230,-110) scale(1,1)"><path fill="none" stroke="#000000" d="M 376 432 L 528 432" stroke-miterlimit="10"/></g><g transform="translate(-230,-110) scale(1,1)"><path fill="#000000" stroke="none" d="M 517.8373251423759 436.209517756016 L 528 432 L 517.8373251423758 427.790482243984"/></g><g transform="translate(-230,-110) scale(1,1)"><path fill="none" stroke="#000000" d="M 517.8373251423759 436.209517756016 L 528 432 L 517.8373251423758 427.790482243984 L 517.8373251423759 436.209517756016" stroke-miterlimit="10"/></g><g transform="translate(-230,-110) scale(1,1)"><path fill="none" stroke="#000000" d="M 592 459 L 592 624" stroke-miterlimit="10"/></g><g transform="translate(-230,-110) scale(1,1)"><path fill="#000000" stroke="none" d="M 587.790482243984 613.8373251423759 L 592 624 L 596.209517756016 613.8373251423759"/></g><g transform="translate(-230,-110) scale(1,1)"><path fill="none" stroke="#000000" d="M 587.790482243984 613.8373251423759 L 592 624 L 596.209517756016 613.8373251423759 L 587.790482243984 613.8373251423759" stroke-miterlimit="10"/></g><g transform="translate(-230,-110) scale(1,1)"><g><path fill="none" stroke="none"/><text fill="#000000" stroke="none" font-family="Arial" font-size="13px" font-style="normal" font-weight="normal" text-decoration="none" x="602.5" y="546.5">F</text></g></g><g transform="translate(-230,-110) scale(1,1)"><path fill="none" stroke="#000000" d="M 528 640 L 376 640" stroke-miterlimit="10"/></g><g transform="translate(-230,-110) scale(1,1)"><path fill="#000000" stroke="none" d="M 386.16267485762415 635.790482243984 L 376 640 L 386.16267485762415 644.209517756016"/></g><g transform="translate(-230,-110) scale(1,1)"><path fill="none" stroke="#000000" d="M 386.16267485762415 635.790482243984 L 376 640 L 386.16267485762415 644.209517756016 L 386.16267485762415 635.790482243984" stroke-miterlimit="10"/></g><g transform="translate(-230,-110) scale(1,1)"><path fill="none" stroke="#000000" d="M 592 408 L 592 317" stroke-miterlimit="10"/></g><g transform="translate(-230,-110) scale(1,1)"><path fill="#000000" stroke="none" d="M 596.209517756016 327.16267485762415 L 592 317 L 587.790482243984 327.16267485762415"/></g><g transform="translate(-230,-110) scale(1,1)"><path fill="none" stroke="#000000" d="M 596.209517756016 327.16267485762415 L 592 317 L 587.790482243984 327.16267485762415 L 596.209517756016 327.16267485762415" stroke-miterlimit="10"/></g><g transform="translate(-230,-110) scale(1,1)"><g><path fill="none" stroke="none"/><text fill="#000000" stroke="none" font-family="Arial" font-size="13px" font-style="normal" font-weight="normal" text-decoration="none" x="606.5" y="367.5">T</text></g></g><g transform="translate(-230,-110) scale(1,1)"><rect fill="#d8f2ff" stroke="none" x="240" y="272" width="136.06982421875" height="45"/></g><g transform="translate(-230,-110) scale(1,1)"><path fill="none" stroke="#000000" d="M 240 272 L 376.06982421875 272 L 376.06982421875 317 L 240 317 L 240 272 Z Z" stroke-miterlimit="10"/></g><g transform="translate(-230,-110) scale(1,1)"><path fill="none" stroke="#000000" d="M 245 272 L 245 317" stroke-miterlimit="10"/></g><g transform="translate(-230,-110) scale(1,1)"><path fill="none" stroke="#000000" d="M 371.06982421875 272 L 371.06982421875 317" stroke-miterlimit="10"/></g><g transform="translate(-230,-110) scale(1,1)"><g><path fill="none" stroke="none"/><text fill="#000000" stroke="none" font-family="Arial" font-size="13px" font-style="normal" font-weight="normal" text-decoration="none" x="256.763916015625" y="294.5">Khởi tạo quần Thể</text></g></g><g transform="translate(-230,-110) scale(1,1)"><rect fill="#d8f2ff" stroke="none" x="240" y="512" width="136.06982421875" height="32"/></g><g transform="translate(-230,-110) scale(1,1)"><path fill="none" stroke="#000000" d="M 240 512 L 376.06982421875 512 L 376.06982421875 544 L 240 544 L 240 512 Z Z" stroke-miterlimit="10"/></g><g transform="translate(-230,-110) scale(1,1)"><path fill="none" stroke="#000000" d="M 245 512 L 245 544" stroke-miterlimit="10"/></g><g transform="translate(-230,-110) scale(1,1)"><path fill="none" stroke="#000000" d="M 371.06982421875 512 L 371.06982421875 544" stroke-miterlimit="10"/></g><g transform="translate(-230,-110) scale(1,1)"><g><path fill="none" stroke="none"/><text fill="#000000" stroke="none" font-family="Arial" font-size="13px" font-style="normal" font-weight="normal" text-decoration="none" x="286.324951171875" y="534.5">Đột biến</text></g></g><g transform="translate(-230,-110) scale(1,1)"><rect fill="#d8f2ff" stroke="none" x="240" y="624" width="136.06982421875" height="32"/></g><g transform="translate(-230,-110) scale(1,1)"><path fill="none" stroke="#000000" d="M 240 624 L 376.06982421875 624 L 376.06982421875 656 L 240 656 L 240 624 Z Z" stroke-miterlimit="10"/></g><g transform="translate(-230,-110) scale(1,1)"><path fill="none" stroke="#000000" d="M 245 624 L 245 656" stroke-miterlimit="10"/></g><g transform="translate(-230,-110) scale(1,1)"><path fill="none" stroke="#000000" d="M 371.06982421875 624 L 371.06982421875 656" stroke-miterlimit="10"/></g><g transform="translate(-230,-110) scale(1,1)"><g><path fill="none" stroke="none"/><text fill="#000000" stroke="none" font-family="Arial" font-size="13px" font-style="normal" font-weight="normal" text-decoration="none" x="291.01904296875" y="646.5">Lai tạo</text></g></g><g transform="translate(-230,-110) scale(1,1)"><path fill="none" stroke="#000000" d="M 304 512 L 304 453" stroke-miterlimit="10"/></g><g transform="translate(-230,-110) scale(1,1)"><path fill="#000000" stroke="none" d="M 308.209517756016 463.16267485762415 L 304 453 L 299.790482243984 463.16267485762415"/></g><g transform="translate(-230,-110) scale(1,1)"><path fill="none" stroke="#000000" d="M 308.209517756016 463.16267485762415 L 304 453 L 299.790482243984 463.16267485762415 L 308.209517756016 463.16267485762415" stroke-miterlimit="10"/></g><g transform="translate(-230,-110) scale(1,1)"><path fill="none" stroke="#000000" d="M 304 624 L 304 544" stroke-miterlimit="10"/></g><g transform="translate(-230,-110) scale(1,1)"><path fill="#000000" stroke="none" d="M 308.209517756016 554.1626748576241 L 304 544 L 299.790482243984 554.1626748576241"/></g><g transform="translate(-230,-110) scale(1,1)"><path fill="none" stroke="#000000" d="M 308.209517756016 554.1626748576241 L 304 544 L 299.790482243984 554.1626748576241 L 308.209517756016 554.1626748576241" stroke-miterlimit="10"/></g><g transform="translate(-230,-110) scale(1,1)"><path fill="none" stroke="#000000" d="M 304 192 L 304 272" stroke-miterlimit="10"/></g><g transform="translate(-230,-110) scale(1,1)"><path fill="#000000" stroke="none" d="M 299.790482243984 261.83732514237585 L 304 272 L 308.209517756016 261.83732514237585"/></g><g transform="translate(-230,-110) scale(1,1)"><path fill="none" stroke="#000000" d="M 299.790482243984 261.83732514237585 L 304 272 L 308.209517756016 261.83732514237585 L 299.790482243984 261.83732514237585" stroke-miterlimit="10"/></g><g transform="translate(-230,-110) scale(1,1)"><path fill="none" stroke="#000000" d="M 307 317 L 307 408" stroke-miterlimit="10"/></g><g transform="translate(-230,-110) scale(1,1)"><path fill="#000000" stroke="none" d="M 302.790482243984 397.83732514237585 L 307 408 L 311.209517756016 397.83732514237585"/></g><g transform="translate(-230,-110) scale(1,1)"><path fill="none" stroke="#000000" d="M 302.790482243984 397.83732514237585 L 307 408 L 311.209517756016 397.83732514237585 L 302.790482243984 397.83732514237585" stroke-miterlimit="10"/></g><g transform="translate(-230,-110) scale(1,1)"><path fill="#d8f2ff" stroke="none" d="M 552 156 C 552 136.1177472 568.1177472 120 588 120 C 607.8822528 120 624 136.1177472 624 156 C 624 175.8822528 607.8822528 192 588 192 C 568.1177472 192 552 175.8822528 552 156 Z"/></g><g transform="translate(-230,-110) scale(1,1)"><path fill="none" stroke="#000000" d="M 552 156 C 552 136.1177472 568.1177472 120 588 120 C 607.8822528 120 624 136.1177472 624 156 C 624 175.8822528 607.8822528 192 588 192 C 568.1177472 192 552 175.8822528 552 156 Z" stroke-miterlimit="10"/></g><g transform="translate(-230,-110) scale(1,1)"><g><path fill="none" stroke="none"/></g></g><g transform="translate(-230,-110) scale(1,1)"><path fill="#d8f2ff" stroke="none" d="M 560 156 C 560 140.5360256 572.5360256 128 588 128 C 603.4639744 128 616 140.5360256 616 156 C 616 171.4639744 603.4639744 184 588 184 C 572.5360256 184 560 171.4639744 560 156 Z"/></g><g transform="translate(-230,-110) scale(1,1)"><path fill="none" stroke="#000000" d="M 560 156 C 560 140.5360256 572.5360256 128 588 128 C 603.4639744 128 616 140.5360256 616 156 C 616 171.4639744 603.4639744 184 588 184 C 572.5360256 184 560 171.4639744 560 156 Z" stroke-miterlimit="10"/></g><g transform="translate(-230,-110) scale(1,1)"><g><path fill="none" stroke="none"/><text fill="#000000" stroke="none" font-family="Arial" font-size="13px" font-style="normal" font-weight="normal" text-decoration="none" x="578.24365234375" y="156">Kết</text><text fill="#000000" stroke="none" font-family="Arial" font-size="13px" font-style="normal" font-weight="normal" text-decoration="none" x="575.714111328125" y="169">thúc</text></g></g><g transform="translate(-230,-110) scale(1,1)"><path fill="none" stroke="#000000" d="M 588 272 L 588 192" stroke-miterlimit="10"/></g><g transform="translate(-230,-110) scale(1,1)"><path fill="#000000" stroke="none" d="M 592.209517756016 202.16267485762415 L 588 192 L 583.790482243984 202.16267485762415"/></g><g transform="translate(-230,-110) scale(1,1)"><path fill="none" stroke="#000000" d="M 592.209517756016 202.16267485762415 L 588 192 L 583.790482243984 202.16267485762415 L 592.209517756016 202.16267485762415" stroke-miterlimit="10"/></g></g></svg>