<svg version="1.1" xmlns="http://www.w3.org/2000/svg" xmlns:xlink="http://www.w3.org/1999/xlink" width="433.2216796875" height="556"><defs/><g><g transform="translate(-230,-126) scale(1,1)"><path fill="#d8f2ff" stroke="none" d="M 272 164 C 272 148.5360256 284.5360256 136 300 136 C 315.4639744 136 328 148.5360256 328 164 C 328 179.4639744 315.4639744 192 300 192 C 284.5360256 192 272 179.4639744 272 164 Z"/></g><g transform="translate(-230,-126) scale(1,1)"><path fill="none" stroke="#000000" d="M 272 164 C 272 148.5360256 284.5360256 136 300 136 C 315.4639744 136 328 148.5360256 328 164 C 328 179.4639744 315.4639744 192 300 192 C 284.5360256 192 272 179.4639744 272 164 Z" stroke-miterlimit="10"/></g><g transform="translate(-230,-126) scale(1,1)"><g><path fill="none" stroke="none"/><text fill="#000000" stroke="none" font-family="Arial" font-size="13px" font-style="normal" font-weight="normal" text-decoration="none" x="290.24365234375" y="164">Bắt</text><text fill="#000000" stroke="none" font-family="Arial" font-size="13px" font-style="normal" font-weight="normal" text-decoration="none" x="289.155029296875" y="177">đầu</text></g></g><g transform="translate(-230,-126) scale(1,1)"><path fill="#d8f2ff" stroke="none" d="M 560 164 C 560 148.5360256 572.5360256 136 588 136 C 603.4639744 136 616 148.5360256 616 164 C 616 179.4639744 603.4639744 192 588 192 C 572.5360256 192 560 179.4639744 560 164 Z"/></g><g transform="translate(-230,-126) scale(1,1)"><path fill="none" stroke="#000000" d="M 560 164 C 560 148.5360256 572.5360256 136 588 136 C 603.4639744 136 616 148.5360256 616 164 C 616 179.4639744 603.4639744 192 588 192 C 572.5360256 192 560 179.4639744 560 164 Z" stroke-miterlimit="10"/></g><g transform="translate(-230,-126) scale(1,1)"><g><path fill="none" stroke="none"/><text fill="#000000" stroke="none" font-family="Arial" font-size="13px" font-style="normal" font-weight="normal" text-decoration="none" x="578.24365234375" y="164">Kết</text><text fill="#000000" stroke="none" font-family="Arial" font-size="13px" font-style="normal" font-weight="normal" text-decoration="none" x="575.714111328125" y="177">thúc</text></g></g><g transform="translate(-230,-126) scale(1,1)"><path fill="#d8f2ff" stroke="none" d="M 250 280 L 355.2216796875 280 Q 365.2216796875 280 365.2216796875 290 L 365.2216796875 315 Q 365.2216796875 325 355.2216796875 325 L 250 325 Q 240 325 240 315 L 240 290 Q 240 280 250 280 Z"/></g><g transform="translate(-230,-126) scale(1,1)"><path fill="none" stroke="#000000" d="M 250 280 L 355.2216796875 280 Q 365.2216796875 280 365.2216796875 290 L 365.2216796875 315 Q 365.2216796875 325 355.2216796875 325 L 250 325 Q 240 325 240 315 L 240 290 Q 240 280 250 280 Z" stroke-miterlimit="10"/></g><g transform="translate(-230,-126) scale(1,1)"><g><path fill="none" stroke="none"/><text fill="#000000" stroke="none" font-family="Arial" font-size="13px" font-style="normal" font-weight="normal" text-decoration="none" x="260.4052734375" y="302.5">Khởi tạo Quần</text><text fill="#000000" stroke="none" font-family="Arial" font-size="13px" font-style="normal" font-weight="normal" text-decoration="none" x="291.410400390625" y="315.5">Thể</text></g></g><g transform="translate(-230,-126) scale(1,1)"><path fill="#d8f2ff" stroke="none" d="M 250 640 L 355.2216796875 640 Q 365.2216796875 640 365.2216796875 650 L 365.2216796875 662 Q 365.2216796875 672 355.2216796875 672 L 250 672 Q 240 672 240 662 L 240 650 Q 240 640 250 640 Z"/></g><g transform="translate(-230,-126) scale(1,1)"><path fill="none" stroke="#000000" d="M 250 640 L 355.2216796875 640 Q 365.2216796875 640 365.2216796875 650 L 365.2216796875 662 Q 365.2216796875 672 355.2216796875 672 L 250 672 Q 240 672 240 662 L 240 650 Q 240 640 250 640 Z" stroke-miterlimit="10"/></g><g transform="translate(-230,-126) scale(1,1)"><g><path fill="none" stroke="none"/><text fill="#000000" stroke="none" font-family="Arial" font-size="13px" font-style="normal" font-weight="normal" text-decoration="none" x="283.094970703125" y="662.5">Lai tạo</text></g></g><g transform="translate(-230,-126) scale(1,1)"><path fill="#d8f2ff" stroke="none" d="M 538 640 L 643.2216796875 640 Q 653.2216796875 640 653.2216796875 650 L 653.2216796875 662 Q 653.2216796875 672 643.2216796875 672 L 538 672 Q 528 672 528 662 L 528 650 Q 528 640 538 640 Z"/></g><g transform="translate(-230,-126) scale(1,1)"><path fill="none" stroke="#000000" d="M 538 640 L 643.2216796875 640 Q 653.2216796875 640 653.2216796875 650 L 653.2216796875 662 Q 653.2216796875 672 643.2216796875 672 L 538 672 Q 528 672 528 662 L 528 650 Q 528 640 538 640 Z" stroke-miterlimit="10"/></g><g transform="translate(-230,-126) scale(1,1)"><g><path fill="none" stroke="none"/><text fill="#000000" stroke="none" font-family="Arial" font-size="13px" font-style="normal" font-weight="normal" text-decoration="none" x="539.28369140625" y="662.5">Chọn lọc tự nhiên</text></g></g><g transform="translate(-230,-126) scale(1,1)"><path fill="#d8f2ff" stroke="none" d="M 250 408 L 355.2216796875 408 Q 365.2216796875 408 365.2216796875 418 L 365.2216796875 443 Q 365.2216796875 453 355.2216796875 453 L 250 453 Q 240 453 240 443 L 240 418 Q 240 408 250 408 Z"/></g><g transform="translate(-230,-126) scale(1,1)"><path fill="none" stroke="#000000" d="M 250 408 L 355.2216796875 408 Q 365.2216796875 408 365.2216796875 418 L 365.2216796875 443 Q 365.2216796875 453 355.2216796875 453 L 250 453 Q 240 453 240 443 L 240 418 Q 240 408 250 408 Z" stroke-miterlimit="10"/></g><g transform="translate(-230,-126) scale(1,1)"><g><path fill="none" stroke="none"/><text fill="#000000" stroke="none" font-family="Arial" font-size="13px" font-style="normal" font-weight="normal" text-decoration="none" x="251.658203125" y="430.5">Đánh giá độ thích</text><text fill="#000000" stroke="none" font-family="Arial" font-size="13px" font-style="normal" font-weight="normal" text-decoration="none" x="250.92822265625" y="443.5">nghi của quần thể</text></g></g><g transform="translate(-230,-126) scale(1,1)"><path fill="#d8f2ff" stroke="none" d="M 250 528 L 355.2216796875 528 Q 365.2216796875 528 365.2216796875 538 L 365.2216796875 550 Q 365.2216796875 560 355.2216796875 560 L 250 560 Q 240 560 240 550 L 240 538 Q 240 528 250 528 Z"/></g><g transform="translate(-230,-126) scale(1,1)"><path fill="none" stroke="#000000" d="M 250 528 L 355.2216796875 528 Q 365.2216796875 528 365.2216796875 538 L 365.2216796875 550 Q 365.2216796875 560 355.2216796875 560 L 250 560 Q 240 560 240 550 L 240 538 Q 240 528 250 528 Z" stroke-miterlimit="10"/></g><g transform="translate(-230,-126) scale(1,1)"><g><path fill="none" stroke="none"/><text fill="#000000" stroke="none" font-family="Arial" font-size="13px" font-style="normal" font-weight="normal" text-decoration="none" x="278.40087890625" y="550.5">Đột biến</text></g></g><g transform="translate(-230,-126) scale(1,1)"><path fill="#d8f2ff" stroke="none" d="M 538 280 L 643.2216796875 280 Q 653.2216796875 280 653.2216796875 290 L 653.2216796875 315 Q 653.2216796875 325 643.2216796875 325 L 538 325 Q 528 325 528 315 L 528 290 Q 528 280 538 280 Z"/></g><g transform="translate(-230,-126) scale(1,1)"><path fill="none" stroke="#000000" d="M 538 280 L 643.2216796875 280 Q 653.2216796875 280 653.2216796875 290 L 653.2216796875 315 Q 653.2216796875 325 643.2216796875 325 L 538 325 Q 528 325 528 315 L 528 290 Q 528 280 538 280 Z" stroke-miterlimit="10"/></g><g transform="translate(-230,-126) scale(1,1)"><g><path fill="none" stroke="none"/><text fill="#000000" stroke="none" font-family="Arial" font-size="13px" font-style="normal" font-weight="normal" text-decoration="none" x="541.15625" y="302.5">Chọn phương án</text><text fill="#000000" stroke="none" font-family="Arial" font-size="13px" font-style="normal" font-weight="normal" text-decoration="none" x="568.92724609375" y="315.5">tốt nhất</text></g></g><g transform="translate(-230,-126) scale(1,1)"><path fill="#d8f2ff" stroke="none" d="M 528 433.5 L 584.58447265625 408 L 641.1689453125 433.5 L 584.58447265625 459 L 528 433.5"/></g><g transform="translate(-230,-126) scale(1,1)"><path fill="none" stroke="#000000" d="M 528 433.5 L 584.58447265625 408 L 641.1689453125 433.5 L 584.58447265625 459 L 528 433.5 L 528 433.5" stroke-miterlimit="10"/></g><g transform="translate(-230,-126) scale(1,1)"><g><path fill="none" stroke="none"/><text fill="#000000" stroke="none" font-family="Arial" font-size="13px" font-style="normal" font-weight="normal" text-decoration="none" x="557.486328125" y="433.5">Điều kiện</text><text fill="#000000" stroke="none" font-family="Arial" font-size="13px" font-style="normal" font-weight="normal" text-decoration="none" x="569.38818359375" y="446.5">dừng</text></g></g><g transform="translate(-230,-126) scale(1,1)"><path fill="none" stroke="#000000" d="M 300 192 L 300 280" stroke-miterlimit="10"/></g><g transform="translate(-230,-126) scale(1,1)"><path fill="#000000" stroke="none" d="M 295.790482243984 269.83732514237585 L 300 280 L 304.209517756016 269.83732514237585"/></g><g transform="translate(-230,-126) scale(1,1)"><path fill="none" stroke="#000000" d="M 295.790482243984 269.83732514237585 L 300 280 L 304.209517756016 269.83732514237585 L 295.790482243984 269.83732514237585" stroke-miterlimit="10"/></g><g transform="translate(-230,-126) scale(1,1)"><path fill="none" stroke="#000000" d="M 302 325 L 302 408" stroke-miterlimit="10"/></g><g transform="translate(-230,-126) scale(1,1)"><path fill="#000000" stroke="none" d="M 297.790482243984 397.83732514237585 L 302 408 L 306.209517756016 397.83732514237585"/></g><g transform="translate(-230,-126) scale(1,1)"><path fill="none" stroke="#000000" d="M 297.790482243984 397.83732514237585 L 302 408 L 306.209517756016 397.83732514237585 L 297.790482243984 397.83732514237585" stroke-miterlimit="10"/></g><g transform="translate(-230,-126) scale(1,1)"><path fill="none" stroke="#000000" d="M 365 432 L 528 432" stroke-miterlimit="10"/></g><g transform="translate(-230,-126) scale(1,1)"><path fill="#000000" stroke="none" d="M 517.8373251423759 436.209517756016 L 528 432 L 517.8373251423758 427.790482243984"/></g><g transform="translate(-230,-126) scale(1,1)"><path fill="none" stroke="#000000" d="M 517.8373251423759 436.209517756016 L 528 432 L 517.8373251423758 427.790482243984 L 517.8373251423759 436.209517756016" stroke-miterlimit="10"/></g><g transform="translate(-230,-126) scale(1,1)"><path fill="none" stroke="#000000" d="M 585 459 L 585 640" stroke-miterlimit="10"/></g><g transform="translate(-230,-126) scale(1,1)"><path fill="#000000" stroke="none" d="M 580.790482243984 629.8373251423759 L 585 640 L 589.209517756016 629.8373251423759"/></g><g transform="translate(-230,-126) scale(1,1)"><path fill="none" stroke="#000000" d="M 580.790482243984 629.8373251423759 L 585 640 L 589.209517756016 629.8373251423759 L 580.790482243984 629.8373251423759" stroke-miterlimit="10"/></g><g transform="translate(-230,-126) scale(1,1)"><g><path fill="none" stroke="none"/><text fill="#000000" stroke="none" font-family="Arial" font-size="13px" font-style="normal" font-weight="normal" text-decoration="none" x="595.5" y="554.5">F</text></g></g><g transform="translate(-230,-126) scale(1,1)"><path fill="none" stroke="#000000" d="M 528 656 L 365 656" stroke-miterlimit="10"/></g><g transform="translate(-230,-126) scale(1,1)"><path fill="#000000" stroke="none" d="M 375.16267485762415 651.790482243984 L 365 656 L 375.16267485762415 660.209517756016"/></g><g transform="translate(-230,-126) scale(1,1)"><path fill="none" stroke="#000000" d="M 375.16267485762415 651.790482243984 L 365 656 L 375.16267485762415 660.209517756016 L 375.16267485762415 651.790482243984" stroke-miterlimit="10"/></g><g transform="translate(-230,-126) scale(1,1)"><path fill="none" stroke="#000000" d="M 302 640 L 302 560" stroke-miterlimit="10"/></g><g transform="translate(-230,-126) scale(1,1)"><path fill="#000000" stroke="none" d="M 306.209517756016 570.1626748576241 L 302 560 L 297.790482243984 570.1626748576241"/></g><g transform="translate(-230,-126) scale(1,1)"><path fill="none" stroke="#000000" d="M 306.209517756016 570.1626748576241 L 302 560 L 297.790482243984 570.1626748576241 L 306.209517756016 570.1626748576241" stroke-miterlimit="10"/></g><g transform="translate(-230,-126) scale(1,1)"><path fill="none" stroke="#000000" d="M 302 528 L 302 453" stroke-miterlimit="10"/></g><g transform="translate(-230,-126) scale(1,1)"><path fill="#000000" stroke="none" d="M 306.209517756016 463.16267485762415 L 302 453 L 297.790482243984 463.16267485762415"/></g><g transform="translate(-230,-126) scale(1,1)"><path fill="none" stroke="#000000" d="M 306.209517756016 463.16267485762415 L 302 453 L 297.790482243984 463.16267485762415 L 306.209517756016 463.16267485762415" stroke-miterlimit="10"/></g><g transform="translate(-230,-126) scale(1,1)"><path fill="none" stroke="#000000" d="M 584 408 L 584 325" stroke-miterlimit="10"/></g><g transform="translate(-230,-126) scale(1,1)"><path fill="#000000" stroke="none" d="M 588.209517756016 335.16267485762415 L 584 325 L 579.790482243984 335.16267485762415"/></g><g transform="translate(-230,-126) scale(1,1)"><path fill="none" stroke="#000000" d="M 588.209517756016 335.16267485762415 L 584 325 L 579.790482243984 335.16267485762415 L 588.209517756016 335.16267485762415" stroke-miterlimit="10"/></g><g transform="translate(-230,-126) scale(1,1)"><g><path fill="none" stroke="none"/><text fill="#000000" stroke="none" font-family="Arial" font-size="13px" font-style="normal" font-weight="normal" text-decoration="none" x="598.5" y="371.5">T</text></g></g><g transform="translate(-230,-126) scale(1,1)"><path fill="none" stroke="#000000" d="M 584 280 L 584 192" stroke-miterlimit="10"/></g><g transform="translate(-230,-126) scale(1,1)"><path fill="#000000" stroke="none" d="M 588.209517756016 202.16267485762415 L 584 192 L 579.790482243984 202.16267485762415"/></g><g transform="translate(-230,-126) scale(1,1)"><path fill="none" stroke="#000000" d="M 588.209517756016 202.16267485762415 L 584 192 L 579.790482243984 202.16267485762415 L 588.209517756016 202.16267485762415" stroke-miterlimit="10"/></g></g></svg>